<svg width="32" height="32" viewBox="0 0 32 32" fill="none" xmlns="http://www.w3.org/2000/svg">
<g clip-path="url(#clip0_2174_17448)">
<path d="M31.7505 1.45344C31.4302 0.886579 30.728 0.624481 30.0809 0.834769C26.7804 1.89535 24.5671 0.423337 24.4765 0.362384C24.4442 0.34105 24.4086 0.322764 24.3698 0.307526C21.6873 -0.640292 19.2993 0.892674 19.0955 1.02982C15.7691 3.0565 16.4778 7.0093 16.7754 8.17655C16.8013 8.28322 16.8046 8.38989 16.7851 8.4996C16.1833 11.5808 14.1221 13.1564 11.5109 15.1496C10.7084 15.7621 9.88006 16.393 9.02905 17.1184C6.29161 19.4498 5.12027 22.9576 5.1688 25.4019C5.18498 26.1394 5.35 26.8586 5.62504 27.5139C4.34369 26.9104 1.93305 25.5268 1.24384 23.3996C0.774653 21.955 1.17912 20.3763 2.4443 18.7031C2.58344 18.5172 2.53814 18.2612 2.34076 18.1271C2.14338 17.9961 1.87157 18.0387 1.7292 18.2246C0.298997 20.1172 -0.147536 21.9397 0.405777 23.6403C1.48328 26.9562 5.94215 28.5653 6.13306 28.6324C6.17512 28.6476 6.22042 28.6537 6.26249 28.6567C7.04877 29.7478 8.16834 30.4731 9.32998 30.4731H17.0667C17.4194 30.4731 17.7365 30.3025 17.9144 30.019C18.0924 29.7356 18.0989 29.3943 17.9338 29.1078C17.5844 28.5013 16.8919 27.7912 15.5232 27.4407C16.3742 26.9348 17.4452 26.0906 17.9953 24.8502L18.8884 28.4983C18.8107 28.9767 18.9466 29.4613 19.2734 29.8392C19.6197 30.2446 20.1374 30.4762 20.6875 30.4762H24.3083C24.6674 30.4762 24.9975 30.3238 25.2143 30.0556C25.4311 29.7905 25.5055 29.4552 25.4149 29.1322C25.0363 27.779 23.8229 27.1939 22.959 27.008L23.4314 24.0883C26.4633 21.3272 26.816 18.5568 26.8969 12.9736C26.9454 9.49618 27.4308 9.16704 28.4953 8.44475C29.1101 8.02722 29.8738 7.50912 30.8057 6.3632C32.7115 4.01956 32.2164 2.2824 31.7505 1.45344ZM19.2508 1.93497C19.3996 3.21193 20.1892 3.84584 20.956 4.46147C21.5773 4.96128 22.2212 5.47938 22.6289 6.39977C23.1758 7.63407 23.1466 8.56665 22.5416 9.17008C21.6064 10.1027 19.6003 10.0661 18.7395 9.78266C18.3254 9.64552 17.9565 9.26456 17.6459 8.64589C17.6879 8.42341 17.6815 8.20093 17.6264 7.98455C17.3741 6.99102 16.7787 3.72699 19.2508 1.93497ZM30.1067 5.86339C29.2525 6.91178 28.5471 7.39026 27.9776 7.77731C26.6574 8.67332 26.0718 9.22799 26.0167 12.9614C25.9359 18.4898 25.6155 20.998 22.7163 23.5885C22.6451 23.6525 22.5998 23.7348 22.5836 23.8262L22.0238 27.2914C22.0044 27.4042 22.04 27.52 22.1144 27.6114C22.1921 27.6998 22.3053 27.7577 22.4251 27.7638C22.4963 27.7699 24.1594 27.8918 24.5639 29.3394C24.593 29.44 24.5477 29.5162 24.5186 29.5497C24.4668 29.6137 24.3892 29.6503 24.305 29.6503H20.6875C20.3995 29.6503 20.1309 29.5284 19.9529 29.3211C19.7717 29.1108 19.7038 28.8396 19.762 28.5745C19.775 28.5166 19.775 28.4556 19.762 28.3946L18.348 22.6194C18.3383 22.5767 18.3221 22.5401 18.2995 22.5035C18.2154 21.9458 18.0309 21.3668 17.7397 20.7755C17.6394 20.5683 17.3805 20.4799 17.1605 20.5744C16.9405 20.6689 16.8466 20.9157 16.9469 21.1199C17.552 22.3603 17.6362 23.5001 17.1993 24.5119C16.3839 26.3923 14.0153 27.2579 13.9927 27.267C13.7986 27.3341 13.6821 27.523 13.7144 27.715C13.7468 27.907 13.915 28.0533 14.1189 28.0655C15.6429 28.1539 16.6687 28.6354 17.1702 29.504C17.1929 29.5436 17.1799 29.5771 17.167 29.6015C17.154 29.6198 17.1249 29.6533 17.0699 29.6533H9.32998C7.71534 29.6533 6.08776 27.5413 6.04246 25.3866C5.99716 23.2045 7.09407 19.8765 9.61473 17.7309C10.4495 17.0208 11.2682 16.3961 12.061 15.7896C14.3939 14.0067 16.4454 12.4402 17.3482 9.77047C17.6685 10.1606 18.0374 10.4257 18.4483 10.5598C18.8787 10.7031 19.4449 10.7853 20.05 10.7853C21.1696 10.7853 22.4186 10.4928 23.179 9.7339C23.7711 9.14266 24.2986 8.02722 23.4379 6.08282C22.9493 4.98262 22.1921 4.37309 21.5255 3.83365C20.6939 3.16317 20.0791 2.66945 20.105 1.41992C20.8654 1.05115 22.3927 0.505623 24.0171 1.05725C24.4215 1.3163 26.8742 2.7365 30.3656 1.60887C30.605 1.53268 30.8607 1.62716 30.9772 1.8344C31.4269 2.63898 31.6405 3.98299 30.1067 5.86339Z" fill="#161616"/>
</g>
<defs>
<clipPath id="clip0_2174_17448">
<rect width="32" height="32" fill="white"/>
</clipPath>
</defs>
</svg>
