<svg width="32" height="32" viewBox="0 0 32 32" fill="none" xmlns="http://www.w3.org/2000/svg">
<path d="M15.9936 6.85938C9.5648 6.85938 0 7.86737 0 10.645V15.0258C0 16.1298 1.504 17.0386 4.4672 17.7266C7.0304 18.3218 10.4704 18.6962 14.1888 18.7858C14.208 18.917 14.256 19.0386 14.32 19.1474C13.248 19.7394 12.5184 20.8818 12.5184 22.1938C12.5184 24.1106 14.0768 25.669 15.9936 25.669C17.9104 25.669 19.4688 24.1106 19.4688 22.1938C19.4688 20.885 18.7392 19.7426 17.6672 19.1474C17.7344 19.0386 17.7792 18.917 17.7984 18.7858C21.52 18.693 24.96 18.3218 27.5232 17.7266C30.4864 17.0386 31.9904 16.1298 31.9904 15.0258V10.645C31.9872 7.86737 22.4224 6.85938 15.9936 6.85938ZM5.104 8.74417C8.0064 8.12337 11.8752 7.78097 15.9904 7.78097C20.1088 7.78097 23.9744 8.12337 26.88 8.74417C30.1856 9.45137 31.0656 10.2706 31.0656 10.645C31.0656 10.9778 30.3392 11.6978 27.6704 12.3634C24.688 11.6498 20.4416 11.2434 15.9904 11.2434C11.5392 11.2434 7.2928 11.653 4.3136 12.3634C1.6448 11.6978 0.9184 10.9778 0.9184 10.645C0.9184 10.2706 1.8016 9.45137 5.104 8.74417ZM17.776 13.4834C17.6576 13.0546 17.2672 12.741 16.8032 12.741H15.184C14.72 12.741 14.3296 13.0578 14.2112 13.4834C11.4496 13.4162 8.8512 13.189 6.6656 12.8338C9.3216 12.4018 12.5952 12.1586 15.9936 12.1586C19.3952 12.1586 22.6656 12.3986 25.3248 12.8338C23.136 13.1922 20.5376 13.4162 17.776 13.4834ZM0.9184 15.0258V12.021C1.6576 12.5266 2.8416 12.9682 4.464 13.3458C7.024 13.941 10.4576 14.3122 14.1728 14.405V17.8642C10.528 17.7714 7.168 17.4066 4.672 16.8274C1.7088 16.1426 0.9184 15.3714 0.9184 15.0258ZM18.5472 22.1938C18.5472 23.6018 17.4016 24.7474 15.9936 24.7474C14.5856 24.7474 13.44 23.6018 13.44 22.1938C13.44 20.7858 14.5856 19.6402 15.9936 19.6402C17.4016 19.6402 18.5472 20.7858 18.5472 22.1938ZM15.184 18.7186C15.136 18.7186 15.0944 18.6802 15.0944 18.629V18.3506C15.0944 18.3474 15.0944 18.3474 15.0944 18.3442C15.0944 18.341 15.0944 18.3378 15.0944 18.3346V13.9698C15.0944 13.9666 15.0944 13.9666 15.0944 13.9634C15.0944 13.9602 15.0944 13.957 15.0944 13.9538V13.749C15.0944 13.701 15.1328 13.6594 15.184 13.6594H16.8032C16.8512 13.6594 16.8928 13.6978 16.8928 13.749V18.629C16.8928 18.677 16.8544 18.7186 16.8032 18.7186H15.184ZM27.3152 16.8274C24.8192 17.4066 21.4592 17.7714 17.8112 17.8642V14.405C21.5264 14.3122 24.96 13.941 27.5232 13.3458C27.6064 13.3266 27.6864 13.3074 27.7696 13.2882H27.7728C29.2672 12.9234 30.368 12.501 31.0688 12.0242V15.029C31.0688 15.3714 30.2784 16.1426 27.3152 16.8274Z" fill="#161616"/>
</svg>
