<svg width="32" height="32" viewBox="0 0 32 32" fill="none" xmlns="http://www.w3.org/2000/svg">
<path d="M24.6992 21.1063C24.2824 20.4811 23.8657 19.8213 23.4142 19.092C21.7472 16.3831 19.8719 13.3269 16.5726 12.7018C15.8433 12.5629 15.0793 12.5629 14.35 12.7365C13.6207 12.9101 12.9261 13.2574 12.4051 13.7089C11.6758 14.334 11.2244 15.1675 10.7729 15.9316C10.5645 16.2789 10.3561 16.6262 10.1478 16.9735C9.59209 17.807 8.89751 18.5016 8.20294 19.2309C7.89037 19.5434 7.57781 19.856 7.29998 20.1686C6.46649 21.0715 5.35516 22.4607 5.11206 24.1624C4.76477 26.524 6.39703 28.9898 8.68914 29.5802C10.2519 29.9622 11.78 29.5107 13.2734 29.0593C14.5583 28.6772 15.7739 28.3299 16.9894 28.4689C17.7187 28.5383 18.4132 28.8161 19.1426 29.0593C19.4551 29.1634 19.7677 29.3024 20.115 29.4065C20.7401 29.6149 21.3652 29.7191 21.9903 29.7191C22.2334 29.7191 22.5113 29.6844 22.7544 29.6497C23.6921 29.5107 24.4908 29.094 25.1507 28.4689C26.2273 27.3922 26.6787 26.142 26.4009 24.6486C26.1578 23.6068 25.6369 22.426 24.6992 21.1063ZM24.4908 27.8785C23.1017 29.2329 21.2958 28.9203 20.3233 28.6078C20.0108 28.5036 19.6982 28.3994 19.3857 28.2952C18.6216 28.0174 17.8576 27.7395 17.0241 27.6354C15.6349 27.4617 14.2805 27.8785 12.9608 28.2605C11.8842 28.573 10.8423 28.8856 9.8352 28.8856C9.48791 28.8856 9.14062 28.8509 8.79333 28.7814C6.91796 28.3299 5.59826 26.2809 5.87609 24.3361C6.04974 23.2247 6.67486 22.0787 7.85565 20.7937C8.13348 20.4811 8.44604 20.1686 8.7586 19.856C9.48791 19.1267 10.2172 18.3626 10.8076 17.4944C11.0507 17.1471 11.2591 16.7651 11.4675 16.4178C11.9189 15.6538 12.301 14.9244 12.9261 14.4035C13.3428 14.0215 13.8985 13.7436 14.5236 13.6047C15.114 13.4658 15.7738 13.4658 16.3642 13.57C19.2815 14.1257 20.9832 16.904 22.6155 19.5782C23.0669 20.3075 23.4837 21.0021 23.9352 21.6272C25.9147 24.3361 26.0536 26.3156 24.4908 27.8785Z" fill="#161616"/>
<path d="M10.0455 11.9052C10.7748 12.5303 11.5736 12.8429 12.3376 12.8429C12.5807 12.8429 12.8238 12.8081 13.0669 12.7387C14.0394 12.4608 14.8034 11.6273 15.1854 10.4118C15.5327 9.26574 15.5327 7.87657 15.1507 6.52213C14.7687 5.16769 14.0394 3.98689 13.1364 3.22285C12.164 2.38934 11.0874 2.11151 10.115 2.38934C9.14257 2.66718 8.37853 3.50068 7.99652 4.7162C7.64923 5.86227 7.64923 7.25144 8.03124 8.60588C8.41326 9.92559 9.14257 11.1064 10.0455 11.9052ZM8.79528 4.95931C9.07311 4.02162 9.62878 3.39649 10.3234 3.22285C10.497 3.18812 10.6359 3.15339 10.8096 3.15339C11.3652 3.15339 11.9556 3.39649 12.546 3.8827C13.3448 4.54256 13.9699 5.58444 14.3172 6.76523C14.6645 7.94603 14.6645 9.16155 14.3866 10.1687C14.1088 11.1064 13.5532 11.7315 12.8586 11.9052C12.164 12.1135 11.3652 11.8704 10.6359 11.2453C9.83715 10.5855 9.21203 9.54357 8.86474 8.36278C8.51745 7.14725 8.48272 5.93173 8.79528 4.95931Z" fill="#161616"/>
<path d="M3.82873 18.12C4.55804 18.7451 5.3568 19.0577 6.12084 19.0577C6.36394 19.0577 6.60705 19.023 6.85015 18.9535C7.82256 18.6757 8.5866 17.8422 8.96862 16.6266C9.3159 15.4806 9.31591 14.0914 8.93389 12.737C8.55187 11.3825 7.82256 10.2017 6.91961 9.43769C5.94719 8.60419 4.8706 8.32635 3.89819 8.60419C2.92577 8.88202 2.16174 9.71552 1.77972 10.931C1.43243 12.0771 1.43243 13.4663 1.81445 14.8207C2.19647 16.1404 2.92577 17.3212 3.82873 18.12ZM2.57848 11.1742C2.85632 10.2365 3.41198 9.61134 4.10656 9.43769C4.2802 9.40296 4.41912 9.36823 4.59277 9.36823C5.14843 9.36823 5.73882 9.61134 6.32921 10.0975C7.12798 10.7574 7.7531 11.7993 8.10039 12.9801C8.44768 14.1609 8.44768 15.3764 8.16985 16.3835C7.89202 17.3212 7.33635 17.9464 6.64177 18.12C5.9472 18.3284 5.14843 18.0853 4.41912 17.4601C3.62035 16.8003 2.99523 15.7584 2.64794 14.5776C2.30065 13.3621 2.26592 12.1466 2.57848 11.1742Z" fill="#161616"/>
<path d="M19.2486 12.7387C19.4917 12.8081 19.7348 12.8429 19.9779 12.8429C20.7419 12.8429 21.5407 12.5303 22.27 11.9052C23.1729 11.1064 23.9022 9.96032 24.2843 8.60588C24.6663 7.25144 24.701 5.86227 24.319 4.7162C23.937 3.50068 23.2077 2.66718 22.2005 2.38934C21.2281 2.11151 20.1515 2.38934 19.1791 3.22285C18.2761 4.02162 17.5468 5.16769 17.1648 6.52213C16.7828 7.87657 16.7481 9.26574 17.1301 10.4118C17.5121 11.6273 18.2761 12.4608 19.2486 12.7387ZM18.033 6.76523C18.3803 5.58444 19.0055 4.54256 19.8042 3.8827C20.3599 3.39649 20.985 3.15339 21.5407 3.15339C21.7143 3.15339 21.888 3.18812 22.0269 3.22285C22.7215 3.43122 23.2771 4.05635 23.555 4.95931C23.8675 5.96646 23.8328 7.14725 23.4855 8.36278C23.1382 9.54357 22.5131 10.5855 21.7143 11.2453C20.985 11.8704 20.1862 12.1135 19.4917 11.9052C18.7971 11.6968 18.2414 11.0717 17.9636 10.1687C17.651 9.16155 17.6858 7.98076 18.033 6.76523Z" fill="#161616"/>
<path d="M22.9999 16.2786C23.3819 17.4941 24.1112 18.3276 25.1184 18.6054C25.3615 18.6749 25.6046 18.7096 25.8477 18.7096C26.6117 18.7096 27.4105 18.397 28.1398 17.7719C29.0428 16.9731 29.7721 15.8271 30.1541 14.4726C30.5708 13.0835 30.5708 11.6943 30.2235 10.5482C29.8415 9.33271 29.1122 8.49921 28.1051 8.22138C27.1327 7.94354 26.0561 8.22138 25.0837 9.05488C24.1807 9.85365 23.4514 10.9997 23.0694 12.3542C22.6874 13.7086 22.6526 15.1325 22.9999 16.2786ZM23.9029 12.632C24.2502 11.4512 24.8753 10.4093 25.6741 9.74946C26.4034 9.12434 27.2021 8.88123 27.8967 9.08961C28.5913 9.29798 29.1469 9.92311 29.4248 10.8261C29.7373 11.8332 29.7026 13.014 29.3553 14.2295C29.008 15.4103 28.3829 16.4522 27.5841 17.1121C26.8548 17.7372 26.0561 17.9803 25.3615 17.7719C24.6669 17.5635 24.1112 16.9384 23.8334 16.0355C23.5209 15.0283 23.5556 13.8128 23.9029 12.632Z" fill="#161616"/>
</svg>
