<svg width="32" height="32" viewBox="0 0 32 32" fill="none" xmlns="http://www.w3.org/2000/svg">
<g clip-path="url(#clip0_2174_17460)">
<path d="M28.131 15.2089C27.2559 15.1536 26.4109 15.4053 25.7108 15.9097L17.4979 6.68348C18.0806 6.04624 18.4239 5.23479 18.4749 4.36091C18.5329 3.35429 18.1963 2.38521 17.5259 1.63222C16.8559 0.879231 15.9322 0.432416 14.9256 0.373552C13.9206 0.315873 12.9499 0.651676 12.1969 1.3221C11.423 2.01108 10.9786 2.96002 10.9383 3.98047C9.91704 3.89908 8.92583 4.2337 8.1519 4.92269C7.39891 5.59311 6.9517 6.51676 6.89323 7.52338C6.83476 8.53 7.17136 9.49869 7.84178 10.2517C8.5122 11.0047 9.43585 11.4519 10.4425 11.5103C11.3235 11.566 12.1673 11.312 12.8804 10.7945L21.0918 20.0188C20.4992 20.6588 20.1495 21.4766 20.0986 22.3587C20.0401 23.3654 20.3767 24.3344 21.0471 25.0874C21.7918 25.9238 22.828 26.3504 23.8686 26.3504C24.7619 26.3504 25.6583 26.036 26.3765 25.3972C27.1504 24.7082 27.5949 23.7592 27.6352 22.7388C28.6528 22.8186 29.6476 22.4852 30.4215 21.7966C31.1745 21.1261 31.6217 20.2025 31.6802 19.1959C31.7387 18.1893 31.4021 17.2206 30.7317 16.4676C30.0612 15.7142 29.1376 15.2674 28.131 15.2089ZM30.8913 19.1504C30.845 19.9461 30.4915 20.6762 29.8957 21.2063C29.1874 21.8369 28.2447 22.0869 27.3092 21.8965C27.1887 21.872 27.0599 21.9056 26.9671 21.9882C26.8743 22.0711 26.8257 22.1932 26.8363 22.3173C26.9185 23.269 26.5594 24.1764 25.8511 24.8069C24.6224 25.9013 22.732 25.791 21.6377 24.562C21.1076 23.9666 20.8409 23.2002 20.8875 22.4046C20.9337 21.6085 21.2873 20.8788 21.8862 20.3455L21.9036 20.3297C22.0632 20.1839 22.0766 19.9366 21.9324 19.775L13.2209 9.98856C13.151 9.91034 13.0447 9.87044 12.94 9.86491C12.9333 9.86452 12.927 9.86412 12.9203 9.86412C12.8215 9.86412 12.7188 9.90639 12.6457 9.97158C12.0504 10.5017 11.2824 10.7676 10.4883 10.7218C9.69264 10.6756 8.96257 10.322 8.43239 9.72624C7.90222 9.13089 7.63555 8.36486 7.68217 7.56881C7.72839 6.77316 8.08197 6.04308 8.67773 5.51291C9.38568 4.882 10.3287 4.63153 11.2642 4.82274C11.3875 4.84802 11.5135 4.81405 11.6063 4.73108C11.6992 4.64812 11.7478 4.52605 11.7371 4.402C11.6549 3.45029 12.014 2.54284 12.7224 1.91232C13.3181 1.38214 14.0841 1.11429 14.8798 1.16249C15.6759 1.20832 16.4059 1.5619 16.9357 2.15765C17.4659 2.75301 17.7325 3.51943 17.6859 4.31508C17.6397 5.11113 17.2861 5.84121 16.6908 6.37098C16.6125 6.44091 16.5651 6.53849 16.5592 6.64318C16.5529 6.74787 16.5888 6.85019 16.6584 6.92881L25.3699 16.7153C25.4398 16.7935 25.5378 16.8409 25.6421 16.8468C25.7416 16.8543 25.8491 16.8176 25.9277 16.7477C26.5227 16.2175 27.2836 15.9497 28.0851 15.9975C28.8812 16.0437 29.6109 16.3973 30.141 16.993C30.6712 17.5884 30.9379 18.3544 30.8913 19.1504Z" fill="#161616"/>
<path d="M9.10738 13.5156C4.11301 13.5156 0.0498047 17.5788 0.0498047 22.5732C0.0498047 27.5676 4.11301 31.6304 9.10738 31.6304C14.1018 31.6304 18.1646 27.5672 18.1646 22.5732C18.1646 17.5792 14.1014 13.5156 9.10738 13.5156ZM9.10738 14.3057C9.314 14.3057 9.51627 14.3219 9.71934 14.3366C9.20892 16.1337 8.09682 17.6934 6.54462 18.7506C4.9782 19.8169 3.09929 20.2811 1.22472 20.0835C2.28348 16.7381 5.41593 14.3057 9.10738 14.3057ZM9.10738 30.8403C8.88615 30.8403 8.66887 30.8241 8.45198 30.8071C8.96398 29.0123 10.0753 27.455 11.6251 26.3994C13.2026 25.3252 15.0965 24.8622 16.9869 25.0704C15.925 28.4118 12.7953 30.8403 9.10738 30.8403ZM17.1907 24.2973C15.0756 24.0377 12.9474 24.5438 11.1807 25.7467C9.44398 26.9295 8.20704 28.6844 7.66027 30.7055C3.79025 30.0181 0.839928 26.6376 0.839928 22.5732C0.839928 21.9854 0.903928 21.4125 1.02087 20.8594C1.36694 20.9005 1.71301 20.9258 2.0583 20.9258C3.80842 20.9258 5.52338 20.4019 6.98867 19.4032C8.72852 18.2184 9.96704 16.4592 10.5122 14.4341C14.402 15.1046 17.3741 18.4942 17.3741 22.5728C17.3744 23.1646 17.3093 23.7406 17.1907 24.2973Z" fill="#161616"/>
</g>
<defs>
<clipPath id="clip0_2174_17460">
<rect width="32" height="32" fill="white"/>
</clipPath>
</defs>
</svg>
