<svg width="24" height="24" viewBox="0 0 24 24" fill="none" xmlns="http://www.w3.org/2000/svg">
<path d="M5 18H3C2.4 18 2 17.6 2 17V7C2 6.4 2.4 6 3 6H13C13.6 6 14 6.4 14 7V18M5 18C5 19.1046 5.89543 20 7 20C8.10457 20 9 19.1046 9 18M5 18C5 16.8954 5.89543 16 7 16C8.10457 16 9 16.8954 9 18M14 9H17.1716C17.702 9 18.2107 9.21071 18.5858 9.58579L21.4142 12.4142C21.7893 12.7893 22 13.298 22 13.8284V17C22 17.6 21.6 18 21 18H19M19 18C19 19.1046 18.1046 20 17 20C15.8954 20 15 19.1046 15 18M19 18C19 16.8954 18.1046 16 17 16C15.8954 16 15 16.8954 15 18M9 18H15" stroke="black" stroke-width="2" stroke-linecap="round" stroke-linejoin="round"/>
</svg>
