<svg width="32" height="32" viewBox="0 0 32 32" fill="none" xmlns="http://www.w3.org/2000/svg">
<path d="M12.4483 29.6965L12.4673 26.6099L14.4491 4.75747L14.4571 2.67867C14.4578 2.48707 14.2887 2.33156 14.0787 2.33075L2.66485 2.28721C2.56385 2.28683 2.46727 2.32284 2.39602 2.38771C2.32477 2.45257 2.28418 2.54042 2.28383 2.63223L2.27732 4.73841L4.09097 26.5776L4.07919 29.6639C4.07846 29.8555 4.24759 30.011 4.45756 30.0118L12.0673 30.0408C12.2769 30.0416 12.4472 29.8878 12.4483 29.6965ZM4.82287 26.2193L3.0629 5.03903L13.6593 5.07945L11.7385 26.2457L4.82287 26.2193ZM13.6967 3.02224L13.6923 4.38663L3.03707 4.34598L3.04189 2.9816L13.6967 3.02224ZM7.07437 29.3288C7.20913 28.8384 7.69388 28.4733 8.27215 28.4755C8.85041 28.4778 9.33274 28.8462 9.46337 29.338L7.07437 29.3288ZM10.2326 29.3409C10.0924 28.4652 9.27337 27.7864 8.27479 27.7826C7.2762 27.7788 6.45236 28.4513 6.30512 29.3259L4.83951 29.3203L4.8487 26.9124L11.7055 26.9385L11.691 29.3465L10.2326 29.3409Z" fill="#161616"/>
<path d="M27.445 7.4023C27.0874 7.16776 26.768 6.99262 26.4865 6.8384C25.7476 6.43298 25.4157 6.2422 25.3746 5.57854C25.8205 5.53971 26.1726 5.20082 26.1742 4.78367L26.1803 3.18265C26.182 2.73848 25.787 2.37525 25.3003 2.3734L20.3085 2.35435C19.8217 2.3525 19.4239 2.7127 19.4222 3.15687L19.4161 4.75789C19.4144 5.20206 19.8095 5.56529 20.2962 5.56714L20.3403 5.56731C20.2855 6.19907 19.9701 6.36729 19.2335 6.74456C18.9429 6.89347 18.6134 7.06199 18.2378 7.29407C16.7344 8.22139 15.8689 9.56898 15.8635 10.9902L15.7954 28.8492C15.7928 29.514 16.5106 30.0573 17.3965 30.0606L28.0016 30.1011C28.887 30.1045 29.6093 29.5664 29.6119 28.9019L29.68 11.0432C29.6845 9.66291 28.8702 8.33628 27.445 7.4023ZM20.1751 4.76079L20.1812 3.15976C20.1815 3.0974 20.2371 3.04703 20.3055 3.04729L25.2972 3.06633C25.3656 3.06659 25.4208 3.11739 25.4206 3.17975L25.4145 4.78077C25.4142 4.84314 25.3586 4.89351 25.2903 4.89325L20.2989 4.87421C20.2305 4.87395 20.1749 4.82315 20.1751 4.76079ZM28.8777 22.0944L16.5803 22.0475L16.6169 12.4458L28.9143 12.4927L28.8777 22.0944ZM28.0038 29.4085L17.3987 29.3681C16.9401 29.3663 16.5533 29.1299 16.5544 28.8524L16.5777 22.7404L28.8751 22.7873L28.8517 28.8993C28.8507 29.1768 28.4625 29.4103 28.0038 29.4085ZM28.917 11.7998L16.6196 11.7529L16.6225 10.9934C16.627 9.80435 17.3706 8.66557 18.6631 7.86841C19.0129 7.65251 19.3275 7.49122 19.6056 7.34918C20.4258 6.92892 21.0319 6.61803 21.1034 5.57057L24.6182 5.58398C24.6742 6.64024 25.302 6.99742 26.0958 7.43215C26.3648 7.58008 26.6702 7.7472 27.0027 7.96502C28.2435 8.77807 28.9247 9.87032 28.9203 11.04L28.917 11.7998Z" fill="#161616"/>
<path d="M20.2374 18.7177C20.2326 19.9785 21.3529 21.0087 22.7346 21.014C24.1167 21.0192 25.2448 19.9976 25.2497 18.7368C25.2545 17.476 24.1341 16.4459 22.752 16.4406C21.3704 16.4353 20.2422 17.4569 20.2374 18.7177ZM22.7494 17.1335C23.7127 17.1372 24.4936 17.8549 24.4903 18.7339C24.4869 19.6129 23.7009 20.3247 22.7372 20.321C21.7744 20.3173 20.9934 19.5996 20.9968 18.7206C21.0001 17.8416 21.7865 17.1299 22.7494 17.1335Z" fill="#161616"/>
<path d="M19.2195 17.8958C19.8999 17.8984 20.4555 17.3953 20.4578 16.7745C20.4602 16.1536 19.9085 15.6463 19.2281 15.6437C18.5477 15.6411 17.9922 16.1442 17.9898 16.7651C17.9875 17.3859 18.5391 17.8932 19.2195 17.8958ZM19.2255 16.3367C19.4871 16.3377 19.6994 16.5329 19.6984 16.7716C19.6975 17.0103 19.4838 17.2038 19.2222 17.2028C18.9606 17.2018 18.7483 17.0067 18.7492 16.768C18.7501 16.5292 18.9635 16.3357 19.2255 16.3367Z" fill="#161616"/>
<path d="M25.0387 16.7919C25.0363 17.4128 25.588 17.92 26.2684 17.9226C26.9488 17.9252 27.5043 17.4222 27.5067 16.8013C27.509 16.1805 26.9574 15.6732 26.277 15.6706C25.5966 15.668 25.041 16.171 25.0387 16.7919ZM26.2743 16.3635C26.5359 16.3645 26.7482 16.5597 26.7473 16.7984C26.7464 17.0371 26.5326 17.2307 26.271 17.2297C26.0094 17.2287 25.7971 17.0335 25.7981 16.7948C25.799 16.5561 26.0127 16.3625 26.2743 16.3635Z" fill="#161616"/>
<path d="M21.3953 16.1685C21.4549 16.1688 21.515 16.1642 21.5757 16.155C21.9116 16.104 22.2074 15.9062 22.3885 15.6131C22.5566 15.3401 22.6159 15.0063 22.5546 14.6738C22.4229 13.9592 21.7702 13.4599 21.0989 13.5637C20.763 13.6147 20.4672 13.8125 20.2865 14.1056C20.1184 14.3787 20.0591 14.7124 20.1204 15.0449C20.2398 15.6954 20.7913 16.1662 21.3953 16.1685ZM20.9482 14.4459C20.9879 14.3813 21.0764 14.2701 21.2242 14.2474C21.2424 14.2447 21.2603 14.2434 21.2785 14.2435C21.5151 14.2444 21.7488 14.4802 21.8057 14.788C21.8377 14.9624 21.809 15.1394 21.7264 15.2731C21.6867 15.3378 21.5978 15.449 21.45 15.4717C21.1966 15.5109 20.9303 15.2625 20.8692 14.9307C20.8369 14.7563 20.8657 14.5793 20.9482 14.4459Z" fill="#161616"/>
<path d="M23.7689 16.1249C23.8709 16.1537 23.9764 16.1683 24.0823 16.1688C24.3151 16.1696 24.5515 16.1033 24.7616 15.9745C25.0467 15.7996 25.2634 15.5257 25.3728 15.2039C25.6071 14.5122 25.2692 13.7996 24.6191 13.6159C23.969 13.4319 23.2498 13.8459 23.0152 14.5376C22.9061 14.8598 22.9158 15.1973 23.0427 15.4888C23.1789 15.8012 23.4435 16.0333 23.7689 16.1249ZM23.7404 14.7424C23.8356 14.4614 24.0767 14.2635 24.3 14.2643C24.3319 14.2645 24.3637 14.2687 24.3948 14.2772C24.6402 14.3467 24.7563 14.677 24.6476 14.9984C24.5904 15.1673 24.4775 15.3134 24.3378 15.3992C24.27 15.4401 24.1358 15.5037 23.9932 15.463C23.8498 15.423 23.7785 15.3014 23.7484 15.2327C23.6859 15.0901 23.6831 14.9113 23.7404 14.7424Z" fill="#161616"/>
</svg>
