<svg width="32" height="32" viewBox="0 0 32 32" fill="none" xmlns="http://www.w3.org/2000/svg">
<g clip-path="url(#clip0_3279_22501)">
<path d="M31.7505 1.45381C31.4302 0.886945 30.728 0.624848 30.0809 0.835135C26.7804 1.89572 24.5671 0.423703 24.4765 0.36275C24.4442 0.341416 24.4086 0.32313 24.3698 0.307892C21.6873 -0.639926 19.2993 0.893041 19.0955 1.03018C15.7691 3.05687 16.4778 7.00967 16.7754 8.17692C16.8013 8.28359 16.8046 8.39025 16.7851 8.49997C16.1833 11.5811 14.1221 13.1568 11.5109 15.1499C10.7084 15.7625 9.88006 16.3934 9.02905 17.1187C6.29161 19.4502 5.12027 22.958 5.1688 25.4022C5.18498 26.1398 5.35 26.859 5.62504 27.5142C4.34369 26.9108 1.93305 25.5272 1.24384 23.3999C0.774653 21.9553 1.17912 20.3767 2.4443 18.7035C2.58344 18.5176 2.53814 18.2616 2.34076 18.1275C2.14338 17.9964 1.87157 18.0391 1.7292 18.225C0.298997 20.1176 -0.147536 21.9401 0.405777 23.6407C1.48328 26.9565 5.94215 28.5657 6.13306 28.6327C6.17512 28.648 6.22042 28.6541 6.26249 28.6571C7.04877 29.7482 8.16834 30.4735 9.32998 30.4735H17.0667C17.4194 30.4735 17.7365 30.3028 17.9144 30.0194C18.0924 29.736 18.0989 29.3946 17.9338 29.1082C17.5844 28.5017 16.8919 27.7916 15.5232 27.4411C16.3742 26.9352 17.4452 26.091 17.9953 24.8506L18.8884 28.4986C18.8107 28.9771 18.9466 29.4617 19.2734 29.8396C19.6197 30.2449 20.1374 30.4766 20.6875 30.4766H24.3083C24.6674 30.4766 24.9975 30.3242 25.2143 30.056C25.4311 29.7908 25.5055 29.4556 25.4149 29.1325C25.0363 27.7794 23.8229 27.1942 22.959 27.0083L23.4314 24.0887C26.4633 21.3275 26.816 18.5572 26.8969 12.9739C26.9454 9.49655 27.4308 9.1674 28.4953 8.44511C29.1101 8.02758 29.8738 7.50948 30.8057 6.36357C32.7115 4.01993 32.2164 2.28277 31.7505 1.45381ZM19.2508 1.93534C19.3996 3.2123 20.1892 3.84621 20.956 4.46184C21.5773 4.96165 22.2212 5.47975 22.6289 6.40014C23.1758 7.63444 23.1466 8.56702 22.5416 9.17045C21.6064 10.103 19.6003 10.0665 18.7395 9.78303C18.3254 9.64588 17.9565 9.26493 17.6459 8.64626C17.6879 8.42378 17.6815 8.2013 17.6264 7.98492C17.3741 6.99138 16.7787 3.72735 19.2508 1.93534ZM30.1067 5.86375C29.2525 6.91214 28.5471 7.39063 27.9776 7.77768C26.6574 8.67369 26.0718 9.22836 26.0167 12.9617C25.9359 18.4902 25.6155 20.9984 22.7163 23.5889C22.6451 23.6529 22.5998 23.7352 22.5836 23.8266L22.0238 27.2918C22.0044 27.4045 22.04 27.5203 22.1144 27.6118C22.1921 27.7001 22.3053 27.7581 22.4251 27.7642C22.4963 27.7702 24.1594 27.8922 24.5639 29.3398C24.593 29.4404 24.5477 29.5165 24.5186 29.5501C24.4668 29.6141 24.3892 29.6506 24.305 29.6506H20.6875C20.3995 29.6506 20.1309 29.5287 19.9529 29.3215C19.7717 29.1112 19.7038 28.84 19.762 28.5748C19.775 28.5169 19.775 28.456 19.762 28.395L18.348 22.6197C18.3383 22.5771 18.3221 22.5405 18.2995 22.5039C18.2154 21.9462 18.0309 21.3671 17.7397 20.7759C17.6394 20.5687 17.3805 20.4803 17.1605 20.5748C16.9405 20.6692 16.8466 20.9161 16.9469 21.1203C17.552 22.3607 17.6362 23.5005 17.1993 24.5123C16.3839 26.3927 14.0153 27.2582 13.9927 27.2674C13.7986 27.3344 13.6821 27.5234 13.7144 27.7154C13.7468 27.9074 13.915 28.0537 14.1189 28.0659C15.6429 28.1542 16.6687 28.6358 17.1702 29.5044C17.1929 29.544 17.1799 29.5775 17.167 29.6019C17.154 29.6202 17.1249 29.6537 17.0699 29.6537H9.32998C7.71534 29.6537 6.08776 27.5417 6.04246 25.387C5.99716 23.2049 7.09407 19.8768 9.61473 17.7313C10.4495 17.0212 11.2682 16.3964 12.061 15.7899C14.3939 14.0071 16.4454 12.4406 17.3482 9.77084C17.6685 10.1609 18.0374 10.4261 18.4483 10.5602C18.8787 10.7034 19.4449 10.7857 20.05 10.7857C21.1696 10.7857 22.4186 10.4931 23.179 9.73427C23.7711 9.14302 24.2986 8.02758 23.4379 6.08318C22.9493 4.98298 22.1921 4.37345 21.5255 3.83402C20.6939 3.16354 20.0791 2.66982 20.105 1.42028C20.8654 1.05152 22.3927 0.505989 24.0171 1.05761C24.4215 1.31666 26.8742 2.73687 30.3656 1.60924C30.605 1.53305 30.8607 1.62752 30.9772 1.83476C31.4269 2.63934 31.6405 3.98335 30.1067 5.86375Z" fill="#161616"/>
</g>
<defs>
<clipPath id="clip0_3279_22501">
<rect width="32" height="32" fill="white"/>
</clipPath>
</defs>
</svg>
