<svg width="32" height="32" viewBox="0 0 32 32" fill="none" xmlns="http://www.w3.org/2000/svg">
<path d="M15.9936 6.85706C9.5648 6.85706 0 7.86505 0 10.6427V15.0235C0 16.1275 1.504 17.0363 4.4672 17.7243C7.0304 18.3195 10.4704 18.6939 14.1888 18.7835C14.208 18.9147 14.256 19.0363 14.32 19.1451C13.248 19.7371 12.5184 20.8795 12.5184 22.1915C12.5184 24.1083 14.0768 25.6667 15.9936 25.6667C17.9104 25.6667 19.4688 24.1083 19.4688 22.1915C19.4688 20.8827 18.7392 19.7403 17.6672 19.1451C17.7344 19.0363 17.7792 18.9147 17.7984 18.7835C21.52 18.6907 24.96 18.3195 27.5232 17.7243C30.4864 17.0363 31.9904 16.1275 31.9904 15.0235V10.6427C31.9872 7.86505 22.4224 6.85706 15.9936 6.85706ZM5.104 8.74186C8.0064 8.12106 11.8752 7.77866 15.9904 7.77866C20.1088 7.77866 23.9744 8.12106 26.88 8.74186C30.1856 9.44906 31.0656 10.2683 31.0656 10.6427C31.0656 10.9755 30.3392 11.6955 27.6704 12.3611C24.688 11.6475 20.4416 11.2411 15.9904 11.2411C11.5392 11.2411 7.2928 11.6507 4.3136 12.3611C1.6448 11.6955 0.9184 10.9755 0.9184 10.6427C0.9184 10.2683 1.8016 9.44906 5.104 8.74186ZM17.776 13.4811C17.6576 13.0523 17.2672 12.7387 16.8032 12.7387H15.184C14.72 12.7387 14.3296 13.0555 14.2112 13.4811C11.4496 13.4139 8.8512 13.1867 6.6656 12.8315C9.3216 12.3995 12.5952 12.1563 15.9936 12.1563C19.3952 12.1563 22.6656 12.3963 25.3248 12.8315C23.136 13.1899 20.5376 13.4139 17.776 13.4811ZM0.9184 15.0235V12.0187C1.6576 12.5243 2.8416 12.9659 4.464 13.3435C7.024 13.9387 10.4576 14.3099 14.1728 14.4027V17.8619C10.528 17.7691 7.168 17.4043 4.672 16.8251C1.7088 16.1403 0.9184 15.3691 0.9184 15.0235ZM18.5472 22.1915C18.5472 23.5995 17.4016 24.7451 15.9936 24.7451C14.5856 24.7451 13.44 23.5995 13.44 22.1915C13.44 20.7835 14.5856 19.6379 15.9936 19.6379C17.4016 19.6379 18.5472 20.7835 18.5472 22.1915ZM15.184 18.7163C15.136 18.7163 15.0944 18.6779 15.0944 18.6267V18.3483C15.0944 18.3451 15.0944 18.3451 15.0944 18.3419C15.0944 18.3387 15.0944 18.3355 15.0944 18.3323V13.9675C15.0944 13.9643 15.0944 13.9643 15.0944 13.9611C15.0944 13.9579 15.0944 13.9547 15.0944 13.9515V13.7467C15.0944 13.6987 15.1328 13.6571 15.184 13.6571H16.8032C16.8512 13.6571 16.8928 13.6955 16.8928 13.7467V18.6267C16.8928 18.6747 16.8544 18.7163 16.8032 18.7163H15.184ZM27.3152 16.8251C24.8192 17.4043 21.4592 17.7691 17.8112 17.8619V14.4027C21.5264 14.3099 24.96 13.9387 27.5232 13.3435C27.6064 13.3243 27.6864 13.3051 27.7696 13.2859H27.7728C29.2672 12.9211 30.368 12.4987 31.0688 12.0219V15.0267C31.0688 15.3691 30.2784 16.1403 27.3152 16.8251Z" fill="#161616"/>
</svg>
