<svg width="64" height="64" viewBox="0 0 64 64" fill="none" xmlns="http://www.w3.org/2000/svg">
<g clip-path="url(#clip0_5244_2999)">
<path d="M15.9998 5.3335H38.6665L53.3332 20.0002V53.3335C53.3332 54.748 52.7713 56.1045 51.7711 57.1047C50.7709 58.1049 49.4143 58.6668 47.9998 58.6668H15.9998C14.5853 58.6668 13.2288 58.1049 12.2286 57.1047C11.2284 56.1045 10.6665 54.748 10.6665 53.3335V10.6668C10.6665 9.25234 11.2284 7.89579 12.2286 6.89559C13.2288 5.8954 14.5853 5.3335 15.9998 5.3335Z" fill="#EEEEEE" stroke="#C8C8C8" stroke-width="2" stroke-linecap="round" stroke-linejoin="round"/>
<path d="M37.3335 5.3335V21.3335H53.3335" fill="#EEEEEE"/>
<path d="M37.3335 5.3335V21.3335H53.3335" stroke="#C8C8C8" stroke-width="2" stroke-linecap="round" stroke-linejoin="round"/>
<path d="M58.7304 58.8L50.7304 44.8C50.556 44.4922 50.303 44.2362 49.9973 44.0581C49.6917 43.88 49.3442 43.7861 48.9904 43.7861C48.6366 43.7861 48.2892 43.88 47.9835 44.0581C47.6778 44.2362 47.4249 44.4922 47.2504 44.8L39.2504 58.8C39.0741 59.1054 38.9816 59.4519 38.9824 59.8045C38.9832 60.1571 39.0772 60.5033 39.2549 60.8078C39.4325 61.1124 39.6876 61.3646 39.9941 61.5389C40.3007 61.7131 40.6478 61.8032 41.0004 61.8H57.0004C57.3513 61.7997 57.6959 61.707 57.9997 61.5313C58.3035 61.3556 58.5556 61.1031 58.7309 60.7991C58.9062 60.4952 58.9985 60.1504 58.9984 59.7995C58.9983 59.4486 58.9059 59.1039 58.7304 58.8Z" fill="#FCCE01" stroke="#E3B901" stroke-linecap="round" stroke-linejoin="round"/>
<path d="M49 51V55" stroke="#161616" stroke-width="1.5" stroke-linecap="round" stroke-linejoin="round"/>
<path d="M49 59H49.0089" stroke="#161616" stroke-width="1.5" stroke-linecap="round" stroke-linejoin="round"/>
</g>
<defs>
<clipPath id="clip0_5244_2999">
<rect width="64" height="64" fill="white"/>
</clipPath>
</defs>
</svg>
