<svg width="32" height="32" viewBox="0 0 32 32" fill="none" xmlns="http://www.w3.org/2000/svg">
<path d="M31.2682 17.8788L16.0243 0.909414C15.9396 0.815296 15.8173 0.761963 15.6918 0.761963C15.5663 0.761963 15.4439 0.815296 15.3592 0.909414L0.115294 17.8788C-0.0384314 18.0482 -0.0384314 18.3055 0.115294 18.478L2.22353 20.8278C2.30824 20.922 2.43059 20.9753 2.55608 20.9753H2.71294C2.83843 20.9753 2.96078 20.922 3.04549 20.8278L4.63922 19.0553L6.9702 30.522C7.01412 30.729 7.19608 30.8796 7.40941 30.8796H11.2306H20.1467H23.9741C24.1875 30.8796 24.3694 30.729 24.4133 30.522L26.7443 19.0553L28.338 20.8278C28.4227 20.922 28.5451 20.9753 28.6706 20.9753H28.8274C28.9529 20.9753 29.0753 20.922 29.16 20.8278L31.2682 18.478C31.422 18.3086 31.422 18.0482 31.2682 17.8788ZM11.6792 29.9855V23.438C11.6792 21.2263 13.48 19.4255 15.6918 19.4255C17.9035 19.4255 19.7043 21.2263 19.7043 23.438V29.9855H11.6792ZM23.6071 29.9855H20.5984V23.438C20.5984 20.7337 18.3961 18.5314 15.6918 18.5314C12.9875 18.5314 10.7851 20.7337 10.7851 23.438V29.9855H7.77647L5.38588 18.2239L15.6918 6.75098L18.2361 9.58392L20.8024 12.4388L25.9976 18.2239L23.6071 29.9855ZM28.749 19.9463L26.8165 17.7941C26.8165 17.7941 26.8165 17.7941 26.8165 17.791L21.5929 11.9839L16.0243 5.78471C15.9396 5.69059 15.8173 5.63726 15.6918 5.63726C15.5663 5.63726 15.4439 5.69059 15.3592 5.78471L4.5702 17.7941C4.5702 17.7941 4.5702 17.7941 4.5702 17.7973L2.63765 19.9494L1.0502 18.18L15.6918 1.87883L30.3333 18.18L28.749 19.9463Z" fill="#161616"/>
<path d="M20.0251 15.0834C20.1945 14.8136 20.2761 14.503 20.2635 14.183C20.229 13.3893 19.5796 12.7368 18.7828 12.696C18.3498 12.674 17.942 12.8277 17.6314 13.1226C17.3679 13.3736 17.2016 13.7093 17.1577 14.0669H14.2243C14.1365 13.3203 13.5028 12.7242 12.7435 12.6928C12.3137 12.674 11.909 12.8277 11.5984 13.1258C11.2879 13.4238 11.1184 13.8222 11.1184 14.2489C11.1184 14.5438 11.2 14.8293 11.3569 15.0771C11.3757 15.1085 11.3757 15.1493 11.3569 15.1775C11.1875 15.4473 11.1059 15.7579 11.1184 16.0779C11.153 16.8717 11.8024 17.5242 12.5992 17.565C13.029 17.5869 13.44 17.4332 13.7506 17.1383C14.0141 16.8873 14.1804 16.5517 14.2212 16.194H17.1545C17.2424 16.9407 17.8761 17.5368 18.6384 17.5681C18.6604 17.5681 18.6824 17.5681 18.7043 17.5681C19.109 17.5681 19.4886 17.4144 19.7835 17.1352C20.091 16.8371 20.2635 16.4387 20.2635 16.012C20.2635 15.7171 20.182 15.4317 20.0251 15.1838C20.0063 15.1556 20.0063 15.1148 20.0251 15.0834ZM19.1655 16.492C19.0337 16.6175 18.8612 16.6834 18.6792 16.6771C18.3467 16.6646 18.0612 16.3822 18.0455 16.0497C18.0455 16.0371 18.0455 16.0215 18.0455 16.0089C18.0455 15.8175 17.9733 15.6418 17.8416 15.5069C17.7098 15.3752 17.5373 15.303 17.3522 15.303H14.0424C13.8573 15.303 13.6816 15.3752 13.5498 15.5069C13.4149 15.6418 13.3428 15.8207 13.3428 16.012C13.3428 16.194 13.2706 16.3666 13.1357 16.492C13.0039 16.6175 12.8282 16.6834 12.6432 16.674C12.3106 16.6583 12.0282 16.3728 12.0126 16.0434C12.0063 15.9085 12.0408 15.7768 12.113 15.6607C12.3169 15.3407 12.3137 14.9266 12.113 14.6034C12.0471 14.4999 12.0126 14.3775 12.0126 14.252C12.0126 14.0701 12.0847 13.9007 12.2165 13.772C12.3482 13.6466 12.5239 13.5807 12.7059 13.5869C13.0384 13.5995 13.3239 13.8818 13.3396 14.2144C13.3396 14.2269 13.3396 14.2426 13.3396 14.2552C13.3396 14.4403 13.4086 14.616 13.5435 14.7509C13.6753 14.8858 13.8604 14.9611 14.0486 14.9611H17.3396C17.5247 14.9611 17.7004 14.8889 17.8322 14.7571C17.9671 14.6222 18.0392 14.4434 18.0392 14.252C18.0392 14.0701 18.1114 13.8975 18.2463 13.772C18.3781 13.6466 18.5537 13.5807 18.7388 13.5901C19.0714 13.6058 19.3537 13.8913 19.3694 14.2238C19.3757 14.3587 19.3412 14.4905 19.269 14.6066C19.0651 14.9266 19.0682 15.3407 19.269 15.6638C19.3349 15.7673 19.3694 15.8897 19.3694 16.0152C19.3694 16.1971 19.2973 16.3666 19.1655 16.492Z" fill="#161616"/>
</svg>
