<svg width="34" height="32" viewBox="0 0 34 32" fill="none" xmlns="http://www.w3.org/2000/svg">
<path d="M6.35034 10.1255L6.80297 10.1896L6.35034 10.1255ZM21.8456 2.93128L21.9996 2.50087L21.8456 2.93128ZM32.9451 13.7292L33.3563 13.5295L32.9451 13.7292ZM25.9961 19.1645L25.8473 19.5967L25.9961 19.1645ZM21.8456 15.8441L22.1978 15.5526L21.7893 15.0588L21.4554 15.6059L21.8456 15.8441ZM11.1465 19.9024L10.9882 20.3312L11.1465 19.9024ZM10.6855 7.63522L10.9838 7.98164L10.6855 7.63522ZM18.7098 8.28086L18.3651 8.58108L18.7098 8.28086ZM18.7098 15.8441L19.0494 16.1502L18.7098 15.8441ZM10.6855 16.213L10.9897 15.8718L10.6855 16.213ZM24.8516 29.0936C25.1041 29.0936 25.3088 28.8889 25.3088 28.6364C25.3088 28.3839 25.1041 28.1793 24.8516 28.1793V29.0936ZM24.8516 31.2785L24.9239 31.7298L24.8516 31.2785ZM27.0108 28.6364L27.4677 28.6214L27.0108 28.6364ZM23.9805 25.788C23.7318 25.8316 23.5655 26.0685 23.6091 26.3172C23.6527 26.5659 23.8896 26.7322 24.1383 26.6886L23.9805 25.788ZM14.87 26.6073L15.1816 26.9417L14.87 26.6073ZM18.4331 26.6073L18.125 26.945L18.4331 26.6073ZM18.4331 30.3889L18.1139 30.0616L18.4331 30.3889ZM14.7778 30.3889L14.4621 30.7195L14.7778 30.3889ZM19.292 28.6364L18.836 28.6039L19.292 28.6364ZM27.5985 4.37074L27.2822 4.70079L27.5985 4.37074ZM25.503 15.1022L25.1401 15.3802L25.503 15.1022ZM25.3625 3.28021L25.0417 2.95451L25.3625 3.28021ZM26.4528 3.27275L26.7691 2.9427L26.4528 3.27275ZM6.80297 10.1896C7.53404 5.02638 12.5632 2.14873 17.945 2.4653L17.9986 1.55259C12.328 1.21903 6.7188 4.26247 5.89772 10.0615L6.80297 10.1896ZM17.945 2.4653C19.4274 2.5525 20.2319 2.83936 21.6916 3.3617L21.9996 2.50087C20.5309 1.97529 19.621 1.64802 17.9986 1.55259L17.945 2.4653ZM32.5339 13.9289C32.6869 14.244 32.692 14.7773 32.4581 15.4484C32.23 16.1025 31.798 16.8138 31.2006 17.4286C30.0091 18.6549 28.22 19.4469 26.145 18.7323L25.8473 19.5967C28.34 20.4553 30.4853 19.4768 31.8563 18.0658C32.5401 17.3619 33.0465 16.5378 33.3214 15.7494C33.5904 14.9779 33.6632 14.1616 33.3563 13.5295L32.5339 13.9289ZM26.145 18.7323C25.2618 18.4281 24.2839 17.6573 23.4982 16.9179C23.1125 16.5549 22.7859 16.2119 22.5559 15.9597C22.441 15.8338 22.3506 15.7309 22.2893 15.66C22.2586 15.6246 22.2353 15.5972 22.2199 15.5789C22.2121 15.5698 22.2064 15.5629 22.2027 15.5585C22.2009 15.5563 22.1995 15.5547 22.1987 15.5537C22.1983 15.5532 22.198 15.5529 22.1979 15.5527C22.1978 15.5526 22.1978 15.5526 22.1978 15.5526C22.1978 15.5525 22.1978 15.5526 22.1978 15.5526C22.1978 15.5526 22.1978 15.5526 21.8456 15.8441C21.4934 16.1355 21.4935 16.1355 21.4935 16.1356C21.4935 16.1357 21.4936 16.1357 21.4937 16.1358C21.4938 16.136 21.494 16.1362 21.4942 16.1364C21.4945 16.1369 21.4951 16.1375 21.4957 16.1383C21.497 16.1398 21.4989 16.142 21.5012 16.1449C21.5059 16.1505 21.5127 16.1586 21.5215 16.169C21.539 16.1897 21.5646 16.2198 21.5977 16.258C21.6637 16.3344 21.7595 16.4434 21.8804 16.5759C22.1219 16.8407 22.465 17.2011 22.8716 17.5837C23.6705 18.3355 24.7679 19.225 25.8473 19.5967L26.145 18.7323ZM21.8456 15.8441C21.4554 15.6059 21.4555 15.6058 21.4556 15.6057C21.4556 15.6057 21.4556 15.6056 21.4556 15.6055C21.4557 15.6055 21.4556 15.6056 21.4555 15.6057C21.4553 15.606 21.4549 15.6068 21.4542 15.6078C21.4529 15.61 21.4506 15.6137 21.4473 15.6189C21.4408 15.6292 21.4305 15.6454 21.4164 15.667C21.3882 15.7102 21.345 15.7748 21.2871 15.8573C21.1712 16.0222 20.9969 16.2576 20.7666 16.5337C20.305 17.0872 19.6241 17.7975 18.7453 18.4315C16.9958 19.6933 14.4796 20.6454 11.3048 19.4735L10.9882 20.3312C14.5245 21.6366 17.3578 20.5596 19.2801 19.173C20.2372 18.4826 20.9728 17.714 21.4687 17.1193C21.7171 16.8215 21.9068 16.5657 22.0352 16.3829C22.0995 16.2914 22.1485 16.2181 22.182 16.1667C22.1988 16.141 22.2117 16.1208 22.2206 16.1066C22.2251 16.0995 22.2287 16.0938 22.2312 16.0897C22.2325 16.0877 22.2335 16.086 22.2343 16.0848C22.2346 16.0841 22.235 16.0836 22.2352 16.0832C22.2354 16.083 22.2355 16.0827 22.2356 16.0826C22.2357 16.0824 22.2358 16.0822 21.8456 15.8441ZM11.3048 19.4735C7.51936 18.0761 6.22256 14.2888 6.80297 10.1896L5.89772 10.0615C5.28571 14.3838 6.63359 18.7238 10.9882 20.3312L11.3048 19.4735ZM10.9838 7.98164C13.1679 6.10095 16.4589 6.39215 18.3651 8.58108L19.0546 7.98064C16.8315 5.42788 12.9678 5.06672 10.3872 7.28881L10.9838 7.98164ZM18.3651 8.58108C20.1595 10.6416 20.1867 13.5233 18.3703 15.538L19.0494 16.1502C21.1885 13.7774 21.1396 10.3749 19.0546 7.98064L18.3651 8.58108ZM18.3703 15.538C16.4449 17.6736 13.1513 17.7988 10.9897 15.8718L10.3813 16.5542C12.903 18.8023 16.7736 18.6744 19.0494 16.1502L18.3703 15.538ZM10.9897 15.8718C8.68748 13.8194 8.66284 9.98017 10.9838 7.98164L10.3872 7.28881C7.63131 9.66187 7.6826 14.1484 10.3813 16.5542L10.9897 15.8718ZM25.3922 10.6014L28.0039 12.7683L28.5877 12.0647L25.976 9.89779L25.3922 10.6014ZM25.866 14.8243L23.8028 12.1299L23.0769 12.6858L25.1401 15.3802L25.866 14.8243ZM6.35034 10.1255C5.97857 9.85952 5.97856 9.85955 5.97853 9.85959C5.97851 9.85962 5.97847 9.85967 5.97842 9.85973C5.97834 9.85986 5.97821 9.86003 5.97805 9.86026C5.97772 9.86072 5.97724 9.86139 5.97661 9.86227C5.97536 9.86403 5.9735 9.86662 5.97107 9.87003C5.96621 9.87684 5.95903 9.88691 5.94965 9.90007C5.93091 9.92639 5.90339 9.96509 5.86815 10.0149C5.79766 10.1144 5.69622 10.2581 5.57208 10.4356C5.32387 10.7905 4.98455 11.2807 4.62028 11.8219C3.89805 12.8948 3.05686 14.1983 2.64652 15.0372L3.46783 15.4389C3.84614 14.6655 4.65153 13.4127 5.37873 12.3324C5.73917 11.797 6.07527 11.3114 6.3213 10.9596C6.44428 10.7838 6.54467 10.6415 6.61423 10.5433C6.649 10.4942 6.67607 10.4562 6.6944 10.4304C6.70356 10.4176 6.71054 10.4078 6.7152 10.4012C6.71753 10.398 6.71928 10.3955 6.72044 10.3939C6.72102 10.3931 6.72145 10.3925 6.72173 10.3921C6.72187 10.3919 6.72197 10.3918 6.72203 10.3917C6.72207 10.3916 6.72209 10.3916 6.7221 10.3916C6.72211 10.3916 6.72211 10.3916 6.35034 10.1255ZM21.6916 3.3617C22.5226 3.65906 23.3502 4.0872 24.1584 4.60706L24.653 3.8381C23.7998 3.2893 22.9096 2.8265 21.9996 2.50087L21.6916 3.3617ZM24.7265 4.54827L25.6833 3.6059L25.0417 2.95451L24.0849 3.89688L24.7265 4.54827ZM26.1365 3.6028L27.2822 4.70079L27.9148 4.04069L26.7691 2.9427L26.1365 3.6028ZM24.1584 4.60706C25.0429 5.17599 25.899 5.85141 26.7049 6.57724L27.3168 5.89789C26.4824 5.14639 25.5872 4.43902 24.653 3.8381L24.1584 4.60706ZM26.7049 6.57724C29.5135 9.10691 31.9663 12.7601 32.5339 13.9289L33.3563 13.5295C32.7371 12.2544 30.2127 8.50619 27.3168 5.89789L26.7049 6.57724ZM27.3101 5.14003L26.6553 5.95021L27.3664 6.52493L28.0212 5.71476L27.3101 5.14003ZM23.5982 3.57694C24.0542 3.6095 24.0542 3.60943 24.0542 3.60934C24.0542 3.6093 24.0542 3.60921 24.0542 3.60912C24.0542 3.60896 24.0543 3.60875 24.0543 3.60851C24.0543 3.60802 24.0544 3.60737 24.0544 3.60657C24.0545 3.60497 24.0547 3.60276 24.0549 3.59994C24.0552 3.59431 24.0558 3.58628 24.0564 3.57601C24.0577 3.55546 24.0594 3.5259 24.0613 3.48854C24.065 3.41386 24.0695 3.30772 24.0725 3.17977C24.0785 2.92499 24.0786 2.57871 24.0543 2.22014C24.0303 1.86662 23.9812 1.47727 23.8795 1.14673C23.7887 0.851679 23.6077 0.440561 23.2053 0.289644L22.8843 1.14572C22.8508 1.13315 22.9235 1.14861 23.0056 1.41562C23.0769 1.64713 23.12 1.95529 23.1421 2.282C23.1639 2.60366 23.1641 2.92031 23.1585 3.15841C23.1557 3.2769 23.1516 3.37468 23.1481 3.44232C23.1464 3.47611 23.1449 3.50231 23.1438 3.51973C23.1433 3.52844 23.1429 3.53494 23.1426 3.5391C23.1425 3.54118 23.1424 3.54267 23.1423 3.54356C23.1423 3.544 23.1422 3.54429 23.1422 3.54443C23.1422 3.5445 23.1422 3.54453 23.1422 3.54452C23.1422 3.54451 23.1422 3.54448 23.1422 3.54448C23.1422 3.54443 23.1422 3.54437 23.5982 3.57694ZM23.2053 0.289644C23.009 0.216033 22.7699 0.221437 22.5755 0.238285C22.3601 0.256948 22.11 0.299584 21.8461 0.35549C21.3169 0.467604 20.6913 0.642052 20.0987 0.822158C19.5041 1.00285 18.9339 1.19195 18.513 1.33564C18.3024 1.40755 18.1286 1.46824 18.0074 1.51101C17.9468 1.5324 17.8993 1.54933 17.8668 1.56094C17.8505 1.56675 17.838 1.57123 17.8295 1.57429C17.8253 1.57581 17.8221 1.57698 17.8198 1.57778C17.8187 1.57818 17.8179 1.57849 17.8173 1.5787C17.817 1.57881 17.8168 1.57889 17.8166 1.57895C17.8165 1.57898 17.8165 1.579 17.8164 1.57902C17.8164 1.57904 17.8163 1.57905 17.9718 2.00894C18.1273 2.43883 18.1273 2.43883 18.1273 2.43883C18.1273 2.43882 18.1273 2.43881 18.1274 2.43879C18.1275 2.43876 18.1277 2.4387 18.1279 2.43861C18.1283 2.43844 18.1291 2.43818 18.1301 2.43783C18.132 2.43712 18.135 2.43605 18.139 2.43462C18.1469 2.43175 18.1589 2.42747 18.1746 2.42186C18.2059 2.41064 18.2523 2.39415 18.3116 2.3732C18.4303 2.33131 18.6011 2.27166 18.8084 2.2009C19.2233 2.05924 19.7831 1.87365 20.3645 1.69694C20.9479 1.51964 21.5444 1.35398 22.0356 1.24992C22.2819 1.19774 22.4915 1.16328 22.6544 1.14916C22.8383 1.13322 22.8961 1.15015 22.8843 1.14572L23.2053 0.289644ZM6.82867 29.092C8.51233 29.2323 10.3039 29.2319 11.6696 29.1972C12.3536 29.1797 12.9331 29.1536 13.3421 29.1318C13.5466 29.1209 13.7085 29.1111 13.8196 29.104C13.8752 29.1004 13.9181 29.0975 13.9472 29.0955C13.9618 29.0945 13.9729 29.0937 13.9805 29.0932C13.9843 29.0929 13.9872 29.0927 13.9892 29.0926C13.9902 29.0925 13.9909 29.0924 13.9915 29.0924C13.9917 29.0924 13.992 29.0924 13.9921 29.0923C13.9922 29.0923 13.9923 29.0923 13.9923 29.0923C13.9924 29.0923 13.9924 29.0923 13.959 28.6364C13.9255 28.1805 13.9255 28.1805 13.9255 28.1805C13.9255 28.1805 13.9255 28.1805 13.9255 28.1805C13.9254 28.1805 13.9253 28.1805 13.9251 28.1805C13.9247 28.1805 13.9241 28.1806 13.9233 28.1807C13.9216 28.1808 13.919 28.181 13.9156 28.1812C13.9087 28.1817 13.8982 28.1824 13.8844 28.1834C13.8566 28.1853 13.8152 28.1881 13.7612 28.1916C13.653 28.1985 13.4944 28.2081 13.2934 28.2188C12.8913 28.2403 12.3204 28.266 11.6463 28.2832C10.2959 28.3176 8.54131 28.3172 6.90459 28.1808L6.82867 29.092ZM21.9724 29.0936H24.8516V28.1793H21.9724V29.0936ZM21.9724 28.6364C21.5349 28.5041 21.5348 28.5043 21.5347 28.5045C21.5347 28.5046 21.5346 28.5048 21.5346 28.505C21.5345 28.5053 21.5344 28.5057 21.5343 28.506C21.5341 28.5067 21.5339 28.5074 21.5336 28.5082C21.5332 28.5097 21.5327 28.5114 21.5322 28.5132C21.5311 28.5169 21.53 28.5211 21.5287 28.526C21.5261 28.5357 21.5231 28.5478 21.5198 28.5622C21.5133 28.591 21.5057 28.6292 21.4989 28.6759C21.4851 28.7695 21.4741 28.8978 21.479 29.0559C21.4889 29.3735 21.5631 29.8046 21.8016 30.3079L22.6278 29.9164C22.446 29.5327 22.399 29.226 22.3928 29.0275C22.3897 28.9274 22.3969 28.8531 22.4035 28.8086C22.4067 28.7863 22.4098 28.7715 22.4114 28.7647C22.4122 28.7612 22.4126 28.7598 22.4124 28.7605C22.4123 28.7608 22.4121 28.7617 22.4117 28.763C22.4115 28.7637 22.4112 28.7645 22.411 28.7655C22.4108 28.766 22.4107 28.7665 22.4105 28.767C22.4104 28.7673 22.4103 28.7676 22.4103 28.7679C22.4102 28.768 22.4101 28.7682 22.4101 28.7683C22.4101 28.7685 22.41 28.7688 21.9724 28.6364ZM21.8016 30.3079C22.3334 31.43 23.7024 31.9255 24.9239 31.7298L24.7793 30.8271C23.8339 30.9785 22.9367 30.5682 22.6278 29.9164L21.8016 30.3079ZM24.9239 31.7298C26.4679 31.4826 27.5186 30.1741 27.4677 28.6214L26.5539 28.6514C26.5901 29.754 25.8586 30.6542 24.7793 30.8271L24.9239 31.7298ZM27.4677 28.6214C27.41 26.8593 25.7172 25.4839 23.9805 25.788L24.1383 26.6886C25.3273 26.4804 26.5144 27.4449 26.5539 28.6514L27.4677 28.6214ZM15.1816 26.9417C15.6475 26.5076 16.1568 26.3125 16.6465 26.3137C17.1371 26.3148 17.6515 26.5132 18.125 26.945L18.7412 26.2695C18.1235 25.7062 17.3966 25.4011 16.6486 25.3994C15.8996 25.3976 15.1729 25.7001 14.5583 26.2728L15.1816 26.9417ZM18.1139 30.0616C17.6497 30.5143 17.1216 30.7207 16.6107 30.7195C16.0988 30.7183 15.5653 30.5087 15.0934 30.0582L14.4621 30.7195C15.0845 31.3136 15.8372 31.632 16.6086 31.6338C17.381 31.6355 18.1334 31.3197 18.7523 30.7161L18.1139 30.0616ZM15.0934 30.0582C14.6088 29.5956 14.399 29.0438 14.4161 28.5074C14.4332 27.9678 14.6816 27.4077 15.1816 26.9417L14.5583 26.2728C13.8989 26.8873 13.5279 27.6708 13.5022 28.4783C13.4765 29.2891 13.8003 30.0878 14.4621 30.7195L15.0934 30.0582ZM18.125 26.945C18.6574 27.4306 18.8772 28.0267 18.836 28.6039L19.7479 28.6689C19.8102 27.7972 19.4686 26.933 18.7412 26.2695L18.125 26.945ZM18.836 28.6039C18.8003 29.1042 18.5663 29.6205 18.1139 30.0616L18.7523 30.7161C19.3491 30.1341 19.6948 29.4138 19.7479 28.6689L18.836 28.6039ZM21.9724 28.1793H19.292V29.0936H21.9724V28.1793ZM6.90459 28.1808C3.85961 27.9271 2.17696 25.6964 1.49958 22.7546L0.608605 22.9597C1.33468 26.1131 3.2329 28.7923 6.82867 29.092L6.90459 28.1808ZM1.49958 22.7546C1.17672 21.3524 1.4512 19.9481 1.92541 18.6682C2.40513 17.3735 3.05201 16.2891 3.46783 15.4389L2.64652 15.0372C2.27368 15.7995 1.56816 17.0009 1.06807 18.3506C0.562469 19.7152 0.229731 21.3143 0.608605 22.9597L1.49958 22.7546ZM27.2822 4.70079C27.4042 4.81771 27.4164 5.0086 27.3101 5.14003L28.0212 5.71476C28.4261 5.21385 28.3798 4.48632 27.9148 4.04069L27.2822 4.70079ZM28.1524 14.924C27.5254 15.6098 26.4309 15.562 25.866 14.8243L25.1401 15.3802C26.0511 16.5698 27.8161 16.6468 28.8272 15.5409L28.1524 14.924ZM28.0039 12.7683C28.6599 13.3126 28.7276 14.2949 28.1524 14.924L28.8272 15.5409C29.7547 14.5264 29.6456 12.9424 28.5877 12.0647L28.0039 12.7683ZM25.6833 3.6059C25.8086 3.48243 26.0095 3.48105 26.1365 3.6028L26.7691 2.9427C26.2849 2.47869 25.5195 2.48392 25.0417 2.95451L25.6833 3.6059ZM23.9734 10.603C24.3842 10.2606 24.9806 10.26 25.3922 10.6014L25.976 9.89779C25.2253 9.27502 24.1373 9.2762 23.3881 9.90059L23.9734 10.603ZM23.3881 9.90059C22.5543 10.5954 22.417 11.8241 23.0769 12.6858L23.8028 12.1299C23.441 11.6575 23.5163 10.9839 23.9734 10.603L23.3881 9.90059Z" fill="#161616"/>
</svg>
