<svg width="53" height="36" viewBox="0 0 53 36" fill="none" xmlns="http://www.w3.org/2000/svg">
<path d="M6.40137 0C3.08937 0 0.401367 2.688 0.401367 6V30C0.401367 33.312 3.08937 36 6.40137 36H46.4014C49.7134 36 52.4014 33.312 52.4014 30V6C52.4014 2.688 49.7134 0 46.4014 0H6.40137ZM6.40137 4H46.4014C47.5034 4 48.4014 4.898 48.4014 6V7L26.4014 18.876L4.40137 7V6C4.40137 4.898 5.29937 4 6.40137 4ZM4.40137 7.562L17.4634 17.75L4.65137 30.876L20.2774 19.75L26.4014 23.688L32.5274 19.75L48.1514 30.876L35.3394 17.75L48.4014 7.562V30C48.3903 30.308 48.3045 30.6086 48.1514 30.876C47.8214 31.526 47.1794 32 46.4014 32H6.40137C5.62337 32 4.98137 31.528 4.65137 30.876C4.49854 30.6092 4.41275 30.3073 4.40137 30V7.562Z" fill="#B4B4B4"/>
</svg>
