<svg width="53" height="52" viewBox="0 0 53 52" fill="none" xmlns="http://www.w3.org/2000/svg">
<g clip-path="url(#clip0_4276_40875)">
<path d="M6.40137 8C3.08937 8 0.401367 10.688 0.401367 14V38C0.401367 41.312 3.08937 44 6.40137 44H46.4014C49.7134 44 52.4014 41.312 52.4014 38V14C52.4014 10.688 49.7134 8 46.4014 8H6.40137ZM6.40137 12H46.4014C47.5034 12 48.4014 12.898 48.4014 14V15L26.4014 26.876L4.40137 15V14C4.40137 12.898 5.29937 12 6.40137 12ZM4.40137 15.562L17.4634 25.75L4.65137 38.876L20.2774 27.75L26.4014 31.688L32.5274 27.75L48.1514 38.876L35.3394 25.75L48.4014 15.562V38C48.3903 38.308 48.3045 38.6086 48.1514 38.876C47.8214 39.526 47.1794 40 46.4014 40H6.40137C5.62337 40 4.98137 39.528 4.65137 38.876C4.49854 38.6092 4.41275 38.3073 4.40137 38V15.562Z" fill="#B4B4B4"/>
</g>
<defs>
<clipPath id="clip0_4276_40875">
<rect width="52" height="52" fill="white" transform="translate(0.401367)"/>
</clipPath>
</defs>
</svg>
