<svg width="32" height="32" viewBox="0 0 32 32" fill="none" xmlns="http://www.w3.org/2000/svg">
<path d="M24.7002 21.1093C24.2834 20.4842 23.8667 19.8243 23.4152 19.095C21.7482 16.3861 19.8728 13.33 16.5736 12.7048C15.8443 12.5659 15.0802 12.5659 14.3509 12.7396C13.6216 12.9132 12.9271 13.2605 12.4061 13.712C11.6768 14.3371 11.2253 15.1706 10.7739 15.9346C10.5655 16.2819 10.3571 16.6292 10.1487 16.9765C9.59307 17.81 8.89849 18.5046 8.20391 19.2339C7.89135 19.5465 7.57879 19.8591 7.30096 20.1716C6.46746 21.0746 5.35614 22.4637 5.11303 24.1655C4.76574 26.5271 6.39801 28.9928 8.69012 29.5832C10.2529 29.9653 11.781 29.5138 13.2743 29.0623C14.5593 28.6803 15.7748 28.333 16.9903 28.4719C17.7196 28.5414 18.4142 28.8192 19.1435 29.0623C19.4561 29.1665 19.7687 29.3054 20.1159 29.4096C20.7411 29.618 21.3662 29.7222 21.9913 29.7222C22.2344 29.7222 22.5122 29.6874 22.7553 29.6527C23.693 29.5138 24.4918 29.097 25.1516 28.4719C26.2282 27.3953 26.6797 26.145 26.4019 24.6517C26.1588 23.6098 25.6379 22.429 24.7002 21.1093ZM24.4918 27.8815C23.1026 29.236 21.2967 28.9234 20.3243 28.6108C20.0118 28.5066 19.6992 28.4024 19.3866 28.2983C18.6226 28.0204 17.8586 27.7426 17.0251 27.6384C15.6359 27.4648 14.2815 27.8815 12.9618 28.2635C11.8852 28.5761 10.8433 28.8887 9.83617 28.8887C9.48888 28.8887 9.14159 28.8539 8.7943 28.7845C6.91894 28.333 5.59924 26.284 5.87707 24.3391C6.05072 23.2278 6.67584 22.0817 7.85662 20.7967C8.13445 20.4842 8.44702 20.1716 8.75958 19.8591C9.48888 19.1297 10.2182 18.3657 10.8086 17.4975C11.0517 17.1502 11.2601 16.7681 11.4684 16.4209C11.9199 15.6568 12.3019 14.9275 12.9271 14.4066C13.3438 14.0245 13.8995 13.7467 14.5246 13.6078C15.115 13.4689 15.7748 13.4689 16.3652 13.5731C19.2825 14.1287 20.9842 16.9071 22.6164 19.5812C23.0679 20.3105 23.4847 21.0051 23.9361 21.6302C25.9157 24.3391 26.0546 26.3187 24.4918 27.8815Z" fill="#161616"/>
<path d="M10.0455 11.9058C10.7748 12.5309 11.5736 12.8435 12.3376 12.8435C12.5807 12.8435 12.8238 12.8087 13.0669 12.7393C14.0394 12.4614 14.8034 11.6279 15.1854 10.4124C15.5327 9.26635 15.5327 7.87718 15.1507 6.52274C14.7687 5.1683 14.0394 3.9875 13.1364 3.22346C12.164 2.38995 11.0874 2.11212 10.115 2.38995C9.14257 2.66779 8.37853 3.50129 7.99652 4.71681C7.64923 5.86288 7.64923 7.25205 8.03124 8.60649C8.41326 9.9262 9.14257 11.107 10.0455 11.9058ZM8.79528 4.95992C9.07311 4.02223 9.62878 3.3971 10.3234 3.22346C10.497 3.18873 10.6359 3.154 10.8096 3.154C11.3652 3.154 11.9556 3.3971 12.546 3.88331C13.3448 4.54317 13.9699 5.58505 14.3172 6.76584C14.6645 7.94664 14.6645 9.16216 14.3866 10.1693C14.1088 11.107 13.5532 11.7321 12.8586 11.9058C12.164 12.1141 11.3652 11.871 10.6359 11.2459C9.83715 10.5861 9.21203 9.54418 8.86474 8.36339C8.51745 7.14786 8.48272 5.93234 8.79528 4.95992Z" fill="#161616"/>
<path d="M3.82873 18.1223C4.55804 18.7474 5.3568 19.06 6.12084 19.06C6.36394 19.06 6.60705 19.0252 6.85015 18.9558C7.82256 18.6779 8.5866 17.8444 8.96862 16.6289C9.3159 15.4828 9.31591 14.0937 8.93389 12.7392C8.55187 11.3848 7.82256 10.204 6.91961 9.43995C5.94719 8.60645 4.8706 8.32861 3.89819 8.60645C2.92577 8.88428 2.16174 9.71778 1.77972 10.9333C1.43243 12.0794 1.43243 13.4685 1.81445 14.823C2.19647 16.1427 2.92577 17.3235 3.82873 18.1223ZM2.57848 11.1764C2.85632 10.2387 3.41198 9.61359 4.10656 9.43995C4.2802 9.40522 4.41912 9.37049 4.59277 9.37049C5.14843 9.37049 5.73882 9.61359 6.32921 10.0998C7.12798 10.7597 7.7531 11.8015 8.10039 12.9823C8.44768 14.1631 8.44768 15.3787 8.16985 16.3858C7.89202 17.3235 7.33635 17.9486 6.64177 18.1223C5.9472 18.3306 5.14843 18.0875 4.41912 17.4624C3.62035 16.8026 2.99523 15.7607 2.64794 14.5799C2.30065 13.3644 2.26592 12.1488 2.57848 11.1764Z" fill="#161616"/>
<path d="M19.2495 12.7393C19.4926 12.8087 19.7357 12.8435 19.9788 12.8435C20.7429 12.8435 21.5416 12.5309 22.271 11.9058C23.1739 11.107 23.9032 9.96093 24.2852 8.60649C24.6673 7.25205 24.702 5.86288 24.32 4.71681C23.9379 3.50129 23.2086 2.66779 22.2015 2.38995C21.2291 2.11212 20.1525 2.38995 19.1801 3.22346C18.2771 4.02223 17.5478 5.1683 17.1658 6.52274C16.7838 7.87718 16.749 9.26635 17.1311 10.4124C17.5131 11.6279 18.2771 12.4614 19.2495 12.7393ZM18.034 6.76584C18.3813 5.58505 19.0064 4.54317 19.8052 3.88331C20.3609 3.3971 20.986 3.154 21.5416 3.154C21.7153 3.154 21.8889 3.18873 22.0279 3.22346C22.7224 3.43183 23.2781 4.05696 23.5559 4.95992C23.8685 5.96707 23.8338 7.14786 23.4865 8.36339C23.1392 9.54418 22.5141 10.5861 21.7153 11.2459C20.986 11.871 20.1872 12.1141 19.4926 11.9058C18.7981 11.6974 18.2424 11.0723 17.9646 10.1693C17.652 9.16216 17.6867 7.98137 18.034 6.76584Z" fill="#161616"/>
<path d="M22.9999 16.2819C23.3819 17.4974 24.1112 18.3309 25.1184 18.6087C25.3615 18.6782 25.6046 18.7129 25.8477 18.7129C26.6117 18.7129 27.4105 18.4003 28.1398 17.7752C29.0428 16.9764 29.7721 15.8304 30.1541 14.4759C30.5708 13.0868 30.5708 11.6976 30.2235 10.5515C29.8415 9.33601 29.1122 8.50251 28.1051 8.22467C27.1327 7.94684 26.0561 8.22467 25.0837 9.05817C24.1807 9.85695 23.4514 11.003 23.0694 12.3575C22.6874 13.7119 22.6526 15.1358 22.9999 16.2819ZM23.9029 12.6353C24.2502 11.4545 24.8753 10.4126 25.6741 9.75276C26.4034 9.12763 27.2021 8.88453 27.8967 9.0929C28.5913 9.30128 29.1469 9.9264 29.4248 10.8294C29.7373 11.8365 29.7026 13.0173 29.3553 14.2328C29.008 15.4136 28.3829 16.4555 27.5841 17.1154C26.8548 17.7405 26.0561 17.9836 25.3615 17.7752C24.6669 17.5668 24.1112 16.9417 23.8334 16.0388C23.5209 15.0316 23.5556 13.8161 23.9029 12.6353Z" fill="#161616"/>
</svg>
