<svg width="32" height="32" viewBox="0 0 32 32" fill="none" xmlns="http://www.w3.org/2000/svg">
<g clip-path="url(#clip0_3279_22513)">
<path d="M28.131 15.2087C27.2559 15.1534 26.4109 15.405 25.7108 15.9095L17.4979 6.68323C18.0806 6.046 18.4239 5.23454 18.4749 4.36067C18.5329 3.35405 18.1963 2.38496 17.5259 1.63197C16.8559 0.878987 15.9322 0.432172 14.9256 0.373308C13.9206 0.315629 12.9499 0.651431 12.1969 1.32185C11.423 2.01084 10.9786 2.95978 10.9383 3.98022C9.91704 3.89884 8.92583 4.23346 8.1519 4.92244C7.39891 5.59286 6.9517 6.51652 6.89323 7.52313C6.83476 8.52975 7.17136 9.49844 7.84178 10.2514C8.5122 11.0044 9.43585 11.4516 10.4425 11.5101C11.3235 11.5658 12.1673 11.3118 12.8804 10.7942L21.0918 20.0185C20.4992 20.6585 20.1495 21.4763 20.0986 22.3585C20.0401 23.3651 20.3767 24.3342 21.0471 25.0872C21.7918 25.9235 22.828 26.3502 23.8686 26.3502C24.7619 26.3502 25.6583 26.0357 26.3765 25.3969C27.1504 24.7079 27.5949 23.759 27.6352 22.7385C28.6528 22.8183 29.6476 22.4849 30.4215 21.7963C31.1745 21.1259 31.6217 20.2022 31.6802 19.1956C31.7387 18.189 31.4021 17.2203 30.7317 16.4673C30.0612 15.7139 29.1376 15.2671 28.131 15.2087ZM30.8913 19.1502C30.845 19.9459 30.4915 20.6759 29.8957 21.2061C29.1874 21.8366 28.2447 22.0867 27.3092 21.8963C27.1887 21.8718 27.0599 21.9054 26.9671 21.9879C26.8743 22.0709 26.8257 22.193 26.8363 22.317C26.9185 23.2687 26.5594 24.1762 25.8511 24.8067C24.6224 25.901 22.732 25.7908 21.6377 24.5618C21.1076 23.9664 20.8409 23.2 20.8875 22.4043C20.9337 21.6083 21.2873 20.8786 21.8862 20.3453L21.9036 20.3295C22.0632 20.1837 22.0766 19.9364 21.9324 19.7748L13.2209 9.98832C13.151 9.9101 13.0447 9.8702 12.94 9.86467C12.9333 9.86427 12.927 9.86388 12.9203 9.86388C12.8215 9.86388 12.7188 9.90615 12.6457 9.97133C12.0504 10.5015 11.2824 10.7674 10.4883 10.7216C9.69264 10.6753 8.96257 10.3218 8.43239 9.726C7.90222 9.13064 7.63555 8.36462 7.68217 7.56857C7.72839 6.77291 8.08197 6.04284 8.67773 5.51267C9.38568 4.88175 10.3287 4.63128 11.2642 4.82249C11.3875 4.84778 11.5135 4.8138 11.6063 4.73084C11.6992 4.64788 11.7478 4.5258 11.7371 4.40175C11.6549 3.45005 12.014 2.54259 12.7224 1.91207C13.3181 1.3819 14.0841 1.11405 14.8798 1.16225C15.6759 1.20807 16.4059 1.56165 16.9357 2.15741C17.4659 2.75277 17.7325 3.51919 17.6859 4.31484C17.6397 5.11089 17.2861 5.84096 16.6908 6.37074C16.6125 6.44067 16.5651 6.53825 16.5592 6.64294C16.5529 6.74763 16.5888 6.84995 16.6584 6.92857L25.3699 16.715C25.4398 16.7933 25.5378 16.8407 25.6421 16.8466C25.7416 16.8541 25.8491 16.8174 25.9277 16.7474C26.5227 16.2173 27.2836 15.9494 28.0851 15.9972C28.8812 16.0434 29.6109 16.397 30.141 16.9928C30.6712 17.5881 30.9379 18.3541 30.8913 19.1502Z" fill="#161616"/>
<path d="M9.10836 13.5159C4.11399 13.5159 0.0507812 17.5791 0.0507812 22.5734C0.0507812 27.5678 4.11399 31.6306 9.10836 31.6306C14.1027 31.6306 18.1655 27.5674 18.1655 22.5734C18.1655 17.5795 14.1023 13.5159 9.10836 13.5159ZM9.10836 14.306C9.31498 14.306 9.51725 14.3222 9.72031 14.3368C9.20989 16.1339 8.09779 17.6936 6.5456 18.7508C4.97918 19.8171 3.10026 20.2813 1.22569 20.0838C2.28446 16.7384 5.4169 14.306 9.10836 14.306ZM9.10836 30.8405C8.88713 30.8405 8.66984 30.8243 8.45295 30.8073C8.96495 29.0126 10.0763 27.4552 11.6261 26.3996C13.2036 25.3254 15.0975 24.8624 16.9879 25.0706C15.9259 28.4121 12.7963 30.8405 9.10836 30.8405ZM17.1917 24.2975C15.0766 24.0379 12.9484 24.544 11.1816 25.747C9.44495 26.9298 8.20802 28.6847 7.66125 30.7058C3.79123 30.0184 0.840905 26.6378 0.840905 22.5734C0.840905 21.9856 0.904905 21.4128 1.02184 20.8597C1.36792 20.9008 1.71399 20.926 2.05927 20.926C3.8094 20.926 5.52436 20.4022 6.98965 19.4035C8.7295 18.2187 9.96802 16.4595 10.5132 14.4344C14.403 15.1048 17.375 18.4944 17.375 22.5731C17.3754 23.1649 17.3102 23.7409 17.1917 24.2975Z" fill="#161616"/>
</g>
<defs>
<clipPath id="clip0_3279_22513">
<rect width="32" height="32" fill="white"/>
</clipPath>
</defs>
</svg>
