<svg width="164" height="120" viewBox="0 0 164 120" fill="none" xmlns="http://www.w3.org/2000/svg">
<g clip-path="url(#clip0_5630_33681)">
<path d="M107.741 1.61194C108.547 1.19403 109.98 0.686567 110.875 0.447761C111.771 0.208955 113.114 0 113.86 0C114.606 0 115.621 0.179104 116.159 0.358209C116.666 0.567164 117.502 1.07463 118.009 1.55224C118.517 2 119.203 2.89552 119.532 3.55224C119.86 4.20895 120.278 5.46269 120.457 6.32836C120.666 7.37313 120.666 8.44776 120.457 9.67164C120.248 10.9552 119.383 12.9851 117.502 16.6866C116.039 19.5522 114.726 22.2985 114.577 22.806C114.427 23.3134 114.338 25.6119 114.308 32.1493L115.8 32.3284C116.636 32.4179 117.89 32.7164 118.636 32.9552C119.382 33.2239 123.77 37.1642 124.159 37.5821C124.756 38.209 123.711 38.2389 123.263 38.3285C122.965 38.3882 119.472 34.7463 118.487 34.3582C117.233 33.8507 116.069 33.6119 114.606 33.5821C113.442 33.5821 111.8 33.791 110.875 34.0597C109.98 34.3284 108.397 35.1045 107.383 35.7612C106.338 36.4478 105.502 37.1045 105.502 37.2836C105.502 37.4627 105.771 37.5821 106.099 37.5821C106.427 37.5821 107.203 37.791 107.83 38.0299C108.427 38.2687 109.114 38.806 109.323 39.2239C109.502 39.6418 109.681 40.2687 109.681 40.6567C109.681 41.0149 109.442 41.7015 109.144 42.209C108.815 42.7164 107.83 43.5224 106.815 44.0299C105.86 44.5672 104.188 45.1343 103.114 45.3134C102.039 45.4925 99.3825 45.6418 97.2333 45.6418C96.5128 45.6418 95.8421 45.6294 95.1942 45.6028C92.3625 48.7838 85.9544 55.7863 84.5168 57.2239C83.5782 58.1742 82.8379 58.8894 82.2633 59.4001C81.4527 60.3975 80.3948 61.5369 79.5317 62.3583C78.457 63.3434 75.3825 66 74.1586 67.0149C72.9347 68 70.9049 69.4925 69.681 70.3284C68.4571 71.1642 66.1586 72.5075 64.6064 73.3433C63.0541 74.1791 60.3676 75.4627 58.6362 76.1791C56.9049 76.8955 52.2183 78.5672 48.1885 79.9104C44.1586 81.2239 39.472 82.7164 37.7407 83.2239C36.0094 83.7313 32.3974 84.6567 29.681 85.3134C26.9646 85.9701 23.1437 86.7761 21.1735 87.1045C19.2034 87.4328 16.2482 87.8507 14.6064 88.0298C12.9646 88.209 10.2183 88.3881 5.35263 88.4776V77.5821C5.32278 71.5821 5.23323 64.4179 5.08397 61.6119C4.93472 58.0895 4.75561 56.3582 4.45711 55.9403C4.0989 55.403 4.00935 55.403 3.59143 55.791C3.35263 56.0299 2.99442 57.3731 2.78546 58.7761C2.60636 60.1791 2.42726 64.0597 2.42726 67.4328C2.3974 70.806 2.57651 77.8507 2.75561 83.1045C3.05412 90.2686 3.05412 94.209 2.81532 98.9254C2.63621 102.388 2.278 107.075 2.00935 109.373C1.71084 111.672 1.47203 114.179 1.47203 114.955C1.47203 115.891 1.64119 116.537 1.97949 116.896C2.45711 117.373 2.57651 117.403 3.29293 116.985C3.71084 116.746 4.60636 115.642 5.29293 114.537C5.9795 113.433 6.75561 112.478 6.99442 112.388C7.23323 112.328 7.62129 112.418 7.83024 112.597C8.0392 112.806 8.18845 113.164 8.18845 113.403C8.18845 113.642 8.39741 114.597 8.63621 115.493C8.90487 116.388 9.35263 117.433 9.68099 117.821C10.0093 118.179 10.5467 118.478 10.875 118.478C11.2034 118.478 11.681 118.179 11.9198 117.821C12.1586 117.433 12.6362 115.582 12.9646 113.701C13.2929 111.821 13.5616 110.239 13.5616 110.209C13.5616 110.149 13.7705 110.119 14.0093 110.119C14.2482 110.119 15.4422 110.448 16.6064 110.836C17.8004 111.254 19.8601 111.851 21.1735 112.209C22.487 112.537 25.1735 113.104 27.1437 113.433C29.8302 113.91 32.5168 114.09 37.8899 114.209C43.0541 114.328 46.3676 114.239 49.8302 113.91C52.4571 113.642 56.875 113.075 59.681 112.657C62.487 112.239 70.7855 110.657 78.1885 109.164C87.3825 107.313 92.5765 106.418 94.6064 106.299C97.084 106.179 97.9497 106.269 99.681 106.776C101.203 107.224 102.069 107.701 102.815 108.478C103.382 109.075 104.188 110.239 104.606 111.104C105.084 112.09 105.562 112.687 105.95 112.746C106.278 112.806 106.785 112.597 107.114 112.299C107.412 112 108.009 111.104 108.427 110.269C108.845 109.463 109.532 107.761 109.98 106.537C110.457 105.313 110.935 104.328 111.054 104.328C111.203 104.358 111.83 105.851 112.427 107.612C113.054 109.403 113.741 111.075 113.98 111.313C114.248 111.582 114.606 111.672 114.905 111.552C115.144 111.403 115.562 110.687 115.83 109.91C116.069 109.104 116.368 107.254 116.457 105.791C116.547 104.328 116.338 98.2686 115.98 92.3582C115.621 86.4478 114.368 70.3583 114.457 68.03C114.368 67.7912 114.457 66.5075 114.457 65.3433C114.457 63.9502 114.586 63.204 114.845 63.1045C115.024 63.0149 116.427 63.403 117.89 63.9701C119.353 64.5373 121.92 65.3433 123.562 65.791C125.203 66.2089 128.218 66.8358 130.278 67.1642C132.338 67.4925 135.293 67.791 136.845 67.791C138.427 67.791 139.83 67.7015 139.98 67.5821C140.159 67.4925 139.83 67.0746 139.323 66.6567C138.726 66.2388 138.218 65.4925 138.009 64.8358C137.741 63.9403 137.771 63.4627 138.129 62.5075C138.397 61.8507 139.144 60.806 139.8 60.209C140.517 59.5224 141.591 58.9254 142.397 58.7164C143.174 58.5075 143.83 58.2687 143.86 58.1791C143.92 58.0895 143.412 57.194 142.726 56.209C142.039 55.194 141.054 53.9104 140.577 53.3731C140.069 52.806 138.845 51.6418 137.89 50.7463C136.905 49.8507 135.442 48.7164 134.606 48.1791C133.8 47.6418 132.756 47.0149 132.308 46.7463C131.532 46.2687 129.83 44.6867 130.278 44.2986C130.726 43.9404 130.875 44.0001 133.382 45.8507C133.89 46.1194 135.293 47.0149 136.517 47.8507C137.741 48.6866 139.532 50.2388 140.547 51.3134C141.562 52.3881 142.845 54 143.442 54.8955C144.039 55.791 144.785 57.0448 145.084 57.6716C145.412 58.2687 145.8 58.7761 145.95 58.7761C146.099 58.7761 146.577 59.1045 146.994 59.5522C147.532 60.1194 147.771 60.7164 147.86 61.8507C147.92 62.8657 147.8 63.7313 147.502 64.2985C147.263 64.7761 146.726 65.4925 146.338 65.8507C145.98 66.1791 145.174 66.7761 144.606 67.1045C144.039 67.4627 143.084 67.9403 142.517 68.209C141.95 68.4776 140.606 68.8358 139.532 69.0149C138.129 69.2537 136.636 69.2239 134.009 68.9851C132.039 68.7761 128.815 68.2985 126.845 67.8806C124.875 67.4925 121.86 66.6866 120.129 66.1493L120.049 66.123C118.347 65.5656 116.751 65.0429 116.487 64.9254C116.009 64.7761 115.95 64.9552 115.95 66.5373C115.95 66.7238 115.949 66.8912 115.946 67.0414C116.352 71.3844 116.797 81.1142 116.815 82.0597C116.845 83.1343 117.144 88.7761 117.472 94.597C117.92 102.925 117.98 105.701 117.741 107.582C117.562 108.896 117.114 110.567 116.756 111.284C116.397 112.03 115.95 112.567 115.8 112.537C115.621 112.478 115.442 112.627 115.353 112.806C115.263 112.985 114.785 113.134 114.308 113.134C113.83 113.134 113.174 112.896 112.875 112.597C112.577 112.299 112.039 111.284 111.681 110.328C111.323 109.373 110.965 108.627 110.875 108.627C110.785 108.627 110.368 109.493 109.89 110.507C109.442 111.522 108.666 112.866 108.188 113.493C107.502 114.328 107.084 114.597 106.397 114.597C105.92 114.597 105.293 114.507 105.024 114.388C104.726 114.239 104.069 113.284 103.532 112.209C102.994 111.134 102.278 109.97 101.95 109.612C101.591 109.224 100.965 108.746 100.487 108.507C100.039 108.269 98.8153 107.91 97.7407 107.731C96.2482 107.463 95.1735 107.463 93.1138 107.731C91.6213 107.91 89.5616 108.269 88.487 108.507C87.4618 108.707 82.3341 109.748 76.8881 110.855L76.0989 111.015C70.3377 112.149 64.0392 113.343 62.0691 113.672C60.0989 114 56.8153 114.478 54.7556 114.716C52.6959 114.985 49.2631 115.313 47.1437 115.493C44.9944 115.642 41.6511 115.791 39.681 115.791C37.7108 115.791 34.5467 115.642 32.6661 115.493C30.7855 115.313 28.0093 114.985 26.5467 114.716C25.0541 114.478 22.5765 113.97 21.0243 113.552C19.472 113.164 17.4123 112.567 14.7556 111.612L14.6362 112.299C14.5467 112.657 14.3974 113.701 14.3079 114.597C14.1885 115.493 13.8899 116.776 13.6213 117.403C13.3228 118.06 12.7556 118.896 12.278 119.284C11.8302 119.642 11.1437 119.97 10.7258 119.97C10.3079 119.97 9.56159 119.612 9.05412 119.164C8.48696 118.657 7.88994 117.612 6.87502 114.746L6.12875 115.791C5.71084 116.358 4.93472 117.284 4.42726 117.821C3.88994 118.358 3.17352 118.776 2.78546 118.776C2.3974 118.776 1.68099 118.418 1.23323 117.97C0.666061 117.403 0.337703 116.716 0.248151 115.791C0.158599 115.045 0.278002 112.627 0.546658 110.418C0.785464 108.209 1.14367 103.493 1.32278 99.9701C1.56158 95.3731 1.56158 90.6866 1.35263 83.403C1.17352 77.8209 1.02427 70.6269 1.02427 67.4328C1.02427 64.2388 1.17352 60.3881 1.35263 58.9254C1.53173 57.194 1.86009 55.9104 2.2183 55.3433C2.54666 54.8657 3.11382 54.2687 3.47203 54.0896C3.86009 53.8806 4.3377 53.7313 4.57651 53.791C4.81532 53.8209 5.26308 54.2388 5.62129 54.6866C6.18845 55.4627 6.278 56.1194 6.48696 61.7015C6.63621 65.1045 6.69591 72.209 6.54666 87.1343H7.88994C8.63621 87.1343 11.0541 86.9254 13.2631 86.7164C15.472 86.4776 18.6362 86.0597 20.278 85.791C21.9198 85.5522 25.4123 84.8358 28.0392 84.2687C30.6661 83.6716 35.2929 82.4776 38.3377 81.5522C41.3825 80.6567 45.9496 79.2537 48.487 78.4179C51.0243 77.5821 54.9347 76.1791 57.1437 75.2836C59.3526 74.3881 62.4571 72.9851 64.0094 72.1493C65.5616 71.3134 67.6511 70.0896 68.6362 69.4328C69.6213 68.7761 71.2929 67.5522 72.3676 66.7164C73.4422 65.8806 74.3676 65.1343 74.4571 65.0448C74.5467 64.9552 76.2779 63.224 77.4421 62.2091C78.36 61.4039 79.8512 59.9733 81.1238 58.8499C81.2803 58.6835 81.4481 58.508 81.6213 58.3284C82.4273 57.5224 83.8601 55.9403 84.7855 54.8358C85.9283 53.4694 91.5785 47.4922 93.8549 45.5254C92.345 45.4119 90.8584 45.2099 89.0243 44.8955C86.6661 44.4776 82.9944 43.6716 80.875 43.1343C78.7556 42.5672 75.7705 41.6716 74.3079 41.1343C72.8452 40.5672 70.5765 39.5224 69.2631 38.7761C67.9795 38.0298 66.0691 36.597 65.0243 35.5821C63.9795 34.5373 62.8452 33.194 62.5467 32.597C62.2183 31.9701 61.681 30.8657 61.3228 30.1194C60.875 29.2537 60.6064 28 60.5168 26.5373C60.3974 25.0149 60.5168 23.6716 60.8452 22.3582C61.1138 21.2836 62.0094 19.0746 62.8153 17.4328C63.6213 15.7612 64.9347 13.7313 65.7407 12.806C66.5467 11.9104 67.8601 10.806 68.6661 10.3582C69.5915 9.85075 70.9944 9.43283 72.5168 9.19403C73.8601 9.01492 75.8303 8.95522 76.9944 9.07463C78.1586 9.16418 79.681 9.40298 80.4273 9.58209C81.1735 9.76119 82.5765 10.2687 83.5616 10.7164C84.6064 11.2239 85.89 12.1194 86.6362 12.9254C87.3228 13.6716 88.2482 15.0149 88.6661 15.8806C89.1138 16.7164 89.9795 19.4627 90.6064 21.9104C91.2631 24.4776 92.2482 27.3433 92.875 28.6269C93.6213 30.1493 94.6064 31.4925 95.9497 32.8358C97.2034 34.1194 98.5467 35.1343 99.8303 35.7313C100.905 36.2388 102.099 36.7463 102.517 36.8358C103.084 36.9851 103.651 36.7164 104.935 35.7313C105.86 35.0149 107.084 34.209 108.636 33.3433L107.89 32.8657C107.472 32.597 106.636 31.8507 106.009 31.1642C105.382 30.5075 104.368 28.8955 103.741 27.5821C103.084 26.2687 102.308 24.1791 101.98 22.9552C101.651 21.7313 101.233 19.7313 101.054 18.5672C100.875 17.3731 100.726 15.403 100.726 14.2388C100.726 13.0448 100.935 11.194 101.203 10.1194C101.442 9.04478 102.099 7.37313 102.606 6.41791C103.144 5.43284 104.159 4.1194 104.905 3.49254C105.651 2.83582 106.905 2 107.741 1.61194Z" fill="#161616"/>
<path d="M114.457 68.03C114.368 67.7912 114.457 66.5075 114.457 65.3433C114.457 63.9502 114.586 63.204 114.845 63.1045C115.024 63.0149 116.427 63.403 117.89 63.9701C119.353 64.5373 121.92 65.3433 123.562 65.791C125.203 66.2089 128.218 66.8358 130.278 67.1642C132.338 67.4925 135.293 67.791 136.845 67.791C138.427 67.791 139.83 67.7015 139.98 67.5821C140.159 67.4925 139.83 67.0746 139.323 66.6567C138.726 66.2388 138.218 65.4925 138.009 64.8358C137.741 63.9403 137.771 63.4627 138.129 62.5075C138.397 61.8507 139.144 60.806 139.8 60.209C140.517 59.5224 141.591 58.9254 142.397 58.7164C143.174 58.5075 143.83 58.2687 143.86 58.1791C143.92 58.0895 143.412 57.194 142.726 56.209C142.039 55.194 141.054 53.9104 140.577 53.3731C140.069 52.806 138.845 51.6418 137.89 50.7463C136.905 49.8507 135.442 48.7164 134.606 48.1791C133.8 47.6418 132.756 47.0149 132.308 46.7463C131.532 46.2687 129.83 44.6867 130.278 44.2986C130.726 43.9404 130.875 44.0001 133.382 45.8507C133.89 46.1194 135.293 47.0149 136.517 47.8507C137.741 48.6866 139.532 50.2388 140.547 51.3134C141.562 52.3881 142.845 54 143.442 54.8955C144.039 55.791 144.785 57.0448 145.084 57.6716C145.412 58.2687 145.8 58.7761 145.95 58.7761C146.099 58.7761 146.577 59.1045 146.994 59.5522C147.532 60.1194 147.771 60.7164 147.86 61.8507C147.92 62.8657 147.8 63.7313 147.502 64.2985C147.263 64.7761 146.726 65.4925 146.338 65.8507C145.98 66.1791 145.174 66.7761 144.606 67.1045C144.039 67.4627 143.084 67.9403 142.517 68.209C141.95 68.4776 140.606 68.8358 139.532 69.0149C138.129 69.2537 136.636 69.2239 134.009 68.9851C132.039 68.7761 128.815 68.2985 126.845 67.8806C124.875 67.4925 121.86 66.6866 120.129 66.1493C118.397 65.5821 116.756 65.0448 116.487 64.9254C116.009 64.7761 115.95 64.9552 115.95 66.5373C115.95 68.1194 115.89 68.3284 115.353 68.3284M114.457 68.03C114.547 68.2688 115.024 68.3284 115.353 68.3284M114.457 68.03L115.353 68.3284M114.457 68.03C114.368 70.3583 115.621 86.4478 115.98 92.3582C116.338 98.2686 116.547 104.328 116.457 105.791C116.368 107.254 116.069 109.104 115.83 109.91C115.562 110.687 115.144 111.403 114.905 111.552C114.606 111.672 114.248 111.582 113.98 111.313C113.741 111.075 113.054 109.403 112.427 107.612C111.83 105.851 111.203 104.358 111.054 104.328C110.935 104.328 110.457 105.313 109.98 106.537C109.532 107.761 108.845 109.463 108.427 110.269C108.009 111.104 107.412 112 107.114 112.299C106.785 112.597 106.278 112.806 105.95 112.746C105.562 112.687 105.084 112.09 104.606 111.104C104.188 110.239 103.382 109.075 102.815 108.478C102.069 107.701 101.203 107.224 99.681 106.776C97.9497 106.269 97.084 106.179 94.6064 106.299C92.5765 106.418 87.3825 107.313 78.1885 109.164C70.7855 110.657 62.487 112.239 59.681 112.657C56.875 113.075 52.4571 113.642 49.8302 113.91C46.3676 114.239 43.0541 114.328 37.89 114.209C32.5168 114.09 29.8302 113.91 27.1437 113.433C25.1735 113.104 22.487 112.537 21.1735 112.209C19.8601 111.851 17.8004 111.254 16.6064 110.836C15.4422 110.448 14.2482 110.119 14.0093 110.119C13.7705 110.119 13.5616 110.149 13.5616 110.209C13.5616 110.239 13.2929 111.821 12.9646 113.701C12.6362 115.582 12.1586 117.433 11.9198 117.821C11.681 118.179 11.2034 118.478 10.875 118.478C10.5467 118.478 10.0093 118.179 9.68099 117.821C9.35263 117.433 8.90487 116.388 8.63621 115.493C8.39741 114.597 8.18845 113.642 8.18845 113.403C8.18845 113.164 8.0392 112.806 7.83024 112.597C7.62129 112.418 7.23323 112.328 6.99442 112.388C6.75561 112.478 5.9795 113.433 5.29293 114.537C4.60636 115.642 3.71084 116.746 3.29293 116.985C2.57651 117.403 2.45711 117.373 1.97949 116.896C1.64119 116.537 1.47203 115.891 1.47203 114.955C1.47203 114.179 1.71084 111.672 2.00935 109.373C2.278 107.075 2.63621 102.388 2.81532 98.9254C3.05412 94.209 3.05412 90.2686 2.75561 83.1045C2.57651 77.8507 2.3974 70.806 2.42726 67.4328C2.42726 64.0597 2.60636 60.1791 2.78546 58.7761C2.99442 57.3731 3.35263 56.0298 3.59143 55.791C4.00935 55.403 4.0989 55.403 4.45711 55.9403C4.75561 56.3582 4.93472 58.0895 5.08397 61.6119C5.23323 64.4179 5.32278 71.5821 5.35263 77.5821V88.4776C10.2183 88.3881 12.9646 88.209 14.6064 88.0298C16.2482 87.8507 19.2034 87.4328 21.1735 87.1045C23.1437 86.7761 26.9646 85.9701 29.681 85.3134C32.3974 84.6567 36.0094 83.7313 37.7407 83.2239C39.472 82.7164 44.1586 81.2239 48.1885 79.9104C52.2183 78.5672 56.9049 76.8955 58.6362 76.1791C60.3676 75.4627 63.0541 74.1791 64.6064 73.3433C66.1586 72.5075 68.4571 71.1642 69.681 70.3284C70.9049 69.4925 72.9347 68 74.1586 67.0149C75.3825 66 78.457 63.3434 79.5317 62.3583C81.3824 60.5971 84.1285 57.3735 83.4121 57.2242C82.8151 57.075 79.1436 60.7165 77.4421 62.2091C76.2779 63.224 74.5467 64.9552 74.4571 65.0448C74.3676 65.1343 73.4422 65.8806 72.3676 66.7164C71.2929 67.5522 69.6213 68.7761 68.6362 69.4328C67.6511 70.0896 65.5616 71.3134 64.0094 72.1493C62.4571 72.9851 59.3526 74.3881 57.1437 75.2836C54.9347 76.1791 51.0243 77.5821 48.487 78.4179C45.9496 79.2537 41.3825 80.6567 38.3377 81.5522C35.2929 82.4776 30.6661 83.6716 28.0392 84.2687C25.4123 84.8358 21.9198 85.5522 20.278 85.791C18.6362 86.0597 15.472 86.4776 13.2631 86.7164C11.0541 86.9254 8.63621 87.1343 7.88994 87.1343H6.54666C6.69591 72.209 6.63621 65.1045 6.48696 61.7015C6.278 56.1194 6.18845 55.4627 5.62129 54.6866C5.26308 54.2388 4.81532 53.8209 4.57651 53.791C4.3377 53.7313 3.86009 53.8806 3.47203 54.0896C3.11382 54.2687 2.54666 54.8657 2.2183 55.3433C1.86009 55.9104 1.53173 57.194 1.35263 58.9254C1.17352 60.3881 1.02427 64.2388 1.02427 67.4328C1.02427 70.6269 1.17352 77.8209 1.35263 83.403C1.56158 90.6866 1.56158 95.3731 1.32278 99.9701C1.14367 103.493 0.785464 108.209 0.546658 110.418C0.278002 112.627 0.158599 115.045 0.248151 115.791C0.337703 116.716 0.666061 117.403 1.23323 117.97C1.68099 118.418 2.3974 118.776 2.78546 118.776C3.17352 118.776 3.88994 118.358 4.42726 117.821C4.93472 117.284 5.71084 116.358 6.12875 115.791L6.87502 114.746C7.88994 117.612 8.48696 118.657 9.05412 119.164C9.56159 119.612 10.3079 119.97 10.7258 119.97C11.1437 119.97 11.8302 119.642 12.278 119.284C12.7556 118.896 13.3228 118.06 13.6213 117.403C13.8899 116.776 14.1885 115.493 14.3079 114.597C14.3974 113.701 14.5467 112.657 14.6362 112.299L14.7556 111.612C17.4123 112.567 19.472 113.164 21.0243 113.552C22.5765 113.97 25.0541 114.478 26.5467 114.716C28.0093 114.985 30.7855 115.313 32.6661 115.493C34.5467 115.642 37.7108 115.791 39.681 115.791C41.6511 115.791 44.9944 115.642 47.1437 115.493C49.2631 115.313 52.6959 114.985 54.7556 114.716C56.8153 114.478 60.0989 114 62.0691 113.672C64.0392 113.343 70.3377 112.149 76.0989 111.015C81.8303 109.851 87.4123 108.716 88.487 108.507C89.5616 108.269 91.6213 107.91 93.1138 107.731C95.1735 107.463 96.2482 107.463 97.7407 107.731C98.8153 107.91 100.039 108.269 100.487 108.507C100.965 108.746 101.591 109.224 101.95 109.612C102.278 109.97 102.994 111.134 103.532 112.209C104.069 113.284 104.726 114.239 105.024 114.388C105.293 114.507 105.92 114.597 106.397 114.597C107.084 114.597 107.502 114.328 108.188 113.493C108.666 112.866 109.442 111.522 109.89 110.507C110.368 109.493 110.785 108.627 110.875 108.627C110.965 108.627 111.323 109.373 111.681 110.328C112.039 111.284 112.577 112.299 112.875 112.597C113.174 112.896 113.83 113.134 114.308 113.134C114.785 113.134 115.263 112.985 115.353 112.806C115.442 112.627 115.621 112.478 115.8 112.537C115.95 112.567 116.397 112.03 116.756 111.284C117.114 110.567 117.562 108.896 117.741 107.582C117.98 105.701 117.92 102.925 117.472 94.597C117.144 88.7761 116.845 83.1343 116.815 82.0597C116.785 80.5373 115.651 56.2389 115.353 68.3284M110.875 0.447761C109.98 0.686567 108.547 1.19403 107.741 1.61194C106.905 2 105.651 2.83582 104.905 3.49254C104.159 4.1194 103.144 5.43284 102.606 6.41791C102.099 7.37313 101.442 9.04478 101.203 10.1194C100.935 11.194 100.726 13.0448 100.726 14.2388C100.726 15.403 100.875 17.3731 101.054 18.5672C101.233 19.7313 101.651 21.7313 101.98 22.9552C102.308 24.1791 103.084 26.2687 103.741 27.5821C104.368 28.8955 105.383 30.5075 106.009 31.1642C106.636 31.8507 107.472 32.597 107.89 32.8657L108.636 33.3433C107.084 34.209 105.86 35.0149 104.935 35.7313C103.651 36.7164 103.084 36.9851 102.517 36.8358C102.099 36.7463 100.905 36.2388 99.8303 35.7313C98.5467 35.1343 97.2034 34.1194 95.9497 32.8358C94.6064 31.4925 93.6213 30.1493 92.875 28.6269C92.2482 27.3433 91.2631 24.4776 90.6064 21.9104C89.9795 19.4627 89.1138 16.7164 88.6661 15.8806C88.2482 15.0149 87.3228 13.6716 86.6362 12.9254C85.89 12.1194 84.6064 11.2239 83.5616 10.7164C82.5765 10.2687 81.1735 9.76119 80.4273 9.58209C79.681 9.40298 78.1586 9.16418 76.9944 9.07463C75.8303 8.95522 73.8601 9.01492 72.5168 9.19403C70.9944 9.43283 69.5915 9.85075 68.6661 10.3582C67.8601 10.806 66.5467 11.9104 65.7407 12.806C64.9347 13.7313 63.6213 15.7612 62.8153 17.4328C62.0094 19.0746 61.1138 21.2836 60.8452 22.3582C60.5168 23.6716 60.3974 25.0149 60.5168 26.5373C60.6064 28 60.875 29.2537 61.3228 30.1194C61.681 30.8657 62.2183 31.9701 62.5467 32.597C62.8452 33.194 63.9795 34.5373 65.0243 35.5821C66.0691 36.597 67.9795 38.0298 69.2631 38.7761C70.5765 39.5224 72.8452 40.5672 74.3079 41.1343C75.7705 41.6716 78.7556 42.5672 80.875 43.1343C82.9944 43.6716 86.6661 44.4776 89.0243 44.8955C92.1586 45.4328 94.278 45.6418 97.2332 45.6418C99.3825 45.6418 102.039 45.4925 103.114 45.3134C104.188 45.1343 105.86 44.5672 106.815 44.0299C107.83 43.5224 108.815 42.7164 109.144 42.209C109.442 41.7015 109.681 41.0149 109.681 40.6567C109.681 40.2687 109.502 39.6418 109.323 39.2239C109.114 38.806 108.427 38.2687 107.83 38.0299C107.203 37.791 106.427 37.5821 106.099 37.5821C105.771 37.5821 105.502 37.4627 105.502 37.2836C105.502 37.1045 106.338 36.4478 107.383 35.7612C108.397 35.1045 109.98 34.3284 110.875 34.0597C111.8 33.791 113.442 33.5821 114.606 33.5821C116.069 33.6119 117.233 33.8507 118.487 34.3582C119.472 34.7463 122.965 38.3882 123.263 38.3285C123.711 38.2389 124.756 38.209 124.159 37.5821C123.77 37.1642 119.382 33.2239 118.636 32.9552C117.89 32.7164 116.636 32.4179 115.8 32.3284L114.308 32.1493C114.338 25.6119 114.427 23.3134 114.577 22.806C114.726 22.2985 116.039 19.5522 117.502 16.6866C119.383 12.9851 120.248 10.9552 120.457 9.67164C120.666 8.44776 120.666 7.37313 120.457 6.32836C120.278 5.46269 119.86 4.20895 119.532 3.55224C119.203 2.89552 118.517 2 118.009 1.55224C117.502 1.07463 116.666 0.567164 116.159 0.358209C115.621 0.179104 114.606 0 113.86 0C113.114 0 111.771 0.208955 110.875 0.447761ZM84.7855 54.8358C83.8601 55.9403 82.4273 57.5224 81.6213 58.3284C80.8153 59.1642 80.1288 59.9104 80.1288 60.0597C80.1288 60.1791 80.3676 60.3284 80.6661 60.4179C81.0243 60.5373 82.1288 59.6418 84.5168 57.2239C86.3676 55.3731 96.4571 44.2985 96.5466 44.0299C100.875 40.6567 95.4421 44.8955 94.7556 44.8955C94.0391 44.8955 86.1586 53.194 84.7855 54.8358Z" stroke="#161616" stroke-width="0.298507"/>
<path d="M112.689 42.3226C113.318 40.8207 114.504 40.2282 116.122 39.8783C117.897 39.4947 119.423 39.6212 120.517 41.0423C121.368 42.1472 121.412 43.1084 121.115 44.4613C120.723 46.2466 119.931 47.583 118.151 48.1276C116.142 48.7421 114.276 47.8875 113.158 46.1417C112.343 44.869 112.108 43.7127 112.689 42.3226Z" stroke="#161616" stroke-width="1.19403" stroke-linecap="round" stroke-linejoin="round"/>
<path d="M123.353 39.4005C123.791 38.4795 123.561 39.102 124.08 38.1979C124.08 38.1979 125.732 37.2694 126.888 37.2814C127.91 37.2919 128.531 37.4956 129.385 38.0452C131.399 39.3421 132.594 42.6441 131.101 43.8502C129.608 45.0564 129.068 45.9904 127.143 45.7887C125.53 45.6197 124.529 45.1251 123.561 43.8502C122.572 42.5477 122.653 40.8718 123.353 39.4005Z" stroke="#161616" stroke-width="1.19403" stroke-linecap="round" stroke-linejoin="round"/>
<path d="M131.264 57.1687C130.965 56.8105 130.965 56.5717 131.234 56.2433C131.413 55.9747 131.861 55.7956 132.189 55.8553C132.637 55.915 132.816 56.1538 132.816 56.6911C132.816 57.1985 132.637 57.4672 132.219 57.5269C131.891 57.5866 131.443 57.4075 131.264 57.1687Z" fill="#161616"/>
<path d="M122.756 57.497C122.727 57.109 122.846 56.6911 122.965 56.5717C123.115 56.4523 123.503 56.3926 123.861 56.4523C124.279 56.512 124.458 56.7508 124.458 57.2881C124.458 57.8851 124.279 58.0642 123.652 58.0941C122.965 58.1836 122.816 58.0642 122.756 57.497Z" fill="#161616"/>
<path d="M70.4877 77.9747C70.6071 77.706 71.2937 77.2582 72.0399 76.9597C72.8161 76.6612 73.7116 76.4224 74.0996 76.4224C74.5773 76.3926 74.7564 76.5717 74.7564 76.9896C74.7564 77.4672 74.3683 77.706 72.8161 78.1836C71.7414 78.512 70.7564 78.7209 70.5773 78.6314C70.3982 78.5418 70.3683 78.2732 70.4877 77.9747Z" fill="#161616"/>
<path d="M48.0399 83.5567C48.219 83.4075 49.2937 83.0791 50.428 82.8403C51.5922 82.6314 52.6967 82.4224 52.9056 82.3926C53.0847 82.3926 53.3534 82.5717 53.5026 82.8105C53.622 83.0791 53.5922 83.4075 53.4131 83.5567C53.2638 83.706 52.0698 84.0045 50.8161 84.2135C48.9653 84.512 48.428 84.5418 48.1295 84.2433C47.8708 83.9846 47.8409 83.7558 48.0399 83.5567Z" fill="#161616"/>
<path d="M131.264 57.1687C130.965 56.8105 130.965 56.5717 131.234 56.2433C131.413 55.9747 131.861 55.7956 132.189 55.8553C132.637 55.915 132.816 56.1538 132.816 56.6911C132.816 57.1985 132.637 57.4672 132.219 57.5269C131.891 57.5866 131.443 57.4075 131.264 57.1687Z" stroke="#161616" stroke-width="0.298507"/>
<path d="M122.756 57.497C122.727 57.109 122.846 56.6911 122.965 56.5717C123.115 56.4523 123.503 56.3926 123.861 56.4523C124.279 56.512 124.458 56.7508 124.458 57.2881C124.458 57.8851 124.279 58.0642 123.652 58.0941C122.965 58.1836 122.816 58.0642 122.756 57.497Z" stroke="#161616" stroke-width="0.298507"/>
<path d="M70.4877 77.9747C70.6071 77.706 71.2937 77.2582 72.0399 76.9597C72.8161 76.6612 73.7116 76.4224 74.0996 76.4224C74.5773 76.3926 74.7564 76.5717 74.7564 76.9896C74.7564 77.4672 74.3683 77.706 72.8161 78.1836C71.7414 78.512 70.7564 78.7209 70.5773 78.6314C70.3982 78.5418 70.3683 78.2732 70.4877 77.9747Z" stroke="#161616" stroke-width="0.298507"/>
<path d="M48.0399 83.5567C48.219 83.4075 49.2937 83.0791 50.428 82.8403C51.5922 82.6314 52.6967 82.4224 52.9056 82.3926C53.0847 82.3926 53.3534 82.5717 53.5026 82.8105C53.622 83.0791 53.5922 83.4075 53.4131 83.5567C53.2638 83.706 52.0698 84.0045 50.8161 84.2135C48.9653 84.512 48.428 84.5418 48.1295 84.2433C47.8708 83.9846 47.8409 83.7558 48.0399 83.5567Z" stroke="#161616" stroke-width="0.298507"/>
<path d="M59.7211 85.0867C59.8405 84.818 60.5271 84.3703 61.2733 84.0718C62.0495 83.7732 62.945 83.5344 63.333 83.5344C63.8107 83.5046 63.9898 83.6837 63.9898 84.1016C63.9898 84.5792 63.6017 84.818 62.0495 85.2956C60.9748 85.624 59.9898 85.8329 59.8107 85.7434C59.6315 85.6538 59.6017 85.3852 59.7211 85.0867Z" fill="#161616"/>
<path d="M37.2733 90.6688C37.4524 90.5195 38.5271 90.1912 39.6614 89.9523C40.8256 89.7434 41.9301 89.5344 42.139 89.5046C42.3181 89.5046 42.5868 89.6837 42.736 89.9225C42.8554 90.1912 42.8256 90.5195 42.6465 90.6688C42.4972 90.818 41.3032 91.1165 40.0495 91.3255C38.1987 91.624 37.6614 91.6538 37.3629 91.3553C37.1042 91.0966 37.0743 90.8678 37.2733 90.6688Z" fill="#161616"/>
<path d="M59.7211 85.0867C59.8405 84.818 60.5271 84.3703 61.2733 84.0718C62.0495 83.7732 62.945 83.5344 63.333 83.5344C63.8107 83.5046 63.9898 83.6837 63.9898 84.1016C63.9898 84.5792 63.6017 84.818 62.0495 85.2956C60.9748 85.624 59.9898 85.8329 59.8107 85.7434C59.6315 85.6538 59.6017 85.3852 59.7211 85.0867Z" stroke="#161616" stroke-width="0.298507"/>
<path d="M37.2733 90.6688C37.4524 90.5195 38.5271 90.1912 39.6614 89.9523C40.8256 89.7434 41.9301 89.5344 42.139 89.5046C42.3181 89.5046 42.5868 89.6837 42.736 89.9225C42.8554 90.1912 42.8256 90.5195 42.6465 90.6688C42.4972 90.818 41.3032 91.1165 40.0495 91.3255C38.1987 91.624 37.6614 91.6538 37.3629 91.3553C37.1042 91.0966 37.0743 90.8678 37.2733 90.6688Z" stroke="#161616" stroke-width="0.298507"/>
<path d="M125.353 41.8195C125.263 41.5508 125.412 41.0135 125.651 40.6553V40.6255C125.89 40.2673 126.397 39.9688 126.785 39.9688C127.144 39.9688 127.621 40.118 127.83 40.327C128.039 40.5359 128.188 40.9538 128.188 41.2225C128.188 41.521 127.86 41.9687 127.442 42.2076C127.024 42.4464 126.427 42.5956 126.099 42.5061C125.771 42.4165 125.442 42.118 125.353 41.8195Z" fill="#161616"/>
<path d="M115.89 42.5061C116.009 42.327 116.308 42.0882 116.547 41.9986C116.785 41.909 117.054 41.8195 117.144 41.8195C117.233 41.8195 117.442 41.909 117.651 42.0285C117.83 42.1479 118.069 42.6255 118.188 43.1329C118.338 43.7896 118.248 44.1777 117.83 44.5658C117.532 44.8643 117.084 45.1031 116.845 45.0732C116.606 45.0732 116.218 44.924 116.009 44.715C115.8 44.5061 115.651 43.9986 115.651 43.5807C115.651 43.1628 115.771 42.6852 115.89 42.5061Z" fill="#161616"/>
<path d="M125.353 41.8195C125.263 41.5508 125.412 41.0135 125.651 40.6553V40.6255C125.89 40.2673 126.397 39.9688 126.785 39.9688C127.144 39.9688 127.621 40.118 127.83 40.327C128.039 40.5359 128.188 40.9538 128.188 41.2225C128.188 41.521 127.86 41.9687 127.442 42.2076C127.024 42.4464 126.427 42.5956 126.099 42.5061C125.771 42.4165 125.442 42.118 125.353 41.8195Z" stroke="#161616" stroke-width="0.298507"/>
<path d="M115.89 42.5061C116.009 42.327 116.308 42.0882 116.547 41.9986C116.785 41.909 117.054 41.8195 117.144 41.8195C117.233 41.8195 117.442 41.909 117.651 42.0285C117.83 42.1479 118.069 42.6255 118.188 43.1329C118.338 43.7896 118.248 44.1777 117.83 44.5658C117.532 44.8643 117.084 45.1031 116.845 45.0732C116.606 45.0732 116.218 44.924 116.009 44.715C115.8 44.5061 115.651 43.9986 115.651 43.5807C115.651 43.1628 115.771 42.6852 115.89 42.5061Z" stroke="#161616" stroke-width="0.298507"/>
<path d="M116.5 74C116.5 74 104.944 70.71 98.5 67C92.0563 63.29 83.5 55 83.5 55" stroke="#F39324" stroke-width="3.5" stroke-linecap="round" stroke-linejoin="round"/>
<path d="M130.19 74.3379L130.167 74.3065C129.377 73.2217 129.636 71.6991 130.74 70.936L134.369 68.4276M130.19 74.3379L136.862 83.4982C137.628 84.5502 139.095 84.795 140.161 84.0488L161.548 69.0798C162.641 68.3149 162.896 66.8031 162.113 65.7228L158.85 61.2169L156.011 57.2979M130.19 74.3379L145.878 70.618C146.445 70.4837 146.942 70.1471 147.278 69.6714L156.011 57.2979M156.011 57.2979V57.2979C154.967 55.8567 152.991 55.4576 151.47 56.3804L145.563 59.9618" stroke="#161616" stroke-width="1.19403" stroke-linecap="round" stroke-linejoin="round"/>
</g>
<defs>
<clipPath id="clip0_5630_33681">
<rect width="163" height="120" fill="white" transform="translate(0.5)"/>
</clipPath>
</defs>
</svg>
