<svg width="283" height="54" viewBox="0 0 283 54" fill="none" xmlns="http://www.w3.org/2000/svg">
<path d="M41.0273 15.1852C41.0982 14.4584 40.3551 13.9416 39.682 14.2218C38.7525 14.6087 37.4656 15.1119 36.0613 15.5647C36.0613 15.5647 36.3822 17.844 37.2649 18.9189C38.1242 19.9653 40.2202 20.7278 40.2202 20.7278C40.6519 18.5545 40.8968 16.5234 41.0273 15.1852Z" fill="#161616"/>
<path d="M15.492 34.7087C19.2636 35.7942 20.8384 31.3737 20.7732 27.3966C20.7415 25.4659 20.5113 22.7596 20.2829 20.4857C20.0407 18.0753 19.8004 16.1508 19.8004 16.1508C19.8004 16.1508 11.151 19.976 10.3398 24.965C9.72934 28.7196 11.8428 33.6584 15.492 34.7087Z" fill="#161616"/>
<path d="M19.8005 16.1508C19.8005 16.1508 11.151 19.976 10.3398 24.965C9.72934 28.7196 11.8428 33.6584 15.492 34.7087C19.2636 35.7942 20.8384 31.3737 20.7732 27.3966C20.7415 25.4659 20.5113 22.7596 20.2829 20.4857C20.0407 18.0753 19.8005 16.1508 19.8005 16.1508ZM19.8005 16.1508L21.5404 15.6523C21.961 15.5317 22.4054 15.5285 22.8304 15.6323C24.3163 15.9951 28.0457 16.8237 30.6701 16.7031C32.3322 16.6268 34.2901 16.1358 36.0613 15.5647M49.1804 32.7869C50.1222 29.5854 50.209 27.2394 49.6618 23.5015C49.0298 19.1838 45.3289 13.1306 45.3289 13.1306C37.6853 2.31379 22.9091 -0.243411 12.1132 7.415C4.97956 12.4754 1.44386 20.7313 2.07113 28.8709C2.39316 33.0497 3.81244 37.1979 6.40542 40.8673C13.9362 51.5244 28.5576 54.1671 39.3125 46.9185C39.5633 46.7495 39.591 46.392 39.3729 46.1825L31.6817 38.7998C30.6752 37.7971 30.7422 36.1378 31.7793 35.1669C33.6479 33.4176 36.37 30.6434 37.7769 28.1405C38.9341 26.0818 39.7084 23.3048 40.2202 20.7278M49.1804 32.7869C48.9805 33.4665 48.7367 34.415 48.4582 35.1669C47.7826 36.991 46.3709 39.2834 45.5267 40.5779C45.0891 41.2489 44.4783 41.8031 43.7077 42.0223C43.1005 42.195 42.3711 42.3043 41.8385 42.0724C40.8211 41.6294 40.3009 40.9156 40.1535 39.7812C39.7933 37.0075 42.8017 34.7629 45.4405 33.7517C47.0139 33.1487 49.1804 32.7869 49.1804 32.7869ZM36.0613 15.5647C37.4656 15.1119 38.7525 14.6087 39.682 14.2218C40.3551 13.9416 41.0982 14.4584 41.0273 15.1852C40.8968 16.5234 40.6519 18.5545 40.2202 20.7278M36.0613 15.5647C36.0613 15.5647 36.3822 17.844 37.2649 18.9189C38.1242 19.9653 40.2202 20.7278 40.2202 20.7278" stroke="#161616" stroke-width="1.44569" stroke-linecap="round"/>
<path d="M26.0772 21.7904C26.0772 21.7904 26.2469 20.6674 26.718 20.3562C27.189 20.045 28.2885 20.3292 28.2885 20.3292" stroke="#161616" stroke-width="1.44569" stroke-linecap="round"/>
<path d="M62 37.2276V9.19195H63.9653V22.0667H81.2921V9.19195H83.2575V37.2276H81.2921V23.7913H63.9653V37.2276H62Z" fill="#161616"/>
<path d="M98.7528 37.749C96.6671 37.749 94.8756 37.2811 93.3782 36.3452C91.8809 35.3826 90.7311 34.0858 89.9289 32.4547C89.1535 30.8236 88.7658 28.992 88.7658 26.9599C88.7658 24.9545 89.1802 23.1496 90.0091 21.5453C90.8648 19.9142 92.0814 18.6307 93.659 17.6949C95.2366 16.759 97.1217 16.2911 99.3143 16.2911C101.373 16.2911 103.165 16.759 104.689 17.6949C106.213 18.604 107.389 19.8474 108.218 21.425C109.074 22.9758 109.502 24.7406 109.502 26.7192V37.2276H107.617V32.2943H107.496C107.122 33.1232 106.534 33.9655 105.732 34.8211C104.956 35.65 103.98 36.3452 102.804 36.9067C101.654 37.4682 100.304 37.749 98.7528 37.749ZM99.0736 36.1046C100.705 36.1046 102.162 35.7169 103.445 34.9414C104.729 34.1393 105.732 33.043 106.454 31.6526C107.202 30.2354 107.577 28.6444 107.577 26.8797C107.577 25.1684 107.229 23.6443 106.534 22.3073C105.865 20.9437 104.903 19.8741 103.646 19.0987C102.389 18.3233 100.919 17.9355 99.2341 17.9355C97.4693 17.9355 95.9452 18.3366 94.6617 19.1388C93.405 19.941 92.429 21.0372 91.7338 22.4277C91.0653 23.8181 90.7311 25.3957 90.7311 27.1604C90.7311 28.7915 91.0519 30.2889 91.6937 31.6526C92.3354 33.0162 93.2847 34.0992 94.5414 34.9013C95.7981 35.7035 97.3089 36.1046 99.0736 36.1046Z" fill="#161616"/>
<path d="M126.16 16.251C127.497 16.251 128.78 16.4916 130.01 16.9729C131.24 17.4275 132.336 18.1093 133.299 19.0185C134.262 19.9276 135.024 21.064 135.585 22.4277C136.147 23.7646 136.427 25.3155 136.427 27.0802C136.427 29.2995 135.959 31.2114 135.024 32.8157C134.088 34.3933 132.858 35.6099 131.334 36.4655C129.81 37.2944 128.152 37.7089 126.36 37.7089C125.157 37.7089 123.994 37.4816 122.871 37.0271C121.774 36.5725 120.798 35.9441 119.943 35.142C119.114 34.3398 118.459 33.4441 117.978 32.4547H117.857V46.0514H115.972V26.8396C115.972 24.5133 116.453 22.5747 117.416 21.0239C118.379 19.4463 119.635 18.2564 121.186 17.4542C122.737 16.6521 124.395 16.251 126.16 16.251ZM126.12 17.9355C124.702 17.9355 123.365 18.2831 122.109 18.9784C120.852 19.6468 119.836 20.6495 119.06 21.9865C118.285 23.3234 117.897 24.9678 117.897 26.9198C117.897 28.8985 118.285 30.5696 119.06 31.9333C119.863 33.2703 120.892 34.2863 122.149 34.9815C123.432 35.6767 124.783 36.0243 126.2 36.0243C127.644 36.0243 128.994 35.6634 130.251 34.9414C131.507 34.2195 132.524 33.19 133.299 31.8531C134.101 30.4894 134.502 28.8717 134.502 27C134.502 25.0481 134.101 23.4036 133.299 22.0667C132.497 20.703 131.454 19.6736 130.17 18.9784C128.914 18.2831 127.563 17.9355 126.12 17.9355Z" fill="#161616"/>
<path d="M152.011 16.251C153.348 16.251 154.631 16.4916 155.861 16.9729C157.091 17.4275 158.187 18.1093 159.15 19.0185C160.113 19.9276 160.875 21.064 161.436 22.4277C161.998 23.7646 162.279 25.3155 162.279 27.0802C162.279 29.2995 161.811 31.2114 160.875 32.8157C159.939 34.3933 158.709 35.6099 157.185 36.4655C155.661 37.2944 154.003 37.7089 152.211 37.7089C151.008 37.7089 149.845 37.4816 148.722 37.0271C147.626 36.5725 146.65 35.9441 145.794 35.142C144.965 34.3398 144.31 33.4441 143.829 32.4547H143.708V46.0514H141.823V26.8396C141.823 24.5133 142.305 22.5747 143.267 21.0239C144.23 19.4463 145.486 18.2564 147.037 17.4542C148.588 16.6521 150.246 16.251 152.011 16.251ZM151.971 17.9355C150.553 17.9355 149.217 18.2831 147.96 18.9784C146.703 19.6468 145.687 20.6495 144.912 21.9865C144.136 23.3234 143.748 24.9678 143.748 26.9198C143.748 28.8985 144.136 30.5696 144.912 31.9333C145.714 33.2703 146.743 34.2863 148 34.9815C149.283 35.6767 150.634 36.0243 152.051 36.0243C153.495 36.0243 154.845 35.6634 156.102 34.9414C157.359 34.2195 158.375 33.19 159.15 31.8531C159.952 30.4894 160.353 28.8717 160.353 27C160.353 25.0481 159.952 23.4036 159.15 22.0667C158.348 20.703 157.305 19.6736 156.022 18.9784C154.765 18.2831 153.415 17.9355 151.971 17.9355Z" fill="#161616"/>
<path d="M175.897 45.3696V37.6688C174.453 37.5618 173.102 37.1474 171.846 36.4254C170.616 35.6767 169.613 34.6607 168.837 33.3772C168.089 32.067 167.714 30.5162 167.714 28.7247V16.7724H169.64V28.6043C169.64 30.2087 169.987 31.5723 170.682 32.6954C171.378 33.8184 172.273 34.6607 173.37 35.2222C174.466 35.7837 175.616 36.0645 176.819 36.0645C178.076 36.0645 179.252 35.7837 180.349 35.2222C181.472 34.6339 182.381 33.7917 183.076 32.6954C183.798 31.5723 184.159 30.2087 184.159 28.6043V16.7724H186.004V28.7247C186.004 30.5429 185.63 32.1071 184.881 33.4173C184.132 34.7008 183.129 35.7035 181.873 36.4254C180.616 37.1206 179.266 37.5351 177.822 37.6688V45.3696H175.897Z" fill="#161616"/>
<path d="M214.491 37.2276C213.127 37.2276 211.95 36.9602 210.961 36.4254C209.998 35.8639 209.263 35.0885 208.755 34.0992C208.247 33.0831 207.993 31.9199 207.993 30.6097V10.9166H198.728V9.15184H219.223V10.9166H209.958V30.8905C209.958 32.2542 210.359 33.3638 211.162 34.2195C211.964 35.0484 213.087 35.4628 214.531 35.4628H216.215V37.2276H214.491Z" fill="#161616"/>
<path d="M230.672 37.749C228.586 37.749 226.795 37.2811 225.297 36.3452C223.8 35.3826 222.65 34.0858 221.848 32.4547C221.072 30.8236 220.685 28.992 220.685 26.9599C220.685 24.9545 221.099 23.1496 221.928 21.5453C222.784 19.9142 224 18.6307 225.578 17.6949C227.156 16.759 229.041 16.2911 231.233 16.2911C233.292 16.2911 235.084 16.759 236.608 17.6949C238.132 18.604 239.308 19.8474 240.137 21.425C240.993 22.9758 241.421 24.7406 241.421 26.7192V37.2276H239.536V32.2943H239.415C239.041 33.1232 238.453 33.9655 237.651 34.8211C236.875 35.65 235.899 36.3452 234.723 36.9067C233.573 37.4682 232.223 37.749 230.672 37.749ZM230.993 36.1046C232.624 36.1046 234.081 35.7169 235.364 34.9414C236.648 34.1393 237.651 33.043 238.373 31.6526C239.121 30.2354 239.496 28.6444 239.496 26.8797C239.496 25.1684 239.148 23.6443 238.453 22.3073C237.784 20.9437 236.822 19.8741 235.565 19.0987C234.308 18.3233 232.838 17.9355 231.153 17.9355C229.388 17.9355 227.864 18.3366 226.581 19.1388C225.324 19.941 224.348 21.0372 223.653 22.4277C222.984 23.8181 222.65 25.3957 222.65 27.1604C222.65 28.7915 222.971 30.2889 223.613 31.6526C224.254 33.0162 225.204 34.0992 226.46 34.9013C227.717 35.7035 229.228 36.1046 230.993 36.1046Z" fill="#161616"/>
<path d="M247.931 37.2276V16.7724H249.856V37.2276H247.931ZM248.934 12.6814C248.533 12.6814 248.172 12.5343 247.851 12.2402C247.557 11.9193 247.41 11.5583 247.41 11.1573C247.41 10.7294 247.557 10.3685 247.851 10.0743C248.172 9.7802 248.533 9.63314 248.934 9.63314C249.335 9.63314 249.683 9.7802 249.977 10.0743C250.298 10.3685 250.458 10.7294 250.458 11.1573C250.458 11.5583 250.298 11.9193 249.977 12.2402C249.683 12.5343 249.335 12.6814 248.934 12.6814Z" fill="#161616"/>
<path d="M256.313 37.2276V7.94859H258.198V37.2276H256.313Z" fill="#161616"/>
<path d="M264.054 37.2276V35.5431H273.599C274.589 35.5431 275.418 35.3425 276.086 34.9414C276.755 34.5136 277.263 33.9655 277.61 33.297C277.958 32.6285 278.132 31.9333 278.132 31.2114C278.132 30.5696 277.985 29.9546 277.69 29.3664C277.396 28.7781 276.942 28.2968 276.327 27.9225C275.738 27.5481 274.976 27.361 274.041 27.361H269.629C268.318 27.361 267.209 27.1337 266.3 26.6791C265.39 26.2246 264.709 25.6096 264.254 24.8342C263.8 24.032 263.572 23.1496 263.572 22.187C263.572 21.2512 263.786 20.3688 264.214 19.5399C264.669 18.711 265.324 18.0425 266.179 17.5345C267.035 17.0264 268.051 16.7724 269.228 16.7724H278.412V18.4569H269.428C268.171 18.4569 267.209 18.8313 266.54 19.58C265.872 20.3287 265.538 21.1709 265.538 22.1068C265.538 23.0159 265.872 23.8314 266.54 24.5534C267.235 25.2486 268.292 25.5962 269.709 25.5962H273.76C275.204 25.5962 276.394 25.8502 277.329 26.3583C278.265 26.8396 278.96 27.4947 279.415 28.3236C279.896 29.1525 280.137 30.0883 280.137 31.1311C280.137 32.1472 279.883 33.1232 279.375 34.059C278.867 34.9682 278.158 35.7302 277.249 36.3452C276.367 36.9335 275.297 37.2276 274.041 37.2276H264.054Z" fill="#161616"/>
</svg>
