<svg width="44" height="44" viewBox="0 0 44 44" fill="none" xmlns="http://www.w3.org/2000/svg">
<g clip-path="url(#clip0_1730_11230)">
<path d="M35.0155 11.9082C35.0761 11.2874 34.4413 10.8459 33.8664 11.0853C33.0725 11.4158 31.9732 11.8456 30.7738 12.2323C30.7738 12.2323 31.0478 14.1793 31.8018 15.0974C32.5358 15.9912 34.3261 16.6425 34.3261 16.6425C34.6948 14.7861 34.9041 13.0512 35.0155 11.9082Z" fill="#161616"/>
<path d="M13.2041 28.5845C16.4256 29.5117 17.7708 25.7359 17.7151 22.3388C17.688 20.6897 17.4914 18.378 17.2963 16.4357C17.0895 14.3768 16.8842 12.733 16.8842 12.733C16.8842 12.733 9.49621 16.0003 8.80329 20.2618C8.28183 23.4688 10.0871 27.6874 13.2041 28.5845Z" fill="#161616"/>
<path d="M16.8842 12.733C16.8842 12.733 9.49621 16.0003 8.80329 20.2618C8.28183 23.4688 10.0871 27.6874 13.2041 28.5845C16.4256 29.5117 17.7708 25.7359 17.7151 22.3388C17.688 20.6897 17.4914 18.378 17.2963 16.4357C17.0895 14.3768 16.8842 12.733 16.8842 12.733ZM16.8842 12.733L18.3704 12.3071C18.7297 12.2042 19.1093 12.2014 19.4723 12.2901C20.7415 12.6 23.927 13.3077 26.1687 13.2048C27.5885 13.1396 29.2608 12.7202 30.7738 12.2323M41.9796 26.943C42.7841 24.2084 42.8582 22.2045 42.3908 19.0117C41.8509 15.3236 38.6898 10.1532 38.6898 10.1532C32.1609 0.913859 19.5395 -1.27041 10.318 5.27114C4.22473 9.59359 1.20466 16.6455 1.74044 23.5981C2.01552 27.1675 3.22781 30.7107 5.44265 33.845C11.8768 42.9502 24.3705 45.2063 33.5576 39.0091C33.7682 38.8671 33.7916 38.5667 33.6083 38.3908L27.0328 32.079C26.1731 31.2225 26.2303 29.8052 27.1162 28.9759C28.7122 27.4817 31.0374 25.1121 32.2391 22.9741C33.2275 21.2157 33.8889 18.8437 34.3261 16.6425M41.9796 26.943C41.8088 27.5235 41.6006 28.3337 41.3628 28.9759C40.7832 30.5408 39.5694 32.5091 38.8494 33.6121C38.4816 34.1756 37.9683 34.6406 37.3216 34.8268C36.7997 34.977 36.1682 35.0745 35.7084 34.8743C34.8394 34.496 34.395 33.8863 34.2692 32.9173C33.9614 30.5481 36.5312 28.6308 38.7852 27.767C40.1291 27.252 41.9796 26.943 41.9796 26.943ZM30.7738 12.2323C31.9732 11.8456 33.0725 11.4158 33.8664 11.0853C34.4413 10.8459 35.0761 11.2874 35.0155 11.9082C34.9041 13.0512 34.6948 14.7861 34.3261 16.6425M30.7738 12.2323C30.7738 12.2323 31.0478 14.1793 31.8018 15.0974C32.5358 15.9912 34.3261 16.6425 34.3261 16.6425" stroke="#161616" stroke-width="1.4" stroke-linecap="round"/>
<path d="M22.5513 18.8343C22.5513 18.8343 22.4789 17.6836 22.8343 17.4487C23.1898 17.2139 24.2199 17.7317 24.2199 17.7317" stroke="#161616" stroke-width="1.4" stroke-linecap="round"/>
</g>
<defs>
<clipPath id="clip0_1730_11230">
<rect width="44" height="44" fill="white"/>
</clipPath>
</defs>
</svg>
