<svg width="237" height="42" viewBox="0 0 237 42" fill="none" xmlns="http://www.w3.org/2000/svg">
<g clip-path="url(#clip0_1730_11224)">
<path d="M35.0155 10.9082C35.0761 10.2874 34.4413 9.84594 33.8664 10.0853C33.0725 10.4158 31.9732 10.8456 30.7738 11.2323C30.7738 11.2323 31.0478 13.1793 31.8018 14.0974C32.5358 14.9912 34.3261 15.6425 34.3261 15.6425C34.6948 13.7861 34.9041 12.0512 35.0155 10.9082Z" fill="#161616"/>
<path d="M13.2041 27.5845C16.4256 28.5117 17.7708 24.7359 17.7151 21.3388C17.688 19.6897 17.4914 17.378 17.2963 15.4357C17.0895 13.3768 16.8842 11.733 16.8842 11.733C16.8842 11.733 9.49621 15.0003 8.80329 19.2618C8.28183 22.4688 10.0871 26.6874 13.2041 27.5845Z" fill="#161616"/>
<path d="M16.8842 11.733C16.8842 11.733 9.49621 15.0003 8.80329 19.2618C8.28183 22.4688 10.0871 26.6874 13.2041 27.5845C16.4256 28.5117 17.7708 24.7359 17.7151 21.3388C17.688 19.6897 17.4914 17.378 17.2963 15.4357C17.0895 13.3768 16.8842 11.733 16.8842 11.733ZM16.8842 11.733L18.3704 11.3071C18.7297 11.2042 19.1093 11.2014 19.4723 11.2901C20.7415 11.6 23.927 12.3077 26.1687 12.2048C27.5885 12.1396 29.2608 11.7202 30.7738 11.2323M41.9796 25.943C42.7841 23.2084 42.8582 21.2045 42.3908 18.0117C41.8509 14.3236 38.6898 9.1532 38.6898 9.1532C32.1609 -0.0861417 19.5395 -2.27041 10.318 4.27114C4.22473 8.59359 1.20466 15.6455 1.74044 22.5981C2.01552 26.1675 3.22781 29.7107 5.44265 32.845C11.8768 41.9502 24.3705 44.2063 33.5576 38.0091C33.7682 37.8671 33.7916 37.5667 33.6083 37.3908L27.0328 31.079C26.1731 30.2225 26.2303 28.8052 27.1162 27.9759C28.7122 26.4817 31.0374 24.1121 32.2391 21.9741C33.2275 20.2157 33.8889 17.8437 34.3261 15.6425M41.9796 25.943C41.8088 26.5235 41.6006 27.3337 41.3628 27.9759C40.7832 29.5408 39.5694 31.5091 38.8494 32.6121C38.4816 33.1756 37.9683 33.6406 37.3216 33.8268C36.7997 33.977 36.1682 34.0745 35.7084 33.8743C34.8394 33.496 34.395 32.8863 34.2692 31.9173C33.9614 29.5481 36.5312 27.6308 38.7852 26.767C40.1291 26.252 41.9796 25.943 41.9796 25.943ZM30.7738 11.2323C31.9732 10.8456 33.0725 10.4158 33.8664 10.0853C34.4413 9.84594 35.0761 10.2874 35.0155 10.9082C34.9041 12.0512 34.6948 13.7861 34.3261 15.6425M30.7738 11.2323C30.7738 11.2323 31.0478 13.1793 31.8018 14.0974C32.5358 14.9912 34.3261 15.6425 34.3261 15.6425" stroke="#161616" stroke-width="1.2" stroke-linecap="round"/>
<path d="M22.5513 17.8343C22.5513 17.8343 22.4789 16.6836 22.8343 16.4487C23.1898 16.2139 24.2199 16.7317 24.2199 16.7317" stroke="#161616" stroke-width="1.2" stroke-linecap="round"/>
<path d="M52.7598 29.3211V6.51158H54.4085V16.9863H68.9444V6.51158H70.5931V29.3211H68.9444V18.3895H54.4085V29.3211H52.7598Z" fill="#161616"/>
<path d="M83.5925 29.7453C81.8428 29.7453 80.3399 29.3646 79.0837 28.6032C77.8275 27.82 76.8629 26.7649 76.19 25.4379C75.5394 24.1109 75.2142 22.6207 75.2142 20.9674C75.2142 19.3358 75.5619 17.8674 76.2573 16.5621C76.9751 15.2351 77.9957 14.1909 79.3192 13.4295C80.6427 12.6681 82.2241 12.2874 84.0635 12.2874C85.7908 12.2874 87.2937 12.6681 88.5724 13.4295C89.851 14.1691 90.838 15.1807 91.5334 16.4642C92.2512 17.726 92.6101 19.1618 92.6101 20.7716V29.3211H91.0286V25.3074H90.9277C90.6137 25.9818 90.1202 26.667 89.4472 27.3632C88.7967 28.0375 87.9779 28.6032 86.9909 29.06C86.0263 29.5168 84.8935 29.7453 83.5925 29.7453ZM83.8617 28.4074C85.23 28.4074 86.4525 28.0919 87.5293 27.4611C88.606 26.8084 89.4472 25.9165 90.0529 24.7853C90.681 23.6323 90.995 22.3379 90.995 20.9021C90.995 19.5098 90.7034 18.2698 90.1202 17.1821C89.5594 16.0726 88.7518 15.2025 87.6975 14.5716C86.6432 13.9407 85.4095 13.6253 83.9963 13.6253C82.5157 13.6253 81.2371 13.9516 80.1604 14.6042C79.1061 15.2568 78.2873 16.1488 77.7041 17.28C77.1433 18.4112 76.8629 19.6947 76.8629 21.1305C76.8629 22.4575 77.1321 23.6758 77.6705 24.7853C78.2088 25.8947 79.0052 26.7758 80.0595 27.4284C81.1138 28.0811 82.3812 28.4074 83.8617 28.4074Z" fill="#161616"/>
<path d="M106.585 12.2547C107.706 12.2547 108.783 12.4505 109.815 12.8421C110.847 13.2119 111.766 13.7667 112.574 14.5063C113.382 15.246 114.021 16.1705 114.492 17.28C114.963 18.3677 115.199 19.6295 115.199 21.0653C115.199 22.8709 114.806 24.4263 114.021 25.7316C113.236 27.0151 112.204 28.0049 110.925 28.7011C109.647 29.3754 108.256 29.7126 106.753 29.7126C105.744 29.7126 104.768 29.5277 103.826 29.1579C102.906 28.7881 102.087 28.2768 101.369 27.6242C100.674 26.9716 100.124 26.2428 99.7206 25.4379H99.6196V36.5H98.0382V20.8695C98.0382 18.9768 98.4419 17.3996 99.2495 16.1379C100.057 14.8544 101.111 13.8863 102.412 13.2337C103.713 12.5811 105.104 12.2547 106.585 12.2547ZM106.551 13.6253C105.362 13.6253 104.241 13.9081 103.186 14.4737C102.132 15.0175 101.28 15.8333 100.629 16.9211C99.9785 18.0088 99.6533 19.3467 99.6533 20.9347C99.6533 22.5446 99.9785 23.9042 100.629 25.0137C101.302 26.1014 102.166 26.9281 103.22 27.4937C104.297 28.0593 105.429 28.3421 106.618 28.3421C107.83 28.3421 108.963 28.0484 110.017 27.4611C111.071 26.8737 111.924 26.0361 112.574 24.9484C113.247 23.8389 113.583 22.5228 113.583 21C113.583 19.4119 113.247 18.074 112.574 16.9863C111.901 15.8768 111.026 15.0393 109.95 14.4737C108.895 13.9081 107.762 13.6253 106.551 13.6253Z" fill="#161616"/>
<path d="M128.272 12.2547C129.393 12.2547 130.47 12.4505 131.502 12.8421C132.534 13.2119 133.454 13.7667 134.261 14.5063C135.069 15.246 135.708 16.1705 136.179 17.28C136.65 18.3677 136.886 19.6295 136.886 21.0653C136.886 22.8709 136.493 24.4263 135.708 25.7316C134.923 27.0151 133.891 28.0049 132.612 28.7011C131.334 29.3754 129.943 29.7126 128.44 29.7126C127.431 29.7126 126.455 29.5277 125.513 29.1579C124.593 28.7881 123.774 28.2768 123.056 27.6242C122.361 26.9716 121.811 26.2428 121.408 25.4379H121.307V36.5H119.725V20.8695C119.725 18.9768 120.129 17.3996 120.937 16.1379C121.744 14.8544 122.798 13.8863 124.099 13.2337C125.401 12.5811 126.791 12.2547 128.272 12.2547ZM128.238 13.6253C127.049 13.6253 125.928 13.9081 124.873 14.4737C123.819 15.0175 122.967 15.8333 122.316 16.9211C121.666 18.0088 121.34 19.3467 121.34 20.9347C121.34 22.5446 121.666 23.9042 122.316 25.0137C122.989 26.1014 123.853 26.9281 124.907 27.4937C125.984 28.0593 127.117 28.3421 128.305 28.3421C129.517 28.3421 130.65 28.0484 131.704 27.4611C132.758 26.8737 133.611 26.0361 134.261 24.9484C134.934 23.8389 135.271 22.5228 135.271 21C135.271 19.4119 134.934 18.074 134.261 16.9863C133.588 15.8768 132.713 15.0393 131.637 14.4737C130.582 13.9081 129.449 13.6253 128.238 13.6253Z" fill="#161616"/>
<path d="M148.31 35.9453V29.68C147.099 29.593 145.966 29.2558 144.912 28.6684C143.88 28.0593 143.039 27.2326 142.388 26.1884C141.76 25.1225 141.446 23.8607 141.446 22.4032V12.6789H143.061V22.3053C143.061 23.6105 143.353 24.72 143.936 25.6337C144.519 26.5474 145.271 27.2326 146.19 27.6895C147.11 28.1463 148.075 28.3747 149.084 28.3747C150.138 28.3747 151.125 28.1463 152.045 27.6895C152.987 27.2109 153.75 26.5256 154.333 25.6337C154.939 24.72 155.242 23.6105 155.242 22.3053V12.6789H156.789V22.4032C156.789 23.8825 156.475 25.1551 155.847 26.2211C155.219 27.2653 154.378 28.0811 153.324 28.6684C152.269 29.234 151.137 29.5712 149.925 29.68V35.9453H148.31Z" fill="#161616"/>
<path d="M180.687 29.3211C179.543 29.3211 178.556 29.1035 177.726 28.6684C176.919 28.2116 176.302 27.5807 175.876 26.7758C175.45 25.9491 175.237 25.0028 175.237 23.9368V7.91474H167.464V6.47895H184.658V7.91474H176.885V24.1653C176.885 25.2747 177.222 26.1775 177.895 26.8737C178.568 27.5481 179.51 27.8853 180.721 27.8853H182.134V29.3211H180.687Z" fill="#161616"/>
<path d="M194.262 29.7453C192.513 29.7453 191.01 29.3646 189.753 28.6032C188.497 27.82 187.533 26.7649 186.86 25.4379C186.209 24.1109 185.884 22.6207 185.884 20.9674C185.884 19.3358 186.232 17.8674 186.927 16.5621C187.645 15.2351 188.666 14.1909 189.989 13.4295C191.312 12.6681 192.894 12.2874 194.733 12.2874C196.461 12.2874 197.964 12.6681 199.242 13.4295C200.521 14.1691 201.508 15.1807 202.203 16.4642C202.921 17.726 203.28 19.1618 203.28 20.7716V29.3211H201.698V25.3074H201.598C201.283 25.9818 200.79 26.667 200.117 27.3632C199.466 28.0375 198.648 28.6032 197.661 29.06C196.696 29.5168 195.563 29.7453 194.262 29.7453ZM194.531 28.4074C195.9 28.4074 197.122 28.0919 198.199 27.4611C199.276 26.8084 200.117 25.9165 200.723 24.7853C201.351 23.6323 201.665 22.3379 201.665 20.9021C201.665 19.5098 201.373 18.2698 200.79 17.1821C200.229 16.0726 199.422 15.2025 198.367 14.5716C197.313 13.9407 196.079 13.6253 194.666 13.6253C193.186 13.6253 191.907 13.9516 190.83 14.6042C189.776 15.2568 188.957 16.1488 188.374 17.28C187.813 18.4112 187.533 19.6947 187.533 21.1305C187.533 22.4575 187.802 23.6758 188.34 24.7853C188.879 25.8947 189.675 26.7758 190.729 27.4284C191.784 28.0811 193.051 28.4074 194.531 28.4074Z" fill="#161616"/>
<path d="M208.742 29.3211V12.6789H210.357V29.3211H208.742ZM209.583 9.35053C209.246 9.35053 208.944 9.23088 208.674 8.99158C208.428 8.73053 208.304 8.43684 208.304 8.11053C208.304 7.76246 208.428 7.46877 208.674 7.22947C208.944 6.99017 209.246 6.87053 209.583 6.87053C209.919 6.87053 210.211 6.99017 210.458 7.22947C210.727 7.46877 210.861 7.76246 210.861 8.11053C210.861 8.43684 210.727 8.73053 210.458 8.99158C210.211 9.23088 209.919 9.35053 209.583 9.35053Z" fill="#161616"/>
<path d="M215.773 29.3211V5.5H217.355V29.3211H215.773Z" fill="#161616"/>
<path d="M222.267 29.3211V27.9505H230.275C231.105 27.9505 231.801 27.7874 232.361 27.4611C232.922 27.113 233.348 26.667 233.64 26.1232C233.932 25.5793 234.077 25.0137 234.077 24.4263C234.077 23.9042 233.954 23.4039 233.707 22.9253C233.461 22.4467 233.079 22.0551 232.563 21.7505C232.07 21.446 231.43 21.2937 230.645 21.2937H226.944C225.845 21.2937 224.914 21.1088 224.151 20.7389C223.389 20.3691 222.817 19.8688 222.435 19.2379C222.054 18.5853 221.863 17.8674 221.863 17.0842C221.863 16.3228 222.043 15.6049 222.402 14.9305C222.783 14.2561 223.333 13.7123 224.05 13.2989C224.768 12.8856 225.621 12.6789 226.608 12.6789H234.313V14.0495H226.776C225.722 14.0495 224.914 14.354 224.353 14.9632C223.792 15.5723 223.512 16.2575 223.512 17.0189C223.512 17.7586 223.792 18.4221 224.353 19.0095C224.936 19.5751 225.822 19.8579 227.011 19.8579H230.41C231.621 19.8579 232.619 20.0646 233.404 20.4779C234.19 20.8695 234.773 21.4025 235.154 22.0768C235.558 22.7512 235.76 23.5126 235.76 24.3611C235.76 25.1877 235.547 25.9818 235.12 26.7432C234.694 27.4828 234.1 28.1028 233.337 28.6032C232.597 29.0818 231.7 29.3211 230.645 29.3211H222.267Z" fill="#161616"/>
</g>
<defs>
<clipPath id="clip0_1730_11224">
<rect width="237" height="42" fill="white"/>
</clipPath>
</defs>
</svg>
