<svg width="43" height="42" viewBox="0 0 43 42" fill="none" xmlns="http://www.w3.org/2000/svg">
<path d="M33.1761 12.235C33.2331 11.6631 32.6358 11.2565 32.0946 11.4769C31.3475 11.7814 30.3129 12.1773 29.1841 12.5336C29.1841 12.5336 29.442 14.3271 30.1516 15.1729C30.8424 15.9962 33.0002 16.4994 33.0002 16.4994C33.3472 14.7893 33.0712 13.2879 33.1761 12.235Z" fill="#F39324"/>
<path d="M16.4656 12.9371C16.4656 12.9371 17.1899 18.7242 17.2424 21.8536C17.2949 24.983 15.6805 28.4513 12.6486 27.5971L7.17993 34.624C13.5583 41.1432 24.2458 42.9114 32.0931 37.7739C32.3058 37.6347 32.3316 37.3345 32.1499 37.1568L25.6633 30.8162C24.8542 30.0273 24.9081 28.7216 25.7418 27.9577C27.2439 26.5812 29.4322 24.3984 30.5632 22.4289C31.4934 20.809 32.5888 18.5271 33.0002 16.4994C33.0002 16.4994 30.8424 15.9962 30.1516 15.1729C29.442 14.3271 29.1841 12.5336 29.1841 12.5336C27.7602 12.983 26.3364 12.877 25.0002 12.9371C22.8905 13.0319 19.6947 12.2848 18.5002 11.9994C18.2864 11.9482 17.9799 12.0163 17.6976 12.0976C17.3971 12.1842 17.1217 12.3442 16.8896 12.5538L16.4656 12.9371Z" fill="#F39324"/>
<path d="M17.2424 21.8536C17.1899 18.7242 16.4656 12.9371 16.4656 12.9371C16.4656 12.9371 9.44653 15.9126 8.7944 19.8382C8.30363 22.7926 9.71507 26.7707 12.6486 27.5971C15.6805 28.4513 17.2949 24.983 17.2424 21.8536Z" fill="#161616"/>
<path d="M16.4656 12.9371C16.4656 12.9371 17.1899 18.7242 17.2424 21.8536C17.2949 24.983 15.6805 28.4513 12.6486 27.5971M16.4656 12.9371C16.4656 12.9371 9.44653 15.9126 8.7944 19.8382C8.30363 22.7926 9.71507 26.7707 12.6486 27.5971M16.4656 12.9371L16.8896 12.5538C17.1217 12.3442 17.3971 12.1842 17.6976 12.0976C17.9799 12.0163 18.2864 11.9482 18.5002 11.9994C19.6947 12.2848 22.8905 13.0319 25.0002 12.9371C26.3364 12.877 27.7602 12.983 29.1841 12.5336M12.6486 27.5971L7.17993 34.624C13.5583 41.1432 24.2458 42.9114 32.0931 37.7739C32.3058 37.6347 32.3316 37.3345 32.1499 37.1568L25.6633 30.8162C24.8542 30.0273 24.9081 28.7216 25.7418 27.9577C27.2439 26.5812 29.4322 24.3984 30.5632 22.4289C31.4934 20.809 32.5888 18.5271 33.0002 16.4994M29.1841 12.5336C30.3129 12.1773 31.3475 11.7814 32.0946 11.4769C32.6358 11.2565 33.2331 11.6631 33.1761 12.235C33.0712 13.2879 33.3472 14.7893 33.0002 16.4994M29.1841 12.5336C29.1841 12.5336 29.442 14.3271 30.1516 15.1729C30.8424 15.9962 33.0002 16.4994 33.0002 16.4994" stroke="#F39324" stroke-width="1.2" stroke-linecap="round"/>
<path d="M34.5158 10.9082C34.5763 10.2874 33.9416 9.84593 33.3666 10.0853C32.5727 10.4158 31.4734 10.8456 30.274 11.2323C30.274 11.2323 30.5481 13.1793 31.3021 14.0974C32.0361 14.9912 33.8264 15.6425 33.8264 15.6425C34.1951 13.7861 34.4043 12.0512 34.5158 10.9082Z" fill="#161616"/>
<path d="M12.7043 27.5845C15.9259 28.5117 17.2711 24.7359 17.2153 21.3388C17.1883 19.6897 16.9917 17.378 16.7966 15.4357C16.5897 13.3768 16.3845 11.733 16.3845 11.733C16.3845 11.733 8.99645 15.0003 8.30354 19.2618C7.78207 22.4688 9.58733 26.6874 12.7043 27.5845Z" fill="#161616"/>
<path d="M16.3845 11.733C16.3845 11.733 8.99645 15.0003 8.30354 19.2618C7.78207 22.4688 9.58733 26.6874 12.7043 27.5845C15.9259 28.5117 17.2711 24.7359 17.2153 21.3388C17.1883 19.6897 16.9917 17.378 16.7966 15.4357C16.5897 13.3768 16.3845 11.733 16.3845 11.733ZM16.3845 11.733L17.8707 11.3071C18.2299 11.2042 18.6095 11.2014 18.9726 11.2901C20.2418 11.6 23.4273 12.3077 25.669 12.2048C27.0887 12.1396 28.761 11.7202 30.274 11.2323M41.4798 25.943C42.2843 23.2084 42.3585 21.2045 41.8911 18.0117C41.3512 14.3236 38.1901 9.1532 38.1901 9.1532C31.6611 -0.0861413 19.0398 -2.27041 9.81826 4.27114C3.72497 8.59359 0.704899 15.6455 1.24069 22.5981C1.51576 26.1675 2.72806 29.7107 4.9429 32.845C11.3771 41.9502 23.8708 44.2063 33.0579 38.0091C33.2685 37.8671 33.2918 37.5667 33.1085 37.3908L26.5331 31.079C25.6733 30.2225 25.7306 28.8052 26.6164 27.9759C28.2125 26.4817 30.5376 24.1121 31.7394 21.9741C32.7278 20.2157 33.3892 17.8437 33.8264 15.6425M41.4798 25.943C41.3091 26.5235 41.1009 27.3337 40.863 27.9759C40.2834 29.5408 39.0696 31.5091 38.3497 32.6121C37.9818 33.1756 37.4685 33.6406 36.8218 33.8268C36.2999 33.977 35.6685 34.0745 35.2087 33.8743C34.3397 33.496 33.8953 32.8863 33.7694 31.9173C33.4617 29.5481 36.0314 27.6308 38.2854 26.767C39.6293 26.252 41.4798 25.943 41.4798 25.943ZM30.274 11.2323C31.4734 10.8456 32.5727 10.4158 33.3666 10.0853C33.9416 9.84593 34.5763 10.2874 34.5158 10.9082C34.4043 12.0512 34.1951 13.7861 33.8264 15.6425M30.274 11.2323C30.274 11.2323 30.5481 13.1793 31.3021 14.0974C32.0361 14.9912 33.8264 15.6425 33.8264 15.6425" stroke="#161616" stroke-width="1.2" stroke-linecap="round"/>
<path d="M22.0513 17.8343C22.0513 17.8343 21.9789 16.6836 22.3343 16.4487C22.6898 16.2139 23.7199 16.7317 23.7199 16.7317" stroke="#161616" stroke-width="1.2" stroke-linecap="round"/>
</svg>
