<svg width="229" height="48" viewBox="0 0 229 48" fill="none" xmlns="http://www.w3.org/2000/svg">
<path d="M32.8215 14.5482C32.8782 13.9668 32.2837 13.5533 31.7452 13.7775C31.0016 14.087 29.9721 14.4896 28.8487 14.8518C28.8487 14.8518 29.1054 16.6753 29.8116 17.5352C30.499 18.3723 32.1758 18.9823 32.1758 18.9823C32.5211 17.2436 32.7171 15.6187 32.8215 14.5482Z" fill="#FDFDFD"/>
<path d="M12.3932 30.167C15.4105 31.0354 16.6704 27.499 16.6181 24.3173C16.5928 22.7728 16.4087 20.6077 16.2259 18.7886C16.0322 16.8603 15.84 15.3207 15.84 15.3207C15.84 15.3207 8.92045 18.3808 8.27147 22.3721C7.78308 25.3757 9.47385 29.3268 12.3932 30.167Z" fill="#FDFDFD"/>
<path d="M15.84 15.3207C15.84 15.3207 8.92045 18.3808 8.27147 22.3721C7.78308 25.3757 9.47385 29.3268 12.3932 30.167C15.4105 31.0354 16.6704 27.499 16.6181 24.3173C16.5928 22.7728 16.4087 20.6077 16.2259 18.7886C16.0322 16.8603 15.84 15.3207 15.84 15.3207ZM15.84 15.3207L17.2319 14.9219C17.5684 14.8254 17.9239 14.8228 18.264 14.9059C19.4526 15.1961 22.4361 15.859 24.5357 15.7626C25.8654 15.7015 27.4317 15.3087 28.8487 14.8518M39.3439 28.6296C40.0974 26.0684 40.1668 24.1916 39.7291 21.2012C39.2234 17.7471 36.2628 12.9045 36.2628 12.9045C30.1478 4.25108 18.3269 2.20532 9.69014 8.33205C3.98326 12.3804 1.1547 18.9851 1.65651 25.4968C1.91414 28.8398 3.04956 32.1584 5.12395 35.0939C11.1486 43.6196 22.8457 45.7337 31.4496 39.9349C31.6502 39.7997 31.6724 39.5136 31.4979 39.3461L25.345 33.4399C24.5397 32.6378 24.5934 31.3103 25.4231 30.5336C26.9179 29.1341 29.0956 26.9148 30.2211 24.9124C31.1469 23.2655 31.7663 21.0439 32.1758 18.9823M39.3439 28.6296C39.184 29.1733 38.989 29.9321 38.7662 30.5336C38.2257 31.9929 37.0963 33.8268 36.421 34.8624C36.0709 35.3992 35.5822 35.8425 34.9658 36.0179C34.48 36.156 33.8965 36.2435 33.4704 36.058C32.6565 35.7036 32.2403 35.1326 32.1224 34.225C31.8342 32.0061 34.241 30.2104 36.3521 29.4014C37.6108 28.919 39.3439 28.6296 39.3439 28.6296ZM28.8487 14.8518C29.9721 14.4896 31.0016 14.087 31.7452 13.7775C32.2837 13.5533 32.8782 13.9668 32.8215 14.5482C32.7171 15.6187 32.5211 17.2436 32.1758 18.9823M28.8487 14.8518C28.8487 14.8518 29.1054 16.6753 29.8116 17.5352C30.499 18.3723 32.1758 18.9823 32.1758 18.9823" stroke="#FDFDFD" stroke-width="1.15656" stroke-linecap="round"/>
<path d="M20.8622 19.8324C20.8622 19.8324 20.9979 18.9341 21.3748 18.6851C21.7516 18.4361 22.6312 18.6635 22.6312 18.6635" stroke="#FDFDFD" stroke-width="1.15656" stroke-linecap="round"/>
<path d="M52.8008 32.182V9.75347H54.373V20.0533H68.2345V9.75347H69.8067V32.182H68.2345V21.433H54.373V32.182H52.8008Z" fill="#FDFDFD"/>
<path d="M82.203 32.5991C80.5345 32.5991 79.1013 32.2248 77.9034 31.4761C76.7055 30.706 75.7856 29.6685 75.1439 28.3637C74.5236 27.0588 74.2134 25.5935 74.2134 23.9678C74.2134 22.3635 74.545 20.9196 75.2081 19.6361C75.8926 18.3313 76.8659 17.3045 78.128 16.5558C79.3901 15.8071 80.8981 15.4328 82.6522 15.4328C84.2993 15.4328 85.7325 15.8071 86.9518 16.5558C88.1711 17.2831 89.1123 18.2778 89.7755 19.5399C90.46 20.7806 90.8022 22.1924 90.8022 23.7753V32.182H89.2942V28.2353H89.1979C88.8984 28.8985 88.4278 29.5723 87.7861 30.2568C87.1657 30.9199 86.385 31.4761 85.4438 31.9253C84.5239 32.3745 83.4437 32.5991 82.203 32.5991ZM82.4597 31.2836C83.7645 31.2836 84.9304 30.9734 85.9571 30.3531C86.9839 29.7113 87.7861 28.8343 88.3636 27.722C88.9626 26.5882 89.2621 25.3155 89.2621 23.9037C89.2621 22.5346 88.984 21.3153 88.4278 20.2458C87.893 19.1548 87.123 18.2992 86.1176 17.6789C85.1122 17.0585 83.9357 16.7483 82.588 16.7483C81.1762 16.7483 79.9569 17.0692 78.9301 17.7109C77.9248 18.3527 77.144 19.2297 76.5878 20.342C76.053 21.4544 75.7856 22.7165 75.7856 24.1283C75.7856 25.4331 76.0423 26.631 76.5557 27.722C77.0691 28.8129 77.8285 29.6792 78.8339 30.321C79.8393 30.9627 81.0479 31.2836 82.4597 31.2836Z" fill="#FDFDFD"/>
<path d="M104.128 15.4007C105.198 15.4007 106.225 15.5932 107.209 15.9783C108.193 16.3419 109.07 16.8874 109.84 17.6147C110.61 18.342 111.22 19.2511 111.669 20.342C112.118 21.4116 112.343 22.6523 112.343 24.0641C112.343 25.8395 111.968 27.369 111.22 28.6525C110.471 29.9145 109.487 30.8878 108.268 31.5723C107.048 32.2355 105.722 32.567 104.289 32.567C103.326 32.567 102.396 32.3852 101.497 32.0216C100.62 31.6579 99.8396 31.1552 99.1551 30.5135C98.4919 29.8718 97.9678 29.1552 97.5828 28.3637H97.4865V39.241H95.9785V23.8716C95.9785 22.0105 96.3635 20.4597 97.1336 19.219C97.9037 17.9569 98.9091 17.005 100.15 16.3633C101.39 15.7216 102.717 15.4007 104.128 15.4007ZM104.096 16.7483C102.963 16.7483 101.893 17.0264 100.888 17.5826C99.8824 18.1174 99.0695 18.9195 98.4491 19.9891C97.8288 21.0586 97.5186 22.3742 97.5186 23.9357C97.5186 25.5187 97.8288 26.8556 98.4491 27.9466C99.0909 29.0161 99.9144 29.829 100.92 30.3851C101.947 30.9413 103.027 31.2194 104.161 31.2194C105.316 31.2194 106.396 30.9306 107.401 30.3531C108.407 29.7755 109.22 28.9519 109.84 27.8824C110.482 26.7914 110.803 25.4973 110.803 23.9999C110.803 22.4384 110.482 21.1228 109.84 20.0533C109.198 18.9623 108.364 18.1388 107.337 17.5826C106.332 17.0264 105.252 16.7483 104.096 16.7483Z" fill="#FDFDFD"/>
<path d="M124.809 15.4007C125.879 15.4007 126.906 15.5932 127.89 15.9783C128.874 16.3419 129.751 16.8874 130.521 17.6147C131.291 18.342 131.901 19.2511 132.35 20.342C132.799 21.4116 133.024 22.6523 133.024 24.0641C133.024 25.8395 132.649 27.369 131.901 28.6525C131.152 29.9145 130.168 30.8878 128.949 31.5723C127.729 32.2355 126.403 32.567 124.97 32.567C124.007 32.567 123.077 32.3852 122.178 32.0216C121.301 31.6579 120.52 31.1552 119.836 30.5135C119.173 29.8718 118.649 29.1552 118.264 28.3637H118.167V39.241H116.659V23.8716C116.659 22.0105 117.044 20.4597 117.814 19.219C118.585 17.9569 119.59 17.005 120.831 16.3633C122.071 15.7216 123.398 15.4007 124.809 15.4007ZM124.777 16.7483C123.644 16.7483 122.574 17.0264 121.569 17.5826C120.563 18.1174 119.75 18.9195 119.13 19.9891C118.51 21.0586 118.2 22.3742 118.2 23.9357C118.2 25.5187 118.51 26.8556 119.13 27.9466C119.772 29.0161 120.595 29.829 121.601 30.3851C122.627 30.9413 123.708 31.2194 124.841 31.2194C125.997 31.2194 127.077 30.9306 128.082 30.3531C129.088 29.7755 129.9 28.9519 130.521 27.8824C131.163 26.7914 131.483 25.4973 131.483 23.9999C131.483 22.4384 131.163 21.1228 130.521 20.0533C129.879 18.9623 129.045 18.1388 128.018 17.5826C127.013 17.0264 125.932 16.7483 124.777 16.7483Z" fill="#FDFDFD"/>
<path d="M143.918 38.6956V32.5349C142.763 32.4494 141.683 32.1178 140.677 31.5403C139.693 30.9413 138.891 30.1284 138.271 29.1017C137.672 28.0535 137.372 26.8128 137.372 25.3796V15.8178H138.912V25.2834C138.912 26.5668 139.191 27.6578 139.747 28.5562C140.303 29.4546 141.02 30.1284 141.897 30.5777C142.774 31.0269 143.693 31.2515 144.656 31.2515C145.661 31.2515 146.603 31.0269 147.48 30.5777C148.378 30.1071 149.105 29.4332 149.662 28.5562C150.239 27.6578 150.528 26.5668 150.528 25.2834V15.8178H152.004V25.3796C152.004 26.8342 151.704 28.0856 151.105 29.1338C150.507 30.1605 149.704 30.9627 148.699 31.5403C147.694 32.0964 146.613 32.428 145.458 32.5349V38.6956H143.918Z" fill="#FDFDFD"/>
<path d="M174.793 32.182C173.702 32.182 172.761 31.9681 171.97 31.5403C171.2 31.091 170.611 30.4707 170.205 29.6792C169.798 28.8664 169.595 27.9359 169.595 26.8877V11.1332H162.183V9.72139H178.579V11.1332H171.167V27.1123C171.167 28.2033 171.488 29.091 172.13 29.7755C172.772 30.4386 173.67 30.7702 174.825 30.7702H176.173V32.182H174.793Z" fill="#FDFDFD"/>
<path d="M187.738 32.5991C186.07 32.5991 184.636 32.2248 183.439 31.4761C182.241 30.706 181.321 29.6685 180.679 28.3637C180.059 27.0588 179.749 25.5935 179.749 23.9678C179.749 22.3635 180.08 20.9196 180.743 19.6361C181.428 18.3313 182.401 17.3045 183.663 16.5558C184.925 15.8071 186.433 15.4328 188.187 15.4328C189.835 15.4328 191.268 15.8071 192.487 16.5558C193.706 17.2831 194.648 18.2778 195.311 19.5399C195.995 20.7806 196.337 22.1924 196.337 23.7753V32.182H194.829V28.2353H194.733C194.434 28.8985 193.963 29.5723 193.321 30.2568C192.701 30.9199 191.92 31.4761 190.979 31.9253C190.059 32.3745 188.979 32.5991 187.738 32.5991ZM187.995 31.2836C189.3 31.2836 190.466 30.9734 191.492 30.3531C192.519 29.7113 193.321 28.8343 193.899 27.722C194.498 26.5882 194.797 25.3155 194.797 23.9037C194.797 22.5346 194.519 21.3153 193.963 20.2458C193.428 19.1548 192.658 18.2992 191.653 17.6789C190.647 17.0585 189.471 16.7483 188.123 16.7483C186.711 16.7483 185.492 17.0692 184.465 17.7109C183.46 18.3527 182.679 19.2297 182.123 20.342C181.588 21.4544 181.321 22.7165 181.321 24.1283C181.321 25.4331 181.578 26.631 182.091 27.722C182.604 28.8129 183.364 29.6792 184.369 30.321C185.374 30.9627 186.583 31.2836 187.995 31.2836Z" fill="#FDFDFD"/>
<path d="M201.546 32.182V15.8178H203.086V32.182H201.546ZM202.348 12.545C202.027 12.545 201.738 12.4274 201.482 12.1921C201.246 11.9354 201.129 11.6466 201.129 11.3257C201.129 10.9835 201.246 10.6947 201.482 10.4594C201.738 10.2241 202.027 10.1064 202.348 10.1064C202.669 10.1064 202.947 10.2241 203.182 10.4594C203.439 10.6947 203.567 10.9835 203.567 11.3257C203.567 11.6466 203.439 11.9354 203.182 12.1921C202.947 12.4274 202.669 12.545 202.348 12.545Z" fill="#FDFDFD"/>
<path d="M208.251 32.182V8.75879H209.759V32.182H208.251Z" fill="#FDFDFD"/>
<path d="M214.444 32.182V30.8344H222.08C222.872 30.8344 223.535 30.6739 224.07 30.3531C224.604 30.0108 225.011 29.5723 225.289 29.0375C225.567 28.5027 225.706 27.9466 225.706 27.369C225.706 26.8556 225.588 26.3636 225.353 25.893C225.118 25.4224 224.754 25.0374 224.262 24.7379C223.792 24.4384 223.182 24.2887 222.433 24.2887H218.904C217.856 24.2887 216.968 24.1069 216.24 23.7432C215.513 23.3796 214.968 22.8876 214.604 22.2672C214.24 21.6255 214.059 20.9196 214.059 20.1495C214.059 19.4008 214.23 18.6949 214.572 18.0318C214.936 17.3687 215.46 16.8339 216.144 16.4275C216.829 16.0211 217.642 15.8178 218.583 15.8178H225.931V17.1655H218.743C217.738 17.1655 216.968 17.4649 216.433 18.0639C215.898 18.6628 215.631 19.3367 215.631 20.0854C215.631 20.8126 215.898 21.4651 216.433 22.0426C216.989 22.5988 217.834 22.8769 218.968 22.8769H222.209C223.364 22.8769 224.316 23.0801 225.064 23.4865C225.813 23.8716 226.369 24.3956 226.733 25.0588C227.118 25.7219 227.31 26.4706 227.31 27.3048C227.31 28.1177 227.107 28.8985 226.701 29.6472C226.294 30.3744 225.727 30.9841 225 31.4761C224.294 31.9467 223.439 32.182 222.433 32.182H214.444Z" fill="#FDFDFD"/>
</svg>
