<svg width="190" height="35" viewBox="0 0 190 35" fill="none" xmlns="http://www.w3.org/2000/svg">
<path d="M28.0124 9.72648C28.0609 9.22979 27.5531 8.87665 27.0931 9.06813C26.458 9.33253 25.5786 9.67637 24.619 9.98578C24.619 9.98578 24.8382 11.5433 25.4415 12.2778C26.0286 12.9928 27.4609 13.5139 27.4609 13.5139C27.7558 12.0288 27.9232 10.6409 28.0124 9.72648Z" fill="#FDFDFD"/>
<path d="M10.5633 23.0675C13.1405 23.8093 14.2167 20.7886 14.1721 18.0709C14.1504 16.7516 13.9932 14.9023 13.837 13.3484C13.6716 11.7014 13.5074 10.3863 13.5074 10.3863C13.5074 10.3863 7.59696 13.0001 7.04263 16.4093C6.62546 18.975 8.06967 22.3498 10.5633 23.0675Z" fill="#FDFDFD"/>
<path d="M13.5074 10.3863C13.5074 10.3863 7.59696 13.0001 7.04263 16.4093C6.62546 18.975 8.06967 22.3498 10.5633 23.0675C13.1405 23.8093 14.2167 20.7886 14.1721 18.0709C14.1504 16.7516 13.9932 14.9023 13.837 13.3484C13.6716 11.7014 13.5074 10.3863 13.5074 10.3863ZM13.5074 10.3863L14.6963 10.0456C14.9838 9.96326 15.2874 9.96104 15.5779 10.032C16.5932 10.2799 19.1416 10.8461 20.935 10.7637C22.0708 10.7116 23.4086 10.3761 24.619 9.98578M33.5837 21.7543C34.2272 19.5666 34.2866 17.9635 33.9127 15.4092C33.4808 12.4588 30.9518 8.32246 30.9518 8.32246C25.7287 0.930989 15.6316 -0.816428 8.25441 4.41682C3.37978 7.87477 0.963724 13.5163 1.39236 19.0783C1.61241 21.9339 2.58225 24.7685 4.35412 27.2759C9.50146 34.5601 19.4964 36.365 26.8461 31.4072C27.0146 31.2936 27.0333 31.0533 26.8866 30.9125L21.6263 25.8631C20.9384 25.1779 20.9843 24.0441 21.6929 23.3806C22.9698 22.1852 24.8299 20.2896 25.7913 18.5792C26.582 17.1725 27.1111 15.2749 27.4609 13.5139M33.5837 21.7543C33.4471 22.2187 33.2805 22.8668 33.0902 23.3806C32.6265 24.6325 31.6555 26.2072 31.0795 27.0896C30.7853 27.5404 30.3746 27.9124 29.8573 28.0613C29.4397 28.1815 28.9346 28.2595 28.5668 28.0994C27.8715 27.7967 27.516 27.3089 27.4153 26.5337C27.1691 24.6384 29.2249 23.1046 31.0281 22.4135C32.1033 22.0015 33.5837 21.7543 33.5837 21.7543ZM24.619 9.98578C25.5786 9.67637 26.458 9.33253 27.0931 9.06813C27.5531 8.87665 28.0609 9.22979 28.0124 9.72648C27.9232 10.6409 27.7558 12.0288 27.4609 13.5139M24.619 9.98578C24.619 9.98578 24.8382 11.5433 25.4415 12.2778C26.0286 12.9928 27.4609 13.5139 27.4609 13.5139" stroke="#FDFDFD" stroke-width="0.96" stroke-linecap="round"/>
<path d="M18.0406 15.2676C18.0406 15.2676 17.9827 14.347 18.2671 14.1591C18.5514 13.9712 19.3755 14.3855 19.3755 14.3855" stroke="#FDFDFD" stroke-width="0.96" stroke-linecap="round"/>
<path d="M42.207 24.4567V6.20916H43.526V14.589H55.1547V6.20916H56.4737V24.4567H55.1547V15.7115H43.526V24.4567H42.207Z" fill="#FDFDFD"/>
<path d="M66.8732 24.7961C65.4735 24.7961 64.2711 24.4916 63.2662 23.8824C62.2612 23.2559 61.4895 22.4118 60.9512 21.3502C60.4308 20.2886 60.1706 19.0965 60.1706 17.7738C60.1706 16.4685 60.4487 15.2938 61.005 14.2496C61.5793 13.188 62.3958 12.3526 63.4546 11.7435C64.5134 11.1344 65.7785 10.8298 67.2501 10.8298C68.6319 10.8298 69.8342 11.1344 70.8571 11.7435C71.88 12.3352 72.6696 13.1445 73.2259 14.1713C73.8002 15.1807 74.0873 16.3293 74.0873 17.6172V24.4567H72.8221V21.2458H72.7414C72.4901 21.7853 72.0953 22.3335 71.557 22.8904C71.0366 23.4299 70.3815 23.8824 69.5919 24.2479C68.8203 24.6134 67.914 24.7961 66.8732 24.7961ZM67.0885 23.7258C68.1832 23.7258 69.1613 23.4734 70.0226 22.9687C70.884 22.4466 71.557 21.7331 72.0415 20.8281C72.544 19.9057 72.7952 18.8702 72.7952 17.7216C72.7952 16.6078 72.5619 15.6158 72.0953 14.7456C71.6467 13.858 71.0007 13.1619 70.1572 12.6572C69.3138 12.1525 68.3268 11.9001 67.1962 11.9001C66.0118 11.9001 64.9889 12.1612 64.1275 12.6833C63.2841 13.2054 62.6291 13.9189 62.1625 14.8239C61.7139 15.7289 61.4895 16.7557 61.4895 17.9043C61.4895 18.9659 61.7049 19.9405 62.1356 20.8281C62.5663 21.7157 63.2033 22.4205 64.0468 22.9426C64.8902 23.4647 65.9041 23.7258 67.0885 23.7258Z" fill="#FDFDFD"/>
<path d="M85.267 10.8037C86.1643 10.8037 87.0257 10.9603 87.8511 11.2736C88.6766 11.5694 89.4124 12.0132 90.0584 12.605C90.7045 13.1967 91.2159 13.9363 91.5928 14.8239C91.9696 15.6941 92.1581 16.7035 92.1581 17.8521C92.1581 19.2966 91.844 20.541 91.2159 21.5852C90.5878 22.612 89.7623 23.4038 88.7395 23.9607C87.7166 24.5003 86.6039 24.77 85.4016 24.77C84.594 24.77 83.8134 24.6221 83.0597 24.3262C82.3239 24.0304 81.6689 23.6214 81.0947 23.0993C80.5384 22.5772 80.0987 21.9941 79.7757 21.3502H79.6949V30.1999H78.4298V17.6955C78.4298 16.1814 78.7528 14.9196 79.3988 13.9102C80.0449 12.8834 80.8883 12.109 81.9291 11.5868C82.97 11.0647 84.0826 10.8037 85.267 10.8037ZM85.2401 11.9001C84.289 11.9001 83.3917 12.1264 82.5483 12.5789C81.7048 13.0139 81.0229 13.6666 80.5025 14.5367C79.982 15.4069 79.7218 16.4772 79.7218 17.7477C79.7218 19.0356 79.982 20.1233 80.5025 21.0109C81.0408 21.881 81.7317 22.5424 82.5752 22.9949C83.4366 23.4473 84.3428 23.6736 85.2939 23.6736C86.263 23.6736 87.1692 23.4386 88.0127 22.9687C88.8561 22.4989 89.538 21.8288 90.0584 20.9586C90.5968 20.0711 90.866 19.0181 90.866 17.7999C90.866 16.5294 90.5968 15.4591 90.0584 14.589C89.5201 13.7014 88.8202 13.0313 87.9588 12.5789C87.1154 12.1264 86.2091 11.9001 85.2401 11.9001Z" fill="#FDFDFD"/>
<path d="M102.617 10.8037C103.514 10.8037 104.375 10.9603 105.201 11.2736C106.026 11.5694 106.762 12.0132 107.408 12.605C108.054 13.1967 108.566 13.9363 108.942 14.8239C109.319 15.6941 109.508 16.7035 109.508 17.8521C109.508 19.2966 109.194 20.541 108.566 21.5852C107.938 22.612 107.112 23.4038 106.089 23.9607C105.066 24.5003 103.954 24.77 102.751 24.77C101.944 24.77 101.163 24.6221 100.409 24.3262C99.6736 24.0304 99.0186 23.6214 98.4443 23.0993C97.888 22.5772 97.4484 21.9941 97.1253 21.3502H97.0446V30.1999H95.7794V17.6955C95.7794 16.1814 96.1024 14.9196 96.7485 13.9102C97.3945 12.8834 98.2379 12.109 99.2788 11.5868C100.32 11.0647 101.432 10.8037 102.617 10.8037ZM102.59 11.9001C101.639 11.9001 100.741 12.1264 99.8979 12.5789C99.0545 13.0139 98.3725 13.6666 97.8521 14.5367C97.3317 15.4069 97.0715 16.4772 97.0715 17.7477C97.0715 19.0356 97.3317 20.1233 97.8521 21.0109C98.3905 21.881 99.0814 22.5424 99.9248 22.9949C100.786 23.4473 101.692 23.6736 102.644 23.6736C103.613 23.6736 104.519 23.4386 105.362 22.9687C106.206 22.4989 106.888 21.8288 107.408 20.9586C107.946 20.0711 108.216 19.0181 108.216 17.7999C108.216 16.5294 107.946 15.4591 107.408 14.589C106.87 13.7014 106.17 13.0313 105.308 12.5789C104.465 12.1264 103.559 11.9001 102.59 11.9001Z" fill="#FDFDFD"/>
<path d="M118.647 29.7561V24.7439C117.678 24.6743 116.772 24.4045 115.929 23.9346C115.103 23.4473 114.43 22.786 113.91 21.9506C113.407 21.0979 113.156 20.0885 113.156 18.9224V11.1431H114.448V18.8441C114.448 19.8883 114.681 20.7759 115.148 21.5069C115.615 22.2378 116.216 22.786 116.951 23.1515C117.687 23.517 118.459 23.6997 119.266 23.6997C120.11 23.6997 120.899 23.517 121.635 23.1515C122.389 22.7686 122.999 22.2204 123.466 21.5069C123.95 20.7759 124.192 19.8883 124.192 18.8441V11.1431H125.431V18.9224C125.431 20.1059 125.179 21.124 124.677 21.9767C124.175 22.8121 123.502 23.4647 122.658 23.9346C121.815 24.3871 120.908 24.6569 119.939 24.7439V29.7561H118.647Z" fill="#FDFDFD"/>
<path d="M144.549 24.4567C143.634 24.4567 142.844 24.2827 142.18 23.9346C141.534 23.5692 141.041 23.0645 140.7 22.4205C140.359 21.7592 140.188 21.0021 140.188 20.1494V7.33169H133.97V6.18306H147.726V7.33169H141.507V20.3321C141.507 21.2197 141.777 21.9419 142.315 22.4989C142.853 23.0384 143.607 23.3081 144.576 23.3081H145.707V24.4567H144.549Z" fill="#FDFDFD"/>
<path d="M155.409 24.7961C154.009 24.7961 152.807 24.4916 151.802 23.8824C150.797 23.2559 150.025 22.4118 149.487 21.3502C148.967 20.2886 148.706 19.0965 148.706 17.7738C148.706 16.4685 148.985 15.2938 149.541 14.2496C150.115 13.188 150.932 12.3526 151.99 11.7435C153.049 11.1344 154.314 10.8298 155.786 10.8298C157.168 10.8298 158.37 11.1344 159.393 11.7435C160.416 12.3352 161.205 13.1445 161.762 14.1713C162.336 15.1807 162.623 16.3293 162.623 17.6172V24.4567H161.358V21.2458H161.277C161.026 21.7853 160.631 22.3335 160.093 22.8904C159.572 23.4299 158.917 23.8824 158.128 24.2479C157.356 24.6134 156.45 24.7961 155.409 24.7961ZM155.624 23.7258C156.719 23.7258 157.697 23.4734 158.558 22.9687C159.42 22.4466 160.093 21.7331 160.577 20.8281C161.08 19.9057 161.331 18.8702 161.331 17.7216C161.331 16.6078 161.098 15.6158 160.631 14.7456C160.183 13.858 159.537 13.1619 158.693 12.6572C157.85 12.1525 156.863 11.9001 155.732 11.9001C154.548 11.9001 153.525 12.1612 152.663 12.6833C151.82 13.2054 151.165 13.9189 150.698 14.8239C150.25 15.7289 150.025 16.7557 150.025 17.9043C150.025 18.9659 150.241 19.9405 150.671 20.8281C151.102 21.7157 151.739 22.4205 152.583 22.9426C153.426 23.4647 154.44 23.7258 155.624 23.7258Z" fill="#FDFDFD"/>
<path d="M166.993 24.4567V11.1431H168.285V24.4567H166.993ZM167.665 8.48032C167.396 8.48032 167.154 8.3846 166.939 8.19317C166.741 7.98432 166.643 7.74938 166.643 7.48832C166.643 7.20987 166.741 6.97492 166.939 6.78348C167.154 6.59204 167.396 6.49632 167.665 6.49632C167.935 6.49632 168.168 6.59204 168.365 6.78348C168.581 6.97492 168.688 7.20987 168.688 7.48832C168.688 7.74938 168.581 7.98432 168.365 8.19317C168.168 8.3846 167.935 8.48032 167.665 8.48032Z" fill="#FDFDFD"/>
<path d="M172.618 24.4567V5.3999H173.883V24.4567H172.618Z" fill="#FDFDFD"/>
<path d="M177.813 24.4567V23.3603H184.219C184.883 23.3603 185.44 23.2298 185.888 22.9687C186.337 22.6903 186.678 22.3335 186.911 21.8984C187.144 21.4633 187.261 21.0109 187.261 20.541C187.261 20.1233 187.162 19.723 186.965 19.3401C186.768 18.9572 186.463 18.644 186.05 18.4003C185.655 18.1567 185.144 18.0349 184.515 18.0349H181.554C180.675 18.0349 179.93 17.8869 179.32 17.5911C178.71 17.2952 178.252 16.8949 177.947 16.3902C177.642 15.8681 177.49 15.2938 177.49 14.6673C177.49 14.0581 177.633 13.4838 177.92 12.9443C178.226 12.4048 178.665 11.9697 179.239 11.6391C179.814 11.3084 180.496 11.1431 181.285 11.1431H187.45V12.2395H181.42C180.576 12.2395 179.93 12.4831 179.482 12.9704C179.033 13.4577 178.809 14.0059 178.809 14.6151C178.809 15.2068 179.033 15.7376 179.482 16.2075C179.948 16.66 180.657 16.8862 181.608 16.8862H184.327C185.296 16.8862 186.095 17.0516 186.723 17.3822C187.351 17.6955 187.817 18.1219 188.123 18.6614C188.446 19.2009 188.607 19.81 188.607 20.4887C188.607 21.1501 188.437 21.7853 188.096 22.3944C187.755 22.9861 187.279 23.4822 186.669 23.8824C186.077 24.2653 185.359 24.4567 184.515 24.4567H177.813Z" fill="#FDFDFD"/>
</svg>
