<svg width="24" height="24" viewBox="0 0 24 24" fill="none" xmlns="http://www.w3.org/2000/svg">
<path d="M0 12C0 5.37258 5.37258 0 12 0C18.6274 0 24 5.37258 24 12C24 18.6274 18.6274 24 12 24C5.37258 24 0 18.6274 0 12Z" fill="#969696"/>
<path d="M9.21622 6.97327C9.67804 6.97327 10.1043 7.00879 10.4951 7.11537C10.8859 7.18641 11.2056 7.32851 11.4898 7.50614C11.774 7.68376 11.9871 7.93243 12.1292 8.25215C12.2713 8.57187 12.3424 8.96264 12.3424 9.38894C12.3424 9.88628 12.2358 10.3126 11.9871 10.6323C11.774 10.952 11.4187 11.2362 10.9925 11.4494C11.5964 11.627 12.0582 11.9467 12.3424 12.373C12.6266 12.7993 12.8042 13.3322 12.8042 13.9361C12.8042 14.4334 12.6976 14.8597 12.52 15.215C12.3424 15.5702 12.0582 15.8899 11.7385 16.1031C11.4187 16.3162 11.028 16.4939 10.6017 16.6004C10.1754 16.707 9.74909 16.7781 9.32279 16.7781H4.5625V6.97327H9.21622ZM8.93202 10.952C9.32279 10.952 9.64252 10.8454 9.89119 10.6678C10.1399 10.4902 10.2464 10.1705 10.2464 9.77971C10.2464 9.56656 10.2109 9.35341 10.1399 9.21132C10.0688 9.06922 9.96224 8.96264 9.82014 8.85607C9.67804 8.78502 9.53594 8.71397 9.35832 8.67845C9.1807 8.64292 9.00307 8.64292 8.78993 8.64292H6.7295V10.952H8.93202ZM9.0386 15.1439C9.25175 15.1439 9.46489 15.1084 9.64252 15.0729C9.82014 15.0373 9.99776 14.9663 10.1399 14.8597C10.282 14.7531 10.3885 14.6466 10.4951 14.469C10.5662 14.2913 10.6372 14.0782 10.6372 13.8295C10.6372 13.3322 10.4951 12.9769 10.2109 12.7282C9.92671 12.5151 9.53594 12.4085 9.07412 12.4085H6.7295V15.1439H9.0386ZM15.8948 15.1084C16.179 15.3926 16.6053 15.5347 17.1737 15.5347C17.5645 15.5347 17.9197 15.4281 18.2039 15.2505C18.4881 15.0373 18.6658 14.8242 18.7368 14.6111H20.4775C20.1933 15.4636 19.767 16.0676 19.1986 16.4583C18.6302 16.8136 17.9553 17.0267 17.1382 17.0267C16.5698 17.0267 16.0725 16.9202 15.6106 16.7425C15.1488 16.5649 14.7936 16.3162 14.4739 15.961C14.1541 15.6413 13.9055 15.2505 13.7634 14.7887C13.5857 14.3269 13.5147 13.8295 13.5147 13.2611C13.5147 12.7282 13.5857 12.2309 13.7634 11.7691C13.941 11.3073 14.1897 10.9165 14.5094 10.5612C14.8291 10.2415 15.2199 9.95733 15.6462 9.77971C16.108 9.60209 16.5698 9.49551 17.1382 9.49551C17.7421 9.49551 18.275 9.60209 18.7368 9.85076C19.1986 10.0994 19.5539 10.3836 19.8381 10.8099C20.1223 11.2007 20.3354 11.6625 20.4775 12.1599C20.5486 12.6572 20.5841 13.1545 20.5486 13.7229H15.3975C15.3975 14.2913 15.6106 14.8242 15.8948 15.1084ZM18.1329 11.3783C17.8842 11.1296 17.4935 10.9875 17.0316 10.9875C16.7119 10.9875 16.4632 11.0586 16.2501 11.1652C16.0369 11.2717 15.8948 11.4138 15.7527 11.5559C15.6106 11.698 15.5396 11.8757 15.5041 12.0533C15.4685 12.2309 15.433 12.373 15.433 12.5151H18.6302C18.5592 11.9822 18.3816 11.627 18.1329 11.3783ZM15.0067 7.64823H18.9855V8.6074H15.0067V7.64823Z" fill="white"/>
</svg>
