<svg width="32" height="33" viewBox="0 0 32 33" fill="none" xmlns="http://www.w3.org/2000/svg">
<path d="M28 13.8334V11.1667C27.9995 10.6991 27.8761 10.2398 27.6421 9.83492C27.408 9.43005 27.0717 9.09385 26.6667 8.86003L17.3333 3.5267C16.9279 3.29265 16.4681 3.16943 16 3.16943C15.5319 3.16943 15.0721 3.29265 14.6667 3.5267L5.33333 8.86003C4.92835 9.09385 4.59197 9.43005 4.35795 9.83492C4.12392 10.2398 4.00048 10.6991 4 11.1667V21.8334C4.00048 22.301 4.12392 22.7603 4.35795 23.1651C4.59197 23.57 4.92835 23.9062 5.33333 24.14L14.6667 29.4734C15.0721 29.7074 15.5319 29.8306 16 29.8306C16.4681 29.8306 16.9279 29.7074 17.3333 29.4734L20 27.9534" stroke="#DC362E" stroke-width="2" stroke-linecap="round" stroke-linejoin="round"/>
<path d="M10 6.19336L22 13.06" stroke="#DC362E" stroke-width="2" stroke-linecap="round" stroke-linejoin="round"/>
<path d="M4.38672 9.8335L16.0001 16.5002L27.6134 9.8335" stroke="#DC362E" stroke-width="2" stroke-linecap="round" stroke-linejoin="round"/>
<path d="M16 29.8333V16.5" stroke="#DC362E" stroke-width="2" stroke-linecap="round" stroke-linejoin="round"/>
<path d="M22.6665 17.8335L29.3332 24.5002M22.6665 24.5002L29.3332 17.8335" stroke="#DC362E" stroke-width="2" stroke-linecap="round" stroke-linejoin="round"/>
</svg>
