<svg width="156" height="157" viewBox="0 0 156 157" fill="none" xmlns="http://www.w3.org/2000/svg">
<path d="M95.43 121.802C95.43 121.564 95.5094 121.326 95.43 121.088C95.2711 120.849 95.1917 120.691 95.0329 120.532C94.6359 120.055 94.2388 119.658 93.7624 119.182L89.0772 114.417L92.73 110.685L94.7153 108.541C95.0329 108.223 95.43 107.588 95.43 107.112V106.794C95.43 106.079 95.1123 105.682 94.3976 105.523L94.5565 105.603H94.0006C93.5241 105.603 92.1742 106.873 91.8565 107.27C90.6654 108.462 89.8713 109.573 88.2831 110.764V101.315C88.2831 100.441 87.8066 100.044 86.9331 100.044H86.6949C85.8214 100.044 85.1067 100.441 85.1067 101.315V121.882C85.1067 122.755 85.8214 123.073 86.6949 123.073H86.9331C87.8066 123.073 88.2831 122.676 88.2831 121.882V118.229L90.6654 120.532C91.3801 121.246 92.0947 121.723 92.73 122.358C93.0477 122.676 93.6829 123.073 94.1594 123.073H94.3976C95.1917 123.073 95.43 122.676 95.5888 122.041L95.43 122.12V121.802ZM126.479 105.603H126.162C124.415 105.603 122.826 106.079 121.397 107.112C119.015 108.859 117.665 111.161 117.665 114.179V121.961C117.665 122.835 117.982 123.073 118.856 123.073H119.094C119.968 123.073 120.841 122.755 120.841 121.961V114.655C120.841 113.067 121.159 111.558 122.35 110.367C123.303 109.414 124.494 108.62 125.844 108.62C126.876 108.62 128.067 108.382 128.067 107.112C128.067 106.159 127.353 105.603 126.479 105.603ZM114.25 109.573C113.377 108.144 112.185 107.032 110.677 106.317C107.897 104.967 104.959 104.809 102.259 106.397L101.862 106.635C100.75 107.27 99.7975 108.064 99.0828 109.097C97.0182 112.114 96.7799 115.529 98.6064 118.705L98.7652 119.023C99.5593 120.373 100.592 121.485 101.942 122.199C104.8 123.788 107.897 123.946 110.756 122.358L110.994 122.199C111.788 121.723 111.947 120.929 111.55 120.135C111.391 119.817 111.074 119.579 110.756 119.42H110.597C110.041 119.341 108.533 119.976 107.977 120.214C106.865 120.373 105.594 120.452 104.483 120.055L110.518 114.814C111.391 114.02 112.344 113.147 113.297 112.432C114.091 111.797 114.885 110.923 114.25 109.811V109.573ZM108.771 112.432L102.021 118.229C101.783 117.991 101.624 117.673 101.465 117.435C100.989 116.641 100.671 115.688 100.671 114.735C100.592 112.353 101.465 110.367 103.609 109.176C105.197 108.223 106.944 108.064 108.691 108.7C109.565 109.017 110.597 109.573 111.153 110.367C110.359 111.082 109.485 111.717 108.771 112.432ZM44.6077 100.044H44.3695C43.496 100.044 43.0195 100.362 43.0195 101.235V107.667C41.4313 106.238 39.5255 105.682 37.302 105.682H36.6667C35.1579 105.682 33.7286 105.92 32.3786 106.714C29.5198 108.382 27.9316 110.844 27.9316 114.179V114.814C27.9316 116.323 28.3287 117.594 29.1228 118.944C30.7904 121.802 33.4109 123.232 36.6667 123.232H37.302C38.8108 123.232 40.399 122.993 41.6695 122.279C44.5283 120.611 46.1959 118.149 46.1959 114.894V101.394C46.1959 100.362 45.4812 100.044 44.6077 100.044ZM42.146 117.355C40.9548 119.341 39.2078 120.452 36.9049 120.452C35.952 120.452 34.9991 120.214 34.205 119.738C32.1404 118.626 30.9492 116.8 30.9492 114.417C30.9492 113.544 31.108 112.75 31.5051 111.956C32.6168 109.653 34.4432 108.382 36.9844 108.382C38.2549 108.382 39.3667 108.779 40.3196 109.494C41.9872 110.685 42.9401 112.273 42.9401 114.338C43.0195 115.45 42.7019 116.402 42.146 117.355ZM56.9956 105.603H56.5192C55.0104 105.603 53.5016 105.841 52.231 106.635C49.3723 108.303 47.7841 110.764 47.7841 114.1V114.735C47.7841 116.244 48.1811 117.514 48.9752 118.864C50.6428 121.723 53.2634 123.152 56.5986 123.152H57.2339C58.7426 123.152 60.2514 122.914 61.6014 122.199C64.4601 120.532 66.1277 118.07 66.1277 114.814V114.179C66.1277 112.75 65.6513 111.558 65.016 110.367C63.269 107.191 60.4897 105.603 56.9956 105.603ZM62.0779 117.355C60.8867 119.261 59.2191 120.452 56.9162 120.452C55.8839 120.452 54.8516 120.214 53.8986 119.658C51.9134 118.467 50.8017 116.8 50.8017 114.497C50.8017 113.623 50.9605 112.829 51.3575 112.035C52.4693 109.732 54.2957 108.462 56.8368 108.462C58.028 108.462 59.0603 108.779 60.0132 109.414C61.7602 110.606 62.7925 112.273 62.7925 114.417C62.8719 115.37 62.6337 116.402 62.0779 117.355ZM81.5332 106.714L81.4538 106.794C80.1039 105.92 78.5951 105.603 77.0069 105.603H76.3716C74.8628 105.603 73.354 105.841 72.0835 106.635C69.2247 108.303 67.6365 110.764 67.6365 114.02V114.655C67.6365 115.45 67.7954 116.164 67.9542 116.958C69.2247 121.326 72.6394 123.788 77.2451 123.47C78.5157 123.391 81.9303 122.993 81.9303 121.088V120.77C81.9303 120.055 81.3744 119.42 80.7392 119.261L80.6597 119.102H80.1039L79.9451 119.341C79.2304 119.658 78.0392 120.294 77.2451 120.294C76.2922 120.294 75.2599 120.294 74.3864 119.817C72.0835 118.705 70.7335 116.879 70.7335 114.338C70.7335 113.464 70.8923 112.67 71.2894 111.876C72.4011 109.653 74.2275 108.223 76.7687 108.303C77.2451 108.303 78.1186 108.541 78.5951 108.779C78.9921 108.938 80.0245 109.573 80.5009 109.573H80.6597L80.7392 109.414C81.4538 109.256 82.0097 108.7 82.0097 107.985V107.667C82.0097 107.35 81.8509 107.112 81.6921 106.873L81.5332 106.714ZM31.7433 81.9386L31.8227 82.0975C38.0961 92.7384 49.0546 97.1853 61.0455 97.1853C84.2332 97.1853 103.371 86.7826 112.106 64.9449C117.982 65.2626 124.017 63.5156 126.876 57.8775L127.591 56.4481L126.162 55.654C122.747 53.6687 118.221 53.4305 114.409 54.5423C113.932 50.4129 111.233 46.8395 108.056 44.2984L106.786 43.2661L105.753 44.5366C103.609 46.9983 102.974 51.1276 103.292 54.304C103.53 56.6069 104.244 58.9892 105.674 60.895C104.562 61.5303 103.371 62.4038 102.259 62.8009C100.036 63.595 97.574 64.3891 95.1917 64.3891H89.8713V53.1923H79.548V33.3398H67.6365V42.869H47.7841V53.1923H37.4608V64.3097H28.5669L28.4081 65.5008C28.0111 70.583 28.6463 75.5064 30.7904 80.1916L31.7433 81.9386ZM79.548 55.5746H88.2831V64.3097H79.548V55.5746ZM69.2247 34.928H77.9598V43.6631H69.2247V34.928ZM69.2247 45.2513H77.9598V53.9864H69.2247V45.2513ZM69.2247 55.5746H77.9598V64.3097H69.2247V55.5746ZM58.9015 45.2513H67.6365V53.9864H58.9015V45.2513ZM58.9015 55.5746H67.6365V64.3097H58.9015V55.5746ZM59.775 80.3504C59.775 81.7004 58.6632 82.8121 57.3133 82.8121C55.9633 82.8121 54.8516 81.7004 54.8516 80.3504C54.8516 79.0005 55.9633 77.8887 57.3133 77.8887C58.6632 77.9681 59.775 79.0005 59.775 80.3504ZM49.3723 45.2513H57.3133V53.9864H49.3723V45.2513ZM49.3723 55.5746H57.3133V64.3097H49.3723V55.5746ZM39.049 55.5746H47.7841V64.3097H39.049V55.5746ZM40.9548 85.7503C42.2254 85.7503 43.496 85.7503 44.6871 85.6709C47.7841 85.5121 50.484 85.115 52.7075 84.4798C54.5339 88.6885 57.8691 92.5795 63.8249 95.4383L61.0455 95.5177C48.4988 95.4383 41.7489 91.2296 36.1903 85.6709C37.8579 85.7503 39.4461 85.7503 40.9548 85.7503ZM57.3133 82.0975C58.2662 82.0975 59.0603 81.3034 59.0603 80.3504C59.0603 80.1122 58.9809 79.874 58.9015 79.7152C58.7426 79.9534 58.5838 80.1122 58.2662 80.1122C57.8691 80.1122 57.5515 79.7946 57.5515 79.3975C57.5515 79.1593 57.7103 78.9211 57.8691 78.7622C57.7897 78.6828 57.5515 78.6034 57.3133 78.6034C56.3603 78.6034 55.5662 79.3975 55.5662 80.3504C55.6457 81.3034 56.3603 82.0975 57.3133 82.0975Z" fill="#5A5A5A"/>
</svg>
