<svg width="156" height="157" viewBox="0 0 156 157" fill="none" xmlns="http://www.w3.org/2000/svg">
<g clip-path="url(#clip0_6888_28442)">
<path fill-rule="evenodd" clip-rule="evenodd" d="M113.25 58.293V95.668H107.375V58.293H95.6253C93.2881 58.293 91.0466 57.3843 89.3939 55.7668C87.7412 54.1493 86.8128 51.9555 86.8128 49.668V38.168H54.5003C52.9421 38.168 51.4478 38.7738 50.346 39.8521C49.2442 40.9304 48.6253 42.393 48.6253 43.918V95.668H42.7503V43.918C42.7503 40.868 43.9882 37.9429 46.1918 35.7862C48.3953 33.6296 51.384 32.418 54.5003 32.418H86.8128L113.25 58.293ZM39.9361 119.674C39.6094 118.817 39.4462 117.909 39.4544 116.995H43.9488C43.9648 117.538 44.1117 118.07 44.3776 118.547C44.6486 118.998 45.0403 119.368 45.5103 119.618C45.9803 119.867 46.5109 119.986 47.0449 119.962C48.1611 119.962 48.9876 119.647 49.5241 119.019C50.0646 118.386 50.3349 117.493 50.3349 116.339V100.555H54.9761V116.224C54.9761 118.754 54.277 120.68 52.8788 122.003C51.4923 123.325 49.5653 123.987 47.0978 123.987C45.9612 124.006 44.8306 123.822 43.7608 123.446C42.855 123.118 42.036 122.595 41.3638 121.917C40.7319 121.276 40.2454 120.512 39.9361 119.674ZM63.2717 117.639L61.4269 123.55H56.7269L64.6112 100.555H70.0514L77.9004 123.55H72.9654L71.1207 117.639H63.2717ZM70.1924 114.246L67.3137 104.954H67.108L64.2293 114.252L70.1924 114.246ZM83.9516 123.55H89.5447L97.3408 100.555H92.1825L86.9655 118.599H86.7423L81.4665 100.555H76.0792L83.9516 123.55ZM102.088 117.639L100.243 123.55H95.543L103.427 100.555H108.868L116.717 123.55H111.782L109.937 117.639H102.088ZM109.009 114.246L106.13 104.954H105.924L103.045 114.252L109.009 114.246Z" fill="#5A5A5A"/>
</g>
<defs>
<clipPath id="clip0_6888_28442">
<rect width="94" height="92" fill="white" transform="translate(31 32.418)"/>
</clipPath>
</defs>
</svg>
