<svg width="25" height="25" viewBox="0 0 25 25" fill="none" xmlns="http://www.w3.org/2000/svg">
<g clip-path="url(#clip0_8007_37728)">
<g clip-path="url(#clip1_8007_37728)">
<path fill-rule="evenodd" clip-rule="evenodd" d="M3.78418 0.574219C3.23189 0.574219 2.78418 1.02193 2.78418 1.57422V23.5742C2.78418 24.1265 3.2319 24.5742 3.78418 24.5742H21.7842C22.3365 24.5742 22.7842 24.1265 22.7842 23.5742V4.57422L18.7842 0.574219H3.78418Z" fill="#E9F0FA"/>
<path fill-rule="evenodd" clip-rule="evenodd" d="M18.7842 0.574219V4.57422H22.7842L18.7842 0.574219Z" fill="#C2CDDE"/>
</g>
<rect x="1.78418" y="10.5742" width="22" height="10" rx="1" fill="#C548F1"/>
<path d="M7.81756 12.756H8.86301V16.8469C8.86112 17.2219 8.78158 17.5449 8.62438 17.8157C8.46718 18.0846 8.24748 18.292 7.96529 18.4379C7.68498 18.5818 7.35828 18.6538 6.98517 18.6538C6.64427 18.6538 6.33745 18.5932 6.06472 18.4719C5.79389 18.3488 5.57892 18.167 5.41983 17.9265C5.26074 17.686 5.1812 17.3867 5.1812 17.0288H6.22949C6.23139 17.186 6.26548 17.3214 6.33176 17.435C6.39995 17.5487 6.4937 17.6358 6.61301 17.6964C6.73233 17.757 6.86964 17.7873 7.02495 17.7873C7.19351 17.7873 7.3365 17.7522 7.45392 17.6822C7.57135 17.6102 7.66036 17.5041 7.72097 17.364C7.78347 17.2238 7.81567 17.0515 7.81756 16.8469V12.756ZM10.0065 18.5742V12.756H12.1883C12.6353 12.756 13.0103 12.8394 13.3133 13.006C13.6182 13.1727 13.8483 13.4019 14.0036 13.6935C14.1608 13.9833 14.2394 14.3129 14.2394 14.6822C14.2394 15.0553 14.1608 15.3867 14.0036 15.6765C13.8464 15.9663 13.6144 16.1945 13.3076 16.3612C13.0008 16.5259 12.623 16.6083 12.1741 16.6083H10.7281V15.7418H12.032C12.2934 15.7418 12.5074 15.6964 12.6741 15.6055C12.8408 15.5146 12.9639 15.3896 13.0434 15.2305C13.1249 15.0714 13.1656 14.8886 13.1656 14.6822C13.1656 14.4757 13.1249 14.2939 13.0434 14.1367C12.9639 13.9795 12.8398 13.8574 12.6713 13.7702C12.5046 13.6812 12.2896 13.6367 12.0264 13.6367H11.0605V18.5742H10.0065ZM19.0526 14.614C19.0053 14.4606 18.94 14.3233 18.8566 14.2021C18.7752 14.079 18.6767 13.9738 18.5612 13.8867C18.4475 13.7996 18.3169 13.7343 18.1691 13.6907C18.0214 13.6452 17.8604 13.6225 17.6862 13.6225C17.3737 13.6225 17.0953 13.7011 16.8509 13.8583C16.6066 14.0155 16.4144 14.2466 16.2742 14.5515C16.136 14.8545 16.0669 15.2238 16.0669 15.6594C16.0669 16.0988 16.136 16.471 16.2742 16.7759C16.4125 17.0808 16.6047 17.3129 16.8509 17.4719C17.0972 17.6291 17.3831 17.7077 17.7089 17.7077C18.0044 17.7077 18.26 17.6509 18.4759 17.5373C18.6937 17.4237 18.8614 17.2627 18.9788 17.0543C19.0962 16.8441 19.1549 16.5979 19.1549 16.3157L19.3936 16.3526H17.814V15.5288H20.1748V16.2276C20.1748 16.7257 20.0687 17.1566 19.8566 17.5202C19.6445 17.8839 19.3528 18.1642 18.9816 18.3612C18.6104 18.5562 18.1843 18.6538 17.7032 18.6538C17.1672 18.6538 16.6966 18.5335 16.2913 18.293C15.8879 18.0505 15.5725 17.7068 15.3453 17.2617C15.1199 16.8147 15.0072 16.2844 15.0072 15.6708C15.0072 15.2011 15.0735 14.7816 15.2061 14.4123C15.3405 14.043 15.528 13.7295 15.7686 13.4719C16.0091 13.2125 16.2913 13.0155 16.6151 12.881C16.939 12.7447 17.2913 12.6765 17.672 12.6765C17.9939 12.6765 18.2941 12.7238 18.5725 12.8185C18.8509 12.9113 19.0981 13.0439 19.314 13.2163C19.5318 13.3886 19.7108 13.5932 19.8509 13.8299C19.9911 14.0666 20.0829 14.328 20.1265 14.614H19.0526Z" fill="white"/>
</g>
<defs>
<clipPath id="clip0_8007_37728">
<rect width="24" height="24" fill="white" transform="translate(0.78418 0.574219)"/>
</clipPath>
<clipPath id="clip1_8007_37728">
<rect width="20" height="24" fill="white" transform="translate(2.78418 0.574219)"/>
</clipPath>
</defs>
</svg>
