<svg width="24" height="24" viewBox="0 0 24 24" fill="none" xmlns="http://www.w3.org/2000/svg">
<rect width="24" height="24" rx="12" fill="#969696"/>
<path d="M18.6621 17.6647C17.8746 17.646 17.1059 17.646 16.3184 17.6647C16.1496 17.6647 16.1121 17.6272 16.1121 17.4585C16.1121 16.071 16.1121 14.6647 16.1121 13.2772C16.1121 12.9585 16.0934 12.6397 15.9996 12.3397C15.7184 11.3647 14.5934 11.0085 13.7871 11.6647C13.3559 12.0022 13.1871 12.471 13.1871 13.0335C13.1871 14.346 13.1871 15.6585 13.1871 16.971C13.1871 17.1397 13.1684 17.3085 13.1871 17.496C13.2059 17.646 13.1309 17.6835 12.9996 17.6647C12.1934 17.6647 11.4059 17.6647 10.5996 17.6647C10.4496 17.6647 10.4121 17.6272 10.4121 17.4772C10.4309 16.296 10.4309 15.1147 10.4309 13.9147C10.4309 12.4522 10.4309 10.9897 10.4121 9.54599C10.4121 9.37724 10.4496 9.33974 10.5996 9.33974C11.4059 9.33974 12.1934 9.33974 12.9996 9.33974C13.1496 9.33974 13.1871 9.37724 13.1871 9.52724C13.1871 9.82724 13.1871 10.1272 13.1871 10.4835C13.2434 10.4272 13.2621 10.4085 13.2809 10.3897C14.0121 9.32099 15.0434 9.02099 16.2621 9.20849C17.6684 9.43349 18.5684 10.4085 18.7934 11.9085C18.8496 12.2647 18.8684 12.621 18.8684 12.9772C18.8684 14.4772 18.8684 15.9585 18.8684 17.4585C18.8684 17.6085 18.8309 17.6647 18.6621 17.6647Z" fill="white"/>
<path d="M8.9125 13.5023C8.9125 14.8148 8.9125 16.1273 8.9125 17.4398C8.9125 17.6086 8.875 17.6648 8.70625 17.6648C7.91875 17.6461 7.13125 17.6648 6.34375 17.6648C6.19375 17.6648 6.15625 17.6273 6.15625 17.4773C6.15625 14.8336 6.15625 12.1711 6.15625 9.52734C6.15625 9.39609 6.19375 9.33984 6.34375 9.33984C7.15 9.33984 7.95625 9.33984 8.7625 9.33984C8.93125 9.33984 8.95 9.39609 8.95 9.54609C8.9125 10.8586 8.9125 12.1711 8.9125 13.5023Z" fill="white"/>
<path d="M9.04372 7.16324C8.85622 7.91324 8.08747 8.34449 7.20622 8.19449C6.26872 8.04449 5.74372 7.12574 6.08122 6.22574C6.30622 5.66324 6.84997 5.32574 7.54372 5.34449C8.59372 5.32574 9.28747 6.16949 9.04372 7.16324Z" fill="white"/>
</svg>
