<svg width="25" height="20" viewBox="0 0 25 20" fill="none" xmlns="http://www.w3.org/2000/svg">
<g clip-path="url(#clip0_3337_22546)">
<path d="M9.24658 2.10938H15.7294V13.9725H9.24658V2.10938Z" fill="#FF5F00"/>
<path d="M4.86323 19.4023V18.1448C4.86323 17.6626 4.57504 17.3483 4.08107 17.3483C3.83414 17.3483 3.56657 17.4321 3.38132 17.7046C3.23732 17.4741 3.03154 17.3483 2.72282 17.3483C2.51695 17.3483 2.31126 17.4111 2.14654 17.6417V17.3902H1.71436V19.4023H2.14654V18.2914C2.14654 17.9352 2.33179 17.7675 2.61998 17.7675C2.90798 17.7675 3.05217 17.9561 3.05217 18.2914V19.4023H3.48436V18.2914C3.48436 17.9352 3.69004 17.7675 3.95761 17.7675C4.24579 17.7675 4.38979 17.9561 4.38979 18.2914V19.4023H4.86323ZM11.2636 17.3902H10.564V16.7824H10.1318V17.3902H9.74076V17.7884H10.1317V18.7107C10.1317 19.1718 10.3169 19.4442 10.8109 19.4442C10.9962 19.4442 11.2019 19.3814 11.346 19.2976L11.2225 18.9202C11.099 19.0041 10.955 19.0251 10.8521 19.0251C10.6463 19.0251 10.564 18.8993 10.564 18.6897V17.7884H11.2636V17.3902ZM14.927 17.3482C14.6801 17.3482 14.5155 17.4741 14.4125 17.6417V17.3902H13.9803V19.4023H14.4125V18.2705C14.4125 17.9352 14.5565 17.7465 14.8241 17.7465C14.9064 17.7465 15.0093 17.7675 15.0916 17.7885L15.2151 17.3693C15.1328 17.3483 15.0093 17.3483 14.927 17.3483V17.3482ZM9.39089 17.5579C9.18501 17.4111 8.89692 17.3483 8.5882 17.3483C8.09432 17.3483 7.76507 17.5998 7.76507 17.998C7.76507 18.3334 8.01201 18.522 8.4442 18.5849L8.64998 18.6059C8.87639 18.6478 8.99986 18.7107 8.99986 18.8155C8.99986 18.9622 8.83523 19.067 8.54704 19.067C8.25895 19.067 8.03254 18.9622 7.88845 18.8574L7.68267 19.1927C7.90907 19.3604 8.21779 19.4442 8.52642 19.4442C9.1027 19.4442 9.43204 19.1718 9.43204 18.7945C9.43204 18.4382 9.16448 18.2495 8.75282 18.1867L8.54704 18.1657C8.36179 18.1447 8.21779 18.1029 8.21779 17.9771C8.21779 17.8304 8.36179 17.7465 8.5882 17.7465C8.83523 17.7465 9.08217 17.8513 9.20564 17.9142L9.39089 17.5579ZM20.8748 17.3483C20.6278 17.3483 20.4631 17.4741 20.3602 17.6417V17.3902H19.928V19.4023H20.3602V18.2705C20.3602 17.9352 20.5043 17.7465 20.7718 17.7465C20.8542 17.7465 20.9571 17.7675 21.0394 17.7885L21.1629 17.3693C21.0806 17.3483 20.9571 17.3483 20.8748 17.3483ZM15.3592 18.3963C15.3592 19.0041 15.7708 19.4442 16.4088 19.4442C16.6969 19.4442 16.9027 19.3814 17.1085 19.2137L16.9027 18.8574C16.7381 18.9832 16.5735 19.046 16.3882 19.046C16.0383 19.046 15.7914 18.7945 15.7914 18.3963C15.7914 18.019 16.0383 17.7675 16.3882 17.7465C16.5735 17.7465 16.7381 17.8094 16.9027 17.9352L17.1085 17.5789C16.9027 17.4111 16.6969 17.3483 16.4088 17.3483C15.7708 17.3483 15.3592 17.7885 15.3592 18.3963ZM19.3518 18.3963V17.3902H18.9196V17.6417C18.7755 17.4531 18.5698 17.3483 18.3022 17.3483C17.7465 17.3483 17.3144 17.7885 17.3144 18.3963C17.3144 19.0041 17.7465 19.4442 18.3022 19.4442C18.5903 19.4442 18.7962 19.3395 18.9196 19.1508V19.4023H19.3518V18.3963ZM17.7671 18.3963C17.7671 18.0399 17.9935 17.7465 18.3639 17.7465C18.7138 17.7465 18.9608 18.019 18.9608 18.3963C18.9608 18.7526 18.7138 19.046 18.3639 19.046C17.9935 19.025 17.7671 18.7526 17.7671 18.3963ZM12.6014 17.3483C12.0252 17.3483 11.6135 17.7675 11.6135 18.3963C11.6135 19.0251 12.0251 19.4442 12.622 19.4442C12.9101 19.4442 13.1983 19.3604 13.4247 19.1718L13.2188 18.8574C13.0542 18.9832 12.8484 19.067 12.6426 19.067C12.375 19.067 12.1075 18.9413 12.0457 18.5848H13.507V18.4173C13.5276 17.7675 13.1572 17.3483 12.6014 17.3483ZM12.6014 17.7255C12.8689 17.7255 13.0543 17.8933 13.0953 18.2077H12.0663C12.1075 17.9352 12.2927 17.7255 12.6014 17.7255ZM23.3238 18.3963V16.5938H22.8916V17.6417C22.7475 17.4531 22.5418 17.3483 22.2742 17.3483C21.7185 17.3483 21.2864 17.7885 21.2864 18.3963C21.2864 19.0041 21.7185 19.4442 22.2742 19.4442C22.5624 19.4442 22.7682 19.3395 22.8916 19.1508V19.4023H23.3238V18.3963ZM21.7392 18.3963C21.7392 18.0399 21.9655 17.7465 22.336 17.7465C22.6859 17.7465 22.9328 18.019 22.9328 18.3963C22.9328 18.7526 22.6859 19.046 22.336 19.046C21.9655 19.025 21.7392 18.7526 21.7392 18.3963ZM7.29164 18.3963V17.3902H6.85945V17.6417C6.71536 17.4531 6.50957 17.3483 6.24201 17.3483C5.68636 17.3483 5.25417 17.7885 5.25417 18.3963C5.25417 19.0041 5.68636 19.4442 6.24201 19.4442C6.5302 19.4442 6.73598 19.3395 6.85945 19.1508V19.4023H7.29164V18.3963ZM5.68636 18.3963C5.68636 18.0399 5.91276 17.7465 6.28317 17.7465C6.63304 17.7465 6.88007 18.019 6.88007 18.3963C6.88007 18.7526 6.63304 19.046 6.28317 19.046C5.91276 19.025 5.68636 18.7526 5.68636 18.3963Z" fill="black"/>
<path d="M9.65834 8.04548C9.65834 5.63516 10.7697 3.49723 12.4778 2.11385C11.2225 1.10781 9.63781 0.5 7.90906 0.5C3.81341 0.5 0.5 3.87446 0.5 8.04548C0.5 12.2164 3.81341 15.591 7.90897 15.591C9.63772 15.591 11.2224 14.9832 12.4778 13.977C10.7697 12.6146 9.65834 10.4558 9.65834 8.04548Z" fill="#EB001B"/>
<path d="M24.4764 8.04548C24.4764 12.2164 21.163 15.591 17.0674 15.591C15.3386 15.591 13.754 14.9832 12.4985 13.977C14.2273 12.5937 15.3181 10.4558 15.3181 8.04548C15.3181 5.63516 14.2067 3.49723 12.4985 2.11385C13.7539 1.10781 15.3386 0.5 17.0674 0.5C21.163 0.5 24.4764 3.89546 24.4764 8.04548Z" fill="#F79E1B"/>
</g>
<defs>
<clipPath id="clip0_3337_22546">
<rect width="24" height="19" fill="white" transform="translate(0.5 0.5)"/>
</clipPath>
</defs>
</svg>
