<svg width="33" height="33" viewBox="0 0 33 33" fill="none" xmlns="http://www.w3.org/2000/svg">
<path d="M22.0835 21.8335H30.0835" stroke="#4285F4" stroke-width="2" stroke-linecap="round" stroke-linejoin="round"/>
<path d="M26.0835 17.8335V25.8335" stroke="#4285F4" stroke-width="2" stroke-linecap="round" stroke-linejoin="round"/>
<path d="M28.75 13.8334V11.1667C28.7495 10.6991 28.6261 10.2398 28.3921 9.83492C28.158 9.43005 27.8217 9.09385 27.4167 8.86003L18.0833 3.5267C17.6779 3.29265 17.2181 3.16943 16.75 3.16943C16.2819 3.16943 15.8221 3.29265 15.4167 3.5267L6.08333 8.86003C5.67835 9.09385 5.34197 9.43005 5.10795 9.83492C4.87392 10.2398 4.75048 10.6991 4.75 11.1667V21.8334C4.75048 22.301 4.87392 22.7603 5.10795 23.1651C5.34197 23.57 5.67835 23.9062 6.08333 24.14L15.4167 29.4734C15.8221 29.7074 16.2819 29.8306 16.75 29.8306C17.2181 29.8306 17.6779 29.7074 18.0833 29.4734L20.75 27.9534" stroke="#4285F4" stroke-width="2" stroke-linecap="round" stroke-linejoin="round"/>
<path d="M10.75 6.19336L22.75 13.06" stroke="#4285F4" stroke-width="2" stroke-linecap="round" stroke-linejoin="round"/>
<path d="M5.13672 9.8335L16.7501 16.5002L28.3634 9.8335" stroke="#4285F4" stroke-width="2" stroke-linecap="round" stroke-linejoin="round"/>
<path d="M16.75 29.8333V16.5" stroke="#4285F4" stroke-width="2" stroke-linecap="round" stroke-linejoin="round"/>
</svg>
