<svg width="64" height="65" viewBox="0 0 64 65" fill="none" xmlns="http://www.w3.org/2000/svg">
<path d="M39.8853 6.41723L47.5328 24.2012H42.113L35.318 8.3836C35.0572 7.77793 35.0477 7.09349 35.2916 6.48083C35.5355 5.86817 36.0127 5.37749 36.6184 5.11672C37.2241 4.85596 37.9085 4.84648 38.5212 5.09036C39.1338 5.33424 39.6245 5.81157 39.8853 6.41723ZM21.8897 24.2012L28.6847 8.3836C28.9445 7.77811 28.9533 7.09426 28.7093 6.48227C28.4652 5.87028 27.9882 5.38019 27.383 5.11965C26.7779 4.85911 26.094 4.84943 25.4817 5.09272C24.8694 5.33602 24.3787 5.8124 24.1174 6.41723L16.4699 24.2012H21.8897ZM57.2025 27.3125H6.80013C6.05749 27.3125 5.34527 27.6075 4.82014 28.1326C4.29501 28.6577 4 29.3699 4 30.1126C4 30.8552 4.29501 31.5675 4.82014 32.0926C5.34527 32.6177 6.05749 32.9127 6.80013 32.9127H57.2025C57.9452 32.9127 58.6574 32.6177 59.1825 32.0926C59.7077 31.5675 60.0027 30.8552 60.0027 30.1126C60.0027 29.3699 59.7077 28.6577 59.1825 28.1326C58.6574 27.6075 57.9452 27.3125 57.2025 27.3125ZM13.452 58.9416L8.48021 35.1529H55.5225L50.5507 58.9416C50.4337 59.4988 50.1287 59.9988 49.6869 60.3579C49.245 60.717 48.6932 60.9134 48.1239 60.9141H15.8788C15.3094 60.9134 14.7576 60.717 14.3158 60.3579C13.874 59.9988 13.569 59.4988 13.452 58.9416ZM39.5419 57.258C39.6058 57.268 39.6704 57.2731 39.7351 57.2732C40.0317 57.2727 40.3184 57.1663 40.5436 56.9732C40.7687 56.7801 40.9175 56.5129 40.9632 56.2199L43.4522 40.23C43.503 39.9038 43.4221 39.5708 43.2273 39.3042C43.0326 39.0377 42.7399 38.8594 42.4137 38.8086C42.0875 38.7579 41.7545 38.8388 41.488 39.0335C41.2214 39.2283 41.0431 39.521 40.9924 39.8472L38.5034 55.837C38.4782 55.9985 38.4852 56.1634 38.5238 56.3222C38.5623 56.481 38.6318 56.6307 38.7283 56.7626C38.8247 56.8946 38.9462 57.0063 39.0858 57.0913C39.2254 57.1763 39.3804 57.2329 39.5419 57.258ZM20.5504 40.23L23.0395 56.2199C23.0851 56.5129 23.2339 56.7801 23.4591 56.9732C23.6842 57.1663 23.9709 57.2727 24.2676 57.2733C24.3323 57.2731 24.3969 57.2681 24.4608 57.2581C24.6223 57.233 24.7773 57.1763 24.9169 57.0913C25.0565 57.0063 25.178 56.8946 25.2744 56.7627C25.3708 56.6307 25.4403 56.4811 25.4789 56.3222C25.5175 56.1634 25.5245 55.9985 25.4993 55.837L23.0103 39.8472C22.9593 39.5212 22.7809 39.2289 22.5144 39.0344C22.2479 38.8399 21.9152 38.7592 21.5892 38.8099C21.2632 38.8606 20.9707 39.0387 20.7759 39.305C20.5812 39.5713 20.5 39.9039 20.5504 40.23Z" fill="#F39324"/>
</svg>
