<svg width="64" height="65" viewBox="0 0 64 65" fill="none" xmlns="http://www.w3.org/2000/svg">
<path d="M48.383 60.3622C47.7268 60.3814 47.0746 60.2534 46.4744 59.9875C45.8741 59.7217 45.341 59.3248 44.9143 58.8259C44.4875 58.3271 44.1779 57.7389 44.0082 57.1048C43.8385 56.4706 43.813 55.8065 43.9335 55.1611C44.1689 53.7385 44.8913 52.4419 45.9772 51.4931C47.063 50.5443 48.4449 50.0024 49.8862 49.96C50.5424 49.9408 51.1946 50.0688 51.7949 50.3347C52.3951 50.6005 52.9282 50.9975 53.355 51.4963C53.7818 51.9952 54.0914 52.5833 54.2611 53.2175C54.4308 53.8517 54.4563 54.5158 54.3358 55.1611C54.1004 56.5838 53.3779 57.8804 52.2921 58.8291C51.2062 59.7779 49.8244 60.3198 48.383 60.3622ZM18.6702 55.1611C18.7908 54.5158 18.7653 53.8517 18.5955 53.2175C18.4258 52.5833 18.1162 51.9952 17.6894 51.4963C17.2627 50.9975 16.7296 50.6005 16.1293 50.3347C15.5291 50.0688 14.8769 49.9408 14.2207 49.96C12.7793 50.0024 11.3975 50.5443 10.3116 51.4931C9.22577 52.4419 8.50335 53.7385 8.26798 55.1611C8.14743 55.8065 8.17295 56.4706 8.34267 57.1048C8.51239 57.7389 8.822 58.327 9.24877 58.8259C9.67553 59.3247 10.2086 59.7217 10.8089 59.9875C11.4091 60.2534 12.0613 60.3814 12.7175 60.3622C14.1588 60.3198 15.5406 59.7779 16.6265 58.8291C17.7124 57.8804 18.4348 56.5837 18.6702 55.1611ZM0.0223184 33.8472C0.0969743 33.3305 0.355307 32.858 0.74999 32.5162C1.14467 32.1745 1.64928 31.9864 2.17136 31.9864H22.2675C22.5208 31.9864 22.7714 31.9332 23.0029 31.8302C23.2344 31.7273 23.4417 31.5768 23.6114 31.3887C23.7811 31.2006 23.9093 30.9789 23.9879 30.738C24.0665 30.4972 24.0937 30.2425 24.0676 29.9905C24.0046 29.5336 23.7759 29.1159 23.4251 28.8166C23.0742 28.5174 22.6256 28.3576 22.1645 28.3675L7.54486 28.3007C7.25939 28.3012 6.97661 28.2455 6.71272 28.1366C6.44882 28.0277 6.20899 27.8678 6.00694 27.6661C5.8049 27.4645 5.64461 27.2249 5.53524 26.9612C5.42587 26.6975 5.36958 26.4148 5.36958 26.1294C5.36958 25.8439 5.42587 25.5612 5.53524 25.2975C5.64461 25.0338 5.8049 24.7943 6.00694 24.5926C6.20899 24.3909 6.44882 24.2311 6.71272 24.1222C6.97661 24.0133 7.25939 23.9575 7.54486 23.958L30.9529 24.0248C31.2063 24.0248 31.4568 23.9716 31.6883 23.8686C31.9198 23.7656 32.1271 23.6152 32.2968 23.4271C32.4665 23.2389 32.5948 23.0173 32.6734 22.7764C32.752 22.5355 32.7791 22.2809 32.753 22.0288C32.69 21.572 32.4613 21.1543 32.1105 20.855C31.7596 20.5558 31.311 20.3959 30.8499 20.4058H7.30366L7.52516 18.8729C7.65904 18.0638 8.06993 17.3264 8.68752 16.7868C9.30511 16.2472 10.091 15.939 10.9108 15.9149H46.9015C47.2748 15.904 47.6457 15.9768 47.9871 16.128C48.3285 16.2792 48.6316 16.5049 48.8744 16.7886C49.1171 17.0723 49.2932 17.4068 49.3897 17.7675C49.4862 18.1282 49.5007 18.5059 49.4322 18.8729L48.3518 26.349H56.113C56.8404 26.3515 57.55 26.5741 58.1484 26.9877C58.7469 27.4012 59.2061 27.9862 59.4656 28.6658L63.5152 39.2139C63.9619 40.3775 64.1029 41.6362 63.9246 42.8699L62.5523 52.366C62.456 52.9486 62.1601 53.4796 61.7154 53.8681C61.2707 54.2567 60.7048 54.4786 60.1146 54.496H57.0587C57.1389 53.6205 57.0429 52.7379 56.7762 51.9002C56.5096 51.0625 56.0778 50.2867 55.5063 49.6187C54.9348 48.9507 54.2353 48.404 53.449 48.0109C52.6627 47.6177 51.8055 47.3862 50.9282 47.3299C46.6578 46.9644 42.3931 50.1727 41.4028 54.496H21.3939C21.4746 53.6199 21.3789 52.7366 21.1123 51.8982C20.8457 51.0597 20.4136 50.2833 19.8417 49.6148C19.2698 48.9463 18.5696 48.3993 17.7826 48.0061C16.9956 47.6129 16.1377 47.3816 15.2597 47.3257C10.9888 46.9622 6.72535 50.1725 5.73726 54.496H4.5073C4.23856 54.5038 3.97148 54.4514 3.72566 54.3425C3.47984 54.2336 3.26153 54.0711 3.08676 53.8668C2.91199 53.6625 2.7852 53.4216 2.71569 53.1619C2.64619 52.9022 2.63574 52.6302 2.68512 52.366L4.4796 39.948H13.5821C13.8354 39.948 14.086 39.8948 14.3175 39.7919C14.549 39.6889 14.7563 39.5385 14.926 39.3503C15.0956 39.1622 15.2239 38.9405 15.3025 38.6996C15.3811 38.4588 15.4082 38.2041 15.3822 37.9521C15.3192 37.4953 15.0905 37.0775 14.7396 36.7783C14.3888 36.479 13.9402 36.3192 13.4791 36.3291H2.17135C1.85997 36.3291 1.55222 36.2621 1.26899 36.1327C0.985769 36.0033 0.733689 35.8145 0.529856 35.5791C0.326023 35.3437 0.175205 35.0672 0.0876341 34.7684C6.30167e-05 34.4696 -0.0222126 34.1554 0.0223184 33.8472ZM46.2417 40.9513L61.2737 40.9824L56.9763 29.606C56.9095 29.4311 56.7912 29.2805 56.6371 29.174C56.483 29.0676 56.3003 29.0103 56.113 29.0097H47.9673L46.2417 40.9513Z" fill="#F39324"/>
</svg>
