<svg width="44" height="44" viewBox="0 0 44 44" fill="none" xmlns="http://www.w3.org/2000/svg">
<g clip-path="url(#clip0_1728_11114)">
<path d="M33.6759 13.2357C33.7329 12.6637 33.1355 12.2571 32.5944 12.4776C31.8472 12.782 30.8127 13.178 29.6838 13.5343C29.6838 13.5343 29.9417 15.3278 30.6514 16.1735C31.3422 16.9969 33.5 17.5 33.5 17.5C33.847 15.7899 33.571 14.2886 33.6759 13.2357Z" fill="#F39324"/>
<path d="M16.9654 13.9377C16.9654 13.9377 17.6897 19.7248 17.7421 22.8542C17.7946 25.9837 16.1803 29.4519 13.1484 28.5978L7.67969 35.6247C14.0581 42.1439 24.7456 43.9121 32.5928 38.7746C32.8055 38.6353 32.8314 38.3352 32.6496 38.1575L26.1631 31.8169C25.3539 31.0279 25.4078 29.7223 26.2415 28.9583C27.7437 27.5819 29.9319 25.399 31.0629 23.4295C31.9932 21.8097 33.0885 19.5278 33.5 17.5C33.5 17.5 31.3422 16.9969 30.6514 16.1735C29.9417 15.3278 29.6838 13.5343 29.6838 13.5343C28.2599 13.9837 26.8362 13.8776 25.5 13.9377C23.3903 14.0325 20.1945 13.2855 19 13C18.7861 12.9489 18.4796 13.017 18.1973 13.0983C17.8968 13.1849 17.6214 13.3448 17.3894 13.5545L16.9654 13.9377Z" fill="#F39324"/>
<path d="M17.7421 22.8542C17.6897 19.7248 16.9654 13.9377 16.9654 13.9377C16.9654 13.9377 9.94628 16.9132 9.29416 20.8389C8.80339 23.7932 10.2148 27.7713 13.1484 28.5978C16.1803 29.4519 17.7946 25.9837 17.7421 22.8542Z" fill="#161616"/>
<path d="M16.9654 13.9377C16.9654 13.9377 17.6897 19.7248 17.7421 22.8542C17.7946 25.9837 16.1803 29.4519 13.1484 28.5978M16.9654 13.9377C16.9654 13.9377 9.94628 16.9132 9.29416 20.8389C8.80339 23.7932 10.2148 27.7713 13.1484 28.5978M16.9654 13.9377L17.3894 13.5545C17.6214 13.3448 17.8968 13.1849 18.1973 13.0983C18.4796 13.017 18.7861 12.9489 19 13C20.1945 13.2855 23.3903 14.0325 25.5 13.9377C26.8362 13.8776 28.2599 13.9837 29.6838 13.5343M13.1484 28.5978L7.67969 35.6247C14.0581 42.1439 24.7456 43.9121 32.5928 38.7746C32.8055 38.6353 32.8314 38.3352 32.6496 38.1575L26.1631 31.8169C25.3539 31.0279 25.4078 29.7223 26.2415 28.9583C27.7437 27.5818 29.9319 25.399 31.0629 23.4295C31.9932 21.8097 33.0885 19.5278 33.5 17.5M29.6838 13.5343C30.8127 13.178 31.8472 12.782 32.5944 12.4776C33.1355 12.2571 33.7329 12.6637 33.6759 13.2357C33.571 14.2886 33.847 15.7899 33.5 17.5M29.6838 13.5343C29.6838 13.5343 29.9417 15.3278 30.6514 16.1735C31.3422 16.9969 33.5 17.5 33.5 17.5" stroke="#F39324" stroke-width="1.4" stroke-linecap="round"/>
<path d="M35.0155 11.9082C35.0761 11.2874 34.4413 10.8459 33.8664 11.0853C33.0725 11.4158 31.9732 11.8456 30.7738 12.2323C30.7738 12.2323 31.0478 14.1793 31.8018 15.0974C32.5358 15.9912 34.3261 16.6425 34.3261 16.6425C34.6948 14.7861 34.9041 13.0512 35.0155 11.9082Z" fill="#161616"/>
<path d="M13.2041 28.5845C16.4256 29.5117 17.7708 25.7359 17.7151 22.3388C17.688 20.6897 17.4914 18.378 17.2963 16.4357C17.0895 14.3768 16.8842 12.733 16.8842 12.733C16.8842 12.733 9.49621 16.0003 8.80329 20.2618C8.28183 23.4688 10.0871 27.6874 13.2041 28.5845Z" fill="#161616"/>
<path d="M16.8842 12.733C16.8842 12.733 9.49621 16.0003 8.80329 20.2618C8.28183 23.4688 10.0871 27.6874 13.2041 28.5845C16.4256 29.5117 17.7708 25.7359 17.7151 22.3388C17.688 20.6897 17.4914 18.378 17.2963 16.4357C17.0895 14.3768 16.8842 12.733 16.8842 12.733ZM16.8842 12.733L18.3704 12.3071C18.7297 12.2042 19.1093 12.2014 19.4723 12.2901C20.7415 12.6 23.927 13.3077 26.1687 13.2048C27.5885 13.1396 29.2608 12.7202 30.7738 12.2323M41.9796 26.943C42.7841 24.2084 42.8582 22.2045 42.3908 19.0117C41.8509 15.3236 38.6898 10.1532 38.6898 10.1532C32.1609 0.913859 19.5395 -1.27041 10.318 5.27114C4.22473 9.59359 1.20466 16.6455 1.74044 23.5981C2.01552 27.1675 3.22781 30.7107 5.44265 33.845C11.8768 42.9502 24.3705 45.2063 33.5576 39.0091C33.7682 38.8671 33.7916 38.5667 33.6083 38.3908L27.0328 32.079C26.1731 31.2225 26.2303 29.8052 27.1162 28.9759C28.7122 27.4817 31.0374 25.1121 32.2391 22.9741C33.2275 21.2157 33.8889 18.8437 34.3261 16.6425M41.9796 26.943C41.8088 27.5235 41.6006 28.3337 41.3628 28.9759C40.7832 30.5408 39.5694 32.5091 38.8494 33.6121C38.4816 34.1756 37.9683 34.6406 37.3216 34.8268C36.7997 34.977 36.1682 35.0745 35.7084 34.8743C34.8394 34.496 34.395 33.8863 34.2692 32.9173C33.9614 30.5481 36.5312 28.6308 38.7852 27.767C40.1291 27.252 41.9796 26.943 41.9796 26.943ZM30.7738 12.2323C31.9732 11.8456 33.0725 11.4158 33.8664 11.0853C34.4413 10.8459 35.0761 11.2874 35.0155 11.9082C34.9041 13.0512 34.6948 14.7861 34.3261 16.6425M30.7738 12.2323C30.7738 12.2323 31.0478 14.1793 31.8018 15.0974C32.5358 15.9912 34.3261 16.6425 34.3261 16.6425" stroke="#161616" stroke-width="1.4" stroke-linecap="round"/>
<path d="M22.5513 18.8343C22.5513 18.8343 22.4789 17.6836 22.8343 17.4487C23.1898 17.2139 24.2199 17.7317 24.2199 17.7317" stroke="#161616" stroke-width="1.4" stroke-linecap="round"/>
</g>
<defs>
<clipPath id="clip0_1728_11114">
<rect width="44" height="44" fill="white"/>
</clipPath>
</defs>
</svg>
