<svg width="32" height="32" viewBox="0 0 32 32" fill="none" xmlns="http://www.w3.org/2000/svg">
<path d="M12.4493 29.6959L12.4683 26.6093L14.4501 4.75686L14.458 2.67806C14.4588 2.48646 14.2896 2.33095 14.0797 2.33014L2.66582 2.2866C2.56482 2.28622 2.46825 2.32223 2.39699 2.3871C2.32574 2.45196 2.28516 2.53981 2.28481 2.63162L2.2783 4.7378L4.09194 26.577L4.08017 29.6633C4.07944 29.8549 4.24857 30.0104 4.45854 30.0112L12.0683 30.0402C12.2779 30.041 12.4482 29.8871 12.4493 29.6959ZM4.82384 26.2187L3.06388 5.03842L13.6603 5.07884L11.7395 26.2451L4.82384 26.2187ZM13.6977 3.02163L13.6933 4.38602L3.03804 4.34537L3.04287 2.98099L13.6977 3.02163ZM7.07535 29.3282C7.21011 28.8378 7.69485 28.4727 8.27312 28.4749C8.85139 28.4771 9.33371 28.8455 9.46435 29.3373L7.07535 29.3282ZM10.2336 29.3403C10.0934 28.4646 9.27435 27.7858 8.27576 27.782C7.27718 27.7782 6.45333 28.4507 6.30609 29.3253L4.84049 29.3197L4.84968 26.9118L11.7065 26.9379L11.692 29.3458L10.2336 29.3403Z" fill="#161616"/>
<path d="M27.4459 7.40071C27.0884 7.16618 26.769 6.99103 26.4875 6.83681C25.7486 6.43139 25.4167 6.24061 25.3756 5.57696C25.8215 5.53812 26.1736 5.19923 26.1752 4.78208L26.1813 3.18106C26.183 2.73689 25.788 2.37367 25.3012 2.37181L20.3095 2.35277C19.8227 2.35091 19.4249 2.71111 19.4232 3.15528L19.4171 4.7563C19.4154 5.20047 19.8104 5.5637 20.2972 5.56555L20.3412 5.56572C20.2864 6.19748 19.971 6.3657 19.2345 6.74297C18.9438 6.89188 18.6144 7.0604 18.2387 7.29249C16.7354 8.2198 15.8699 9.56739 15.8645 10.9886L15.7963 28.8476C15.7938 29.5124 16.5116 30.0557 17.3974 30.0591L28.0026 30.0995C28.888 30.1029 29.6103 29.5648 29.6129 28.9003L29.681 11.0417C29.6855 9.66132 28.8712 8.3347 27.4459 7.40071ZM20.1761 4.7592L20.1822 3.15818C20.1825 3.09581 20.2381 3.04544 20.3064 3.0457L25.2982 3.06474C25.3666 3.065 25.4218 3.1158 25.4216 3.17816L25.4155 4.77919C25.4152 4.84155 25.3596 4.89192 25.2912 4.89166L20.2998 4.87262C20.2315 4.87236 20.1759 4.82156 20.1761 4.7592ZM28.8787 22.0928L16.5813 22.0459L16.6179 12.4442L28.9153 12.4911L28.8787 22.0928ZM28.0048 29.4069L17.3997 29.3665C16.941 29.3647 16.5543 29.1283 16.5553 28.8508L16.5786 22.7388L28.876 22.7857L28.8527 28.8977C28.8517 29.1753 28.4635 29.4087 28.0048 29.4069ZM28.9179 11.7982L16.6206 11.7513L16.6235 10.9918C16.628 9.80277 17.3716 8.66398 18.6641 7.86683C19.0138 7.65092 19.3285 7.48963 19.6066 7.3476C20.4268 6.92734 21.0328 6.61644 21.1044 5.56898L24.6192 5.58239C24.6752 6.63865 25.303 6.99583 26.0968 7.43056C26.3658 7.57849 26.6712 7.74562 27.0037 7.96343C28.2445 8.77648 28.9257 9.86873 28.9212 11.0384L28.9179 11.7982Z" fill="#161616"/>
<path d="M20.2374 18.7164C20.2326 19.9772 21.3529 21.0073 22.7346 21.0126C24.1167 21.0179 25.2448 19.9963 25.2497 18.7355C25.2545 17.4747 24.1341 16.4445 22.752 16.4392C21.3704 16.434 20.2422 17.4556 20.2374 18.7164ZM22.7494 17.1322C23.7127 17.1359 24.4936 17.8536 24.4903 18.7326C24.4869 19.6116 23.7009 20.3233 22.7372 20.3197C21.7744 20.316 20.9934 19.5983 20.9968 18.7193C21.0001 17.8403 21.7865 17.1285 22.7494 17.1322Z" fill="#161616"/>
<path d="M19.2215 17.8935C19.9019 17.8961 20.4574 17.393 20.4598 16.7722C20.4621 16.1513 19.9105 15.644 19.2301 15.6414C18.5497 15.6388 17.9942 16.1419 17.9918 16.7627C17.9894 17.3836 18.5411 17.8909 19.2215 17.8935ZM19.2274 16.3344C19.489 16.3354 19.7013 16.5305 19.7004 16.7693C19.6995 17.008 19.4857 17.2015 19.2241 17.2005C18.9625 17.1995 18.7503 17.0043 18.7512 16.7656C18.7521 16.5269 18.9655 16.3334 19.2274 16.3344Z" fill="#161616"/>
<path d="M25.0406 16.7901C25.0383 17.4109 25.5899 17.9182 26.2703 17.9208C26.9507 17.9234 27.5062 17.4204 27.5086 16.7995C27.511 16.1786 26.9593 15.6714 26.2789 15.6688C25.5985 15.6662 25.043 16.1692 25.0406 16.7901ZM26.2763 16.3617C26.5379 16.3627 26.7501 16.5579 26.7492 16.7966C26.7483 17.0353 26.5346 17.2289 26.273 17.2279C26.0114 17.2269 25.7991 17.0317 25.8 16.793C25.8009 16.5543 26.0147 16.3607 26.2763 16.3617Z" fill="#161616"/>
<path d="M21.3963 16.1699C21.4559 16.1701 21.5159 16.1655 21.5767 16.1564C21.9126 16.1053 22.2083 15.9076 22.3894 15.6145C22.5575 15.3414 22.6169 15.0076 22.5555 14.6751C22.4238 13.9605 21.7712 13.4612 21.0998 13.565C20.764 13.6161 20.4682 13.8138 20.2875 14.1069C20.1194 14.38 20.06 14.7138 20.1214 15.0463C20.2408 15.6967 20.7922 16.1676 21.3963 16.1699ZM20.9492 14.4473C20.9889 14.3826 21.0774 14.2714 21.2252 14.2487C21.2434 14.246 21.2613 14.2447 21.2795 14.2448C21.516 14.2457 21.7498 14.4815 21.8067 14.7894C21.8387 14.9638 21.8099 15.1407 21.7274 15.2745C21.6877 15.3391 21.5988 15.4503 21.451 15.473C21.1976 15.5122 20.9312 15.2638 20.8702 14.932C20.8379 14.7576 20.8666 14.5807 20.9492 14.4473Z" fill="#161616"/>
<path d="M23.7699 16.1243C23.8719 16.1531 23.9774 16.1677 24.0833 16.1681C24.3161 16.169 24.5525 16.1027 24.7626 15.9739C25.0476 15.799 25.2644 15.5251 25.3738 15.2033C25.608 14.5116 25.2702 13.799 24.6201 13.6153C23.97 13.4313 23.2508 13.8453 23.0161 14.537C22.9071 14.8592 22.9168 15.1967 23.0437 15.4882C23.1799 15.8006 23.4444 16.0327 23.7699 16.1243ZM23.7413 14.7418C23.8366 14.4608 24.0777 14.2629 24.3009 14.2637C24.3328 14.2638 24.3647 14.2681 24.3958 14.2766C24.6412 14.3461 24.7573 14.6764 24.6486 14.9978C24.5914 15.1667 24.4784 15.3128 24.3388 15.3986C24.271 15.4395 24.1367 15.5031 23.9941 15.4624C23.8508 15.4223 23.7795 15.3008 23.7493 15.2321C23.6869 15.0894 23.6841 14.9107 23.7413 14.7418Z" fill="#161616"/>
</svg>
