<svg width="32" height="32" viewBox="0 0 32 32" fill="none" xmlns="http://www.w3.org/2000/svg">
<path d="M31.2682 17.8786L16.0243 0.90917C15.9396 0.815052 15.8173 0.761719 15.6918 0.761719C15.5663 0.761719 15.4439 0.815052 15.3592 0.90917L0.115294 17.8786C-0.0384314 18.048 -0.0384314 18.3052 0.115294 18.4778L2.22353 20.8276C2.30824 20.9217 2.43059 20.9751 2.55608 20.9751H2.71294C2.83843 20.9751 2.96078 20.9217 3.04549 20.8276L4.63922 19.0551L6.9702 30.5217C7.01412 30.7288 7.19608 30.8794 7.40941 30.8794H11.2306H20.1467H23.9741C24.1875 30.8794 24.3694 30.7288 24.4133 30.5217L26.7443 19.0551L28.338 20.8276C28.4227 20.9217 28.5451 20.9751 28.6706 20.9751H28.8274C28.9529 20.9751 29.0753 20.9217 29.16 20.8276L31.2682 18.4778C31.422 18.3084 31.422 18.048 31.2682 17.8786ZM11.6792 29.9853V23.4378C11.6792 21.226 13.48 19.4252 15.6918 19.4252C17.9035 19.4252 19.7043 21.226 19.7043 23.4378V29.9853H11.6792ZM23.6071 29.9853H20.5984V23.4378C20.5984 20.7335 18.3961 18.5311 15.6918 18.5311C12.9875 18.5311 10.7851 20.7335 10.7851 23.4378V29.9853H7.77647L5.38588 18.2237L15.6918 6.75074L18.2361 9.58368L20.8024 12.4386L25.9976 18.2237L23.6071 29.9853ZM28.749 19.946L26.8165 17.7939C26.8165 17.7939 26.8165 17.7939 26.8165 17.7907L21.5929 11.9837L16.0243 5.78446C15.9396 5.69035 15.8173 5.63701 15.6918 5.63701C15.5663 5.63701 15.4439 5.69035 15.3592 5.78446L4.5702 17.7939C4.5702 17.7939 4.5702 17.7939 4.5702 17.797L2.63765 19.9492L1.0502 18.1798L15.6918 1.87858L30.3333 18.1798L28.749 19.946Z" fill="#161616"/>
<path d="M20.0241 15.0835C20.1935 14.8137 20.2751 14.5031 20.2626 14.1831C20.2281 13.3894 19.5786 12.7369 18.7818 12.6961C18.3488 12.6741 17.941 12.8279 17.6304 13.1228C17.3669 13.3737 17.2006 13.7094 17.1567 14.0671H14.2234C14.1355 13.3204 13.5018 12.7243 12.7426 12.693C12.3128 12.6741 11.9081 12.8279 11.5975 13.1259C11.2869 13.4239 11.1175 13.8224 11.1175 14.249C11.1175 14.5439 11.199 14.8294 11.3559 15.0773C11.3747 15.1086 11.3747 15.1494 11.3559 15.1777C11.1865 15.4475 11.1049 15.758 11.1175 16.078C11.152 16.8718 11.8014 17.5243 12.5983 17.5651C13.0281 17.5871 13.439 17.4333 13.7496 17.1384C14.0132 16.8875 14.1794 16.5518 14.2202 16.1941H17.1535C17.2414 16.9408 17.8751 17.5369 18.6375 17.5682C18.6594 17.5682 18.6814 17.5682 18.7033 17.5682C19.1081 17.5682 19.4877 17.4145 19.7826 17.1353C20.09 16.8373 20.2626 16.4388 20.2626 16.0122C20.2626 15.7173 20.181 15.4318 20.0241 15.1839C20.0053 15.1557 20.0053 15.1149 20.0241 15.0835ZM19.1645 16.4922C19.0328 16.6177 18.8602 16.6835 18.6783 16.6773C18.3457 16.6647 18.0602 16.3824 18.0445 16.0498C18.0445 16.0373 18.0445 16.0216 18.0445 16.009C18.0445 15.8177 17.9724 15.642 17.8406 15.5071C17.7088 15.3753 17.5363 15.3031 17.3512 15.3031H14.0414C13.8563 15.3031 13.6806 15.3753 13.5488 15.5071C13.4139 15.642 13.3418 15.8208 13.3418 16.0122C13.3418 16.1941 13.2696 16.3667 13.1347 16.4922C13.003 16.6177 12.8273 16.6835 12.6422 16.6741C12.3096 16.6584 12.0273 16.373 12.0116 16.0435C12.0053 15.9086 12.0398 15.7769 12.112 15.6608C12.3159 15.3408 12.3128 14.9267 12.112 14.6035C12.0461 14.5 12.0116 14.3777 12.0116 14.2522C12.0116 14.0702 12.0837 13.9008 12.2155 13.7722C12.3473 13.6467 12.523 13.5808 12.7049 13.5871C13.0375 13.5996 13.323 13.882 13.3386 14.2145C13.3386 14.2271 13.3386 14.2428 13.3386 14.2553C13.3386 14.4404 13.4077 14.6161 13.5426 14.751C13.6743 14.8859 13.8594 14.9612 14.0477 14.9612H17.3386C17.5237 14.9612 17.6994 14.889 17.8312 14.7573C17.9661 14.6224 18.0383 14.4435 18.0383 14.2522C18.0383 14.0702 18.1104 13.8977 18.2453 13.7722C18.3771 13.6467 18.5528 13.5808 18.7379 13.5902C19.0704 13.6059 19.3528 13.8914 19.3684 14.2239C19.3747 14.3588 19.3402 14.4906 19.2681 14.6067C19.0641 14.9267 19.0673 15.3408 19.2681 15.6639C19.3339 15.7675 19.3684 15.8898 19.3684 16.0153C19.3684 16.1973 19.2963 16.3667 19.1645 16.4922Z" fill="#161616"/>
</svg>
