<svg width="34" height="32" viewBox="0 0 34 32" fill="none" xmlns="http://www.w3.org/2000/svg">
<path d="M6.34937 10.1262L6.802 10.1902L6.34937 10.1262ZM21.8446 2.93189L21.9987 2.50148L21.8446 2.93189ZM32.9441 13.7298L33.3553 13.5301L32.9441 13.7298ZM25.9952 19.1651L25.8463 19.5973L25.9952 19.1651ZM21.8446 15.8447L22.1969 15.5533L21.7883 15.0594L21.4544 15.6066L21.8446 15.8447ZM11.1455 19.903L10.9872 20.3318L11.1455 19.903ZM10.6845 7.63583L10.9828 7.98225L10.6845 7.63583ZM18.7089 8.28147L18.3641 8.58169L18.7089 8.28147ZM18.7089 15.8447L19.0484 16.1508L18.7089 15.8447ZM10.6845 16.2136L10.9887 15.8724L10.6845 16.2136ZM24.8507 29.0942C25.1031 29.0942 25.3078 28.8895 25.3078 28.637C25.3078 28.3845 25.1031 28.1799 24.8507 28.1799V29.0942ZM24.8507 31.2791L24.9229 31.7305L24.8507 31.2791ZM27.0099 28.637L27.4668 28.622L27.0099 28.637ZM23.9796 25.7886C23.7309 25.8322 23.5646 26.0691 23.6081 26.3178C23.6517 26.5665 23.8886 26.7328 24.1373 26.6892L23.9796 25.7886ZM14.869 26.6079L15.1807 26.9423L14.869 26.6079ZM18.4321 26.6079L18.1241 26.9456L18.4321 26.6079ZM18.4321 30.3895L18.113 30.0622L18.4321 30.3895ZM14.7768 30.3895L14.4611 30.7201L14.7768 30.3895ZM19.291 28.637L18.835 28.6045L19.291 28.637ZM27.5976 4.37135L27.2813 4.7014L27.5976 4.37135ZM25.502 15.1028L25.1391 15.3808L25.502 15.1028ZM28.4888 15.2331L28.1514 14.9246L28.4888 15.2331ZM25.3615 3.28082L25.0407 2.95512L25.3615 3.28082ZM26.4518 3.27336L26.7681 2.94331L26.4518 3.27336ZM23.6797 10.2524L23.3871 9.9012L23.6797 10.2524ZM6.802 10.1902C7.53307 5.02699 12.5622 2.14934 17.944 2.46591L17.9977 1.5532C12.327 1.21964 6.71783 4.26308 5.89674 10.0621L6.802 10.1902ZM17.944 2.46591C19.4264 2.55311 20.231 2.83997 21.6906 3.36231L21.9987 2.50148C20.53 1.9759 19.6201 1.64863 17.9977 1.5532L17.944 2.46591ZM32.5329 13.9295C32.6859 14.2446 32.6911 14.7779 32.4571 15.449C32.229 16.1031 31.797 16.8144 31.1996 17.4292C30.0081 18.6555 28.219 19.4475 26.144 18.7329L25.8463 19.5973C28.339 20.4559 30.4843 19.4774 31.8553 18.0664C32.5392 17.3626 33.0455 16.5384 33.3204 15.75C33.5894 14.9786 33.6623 14.1622 33.3553 13.5301L32.5329 13.9295ZM26.144 18.7329C25.2608 18.4287 24.2829 17.6579 23.4972 16.9185C23.1115 16.5555 22.7849 16.2125 22.5549 15.9604C22.44 15.8344 22.3496 15.7315 22.2883 15.6606C22.2577 15.6252 22.2343 15.5978 22.2189 15.5795C22.2112 15.5704 22.2054 15.5635 22.2017 15.5591C22.1999 15.5569 22.1985 15.5553 22.1977 15.5543C22.1973 15.5538 22.197 15.5535 22.1969 15.5533C22.1968 15.5532 22.1968 15.5532 22.1968 15.5532C22.1968 15.5532 22.1968 15.5532 22.1968 15.5532C22.1968 15.5532 22.1969 15.5533 21.8446 15.8447C21.4924 16.1361 21.4925 16.1361 21.4925 16.1362C21.4926 16.1363 21.4926 16.1363 21.4927 16.1364C21.4928 16.1366 21.493 16.1368 21.4932 16.137C21.4936 16.1375 21.4941 16.1381 21.4947 16.1389C21.496 16.1404 21.4979 16.1426 21.5002 16.1455C21.5049 16.1511 21.5117 16.1592 21.5205 16.1696C21.5381 16.1904 21.5637 16.2204 21.5967 16.2586C21.6627 16.335 21.7585 16.444 21.8794 16.5765C22.121 16.8413 22.464 17.2017 22.8706 17.5843C23.6696 18.3361 24.767 19.2256 25.8463 19.5973L26.144 18.7329ZM21.8446 15.8447C21.4544 15.6066 21.4545 15.6064 21.4546 15.6063C21.4546 15.6063 21.4546 15.6062 21.4547 15.6061C21.4547 15.6061 21.4546 15.6062 21.4545 15.6063C21.4543 15.6067 21.4539 15.6074 21.4532 15.6084C21.4519 15.6106 21.4496 15.6143 21.4463 15.6195C21.4398 15.6298 21.4295 15.646 21.4154 15.6676C21.3872 15.7108 21.344 15.7754 21.2861 15.8579C21.1702 16.0228 20.9959 16.2582 20.7656 16.5344C20.304 17.0878 19.6231 17.7982 18.7443 18.4321C16.9948 19.6939 14.4786 20.6461 11.3038 19.4741L10.9872 20.3318C14.5235 21.6372 17.3568 20.5602 19.2792 19.1736C20.2362 18.4832 20.9718 17.7146 21.4677 17.12C21.7162 16.8221 21.9058 16.5663 22.0342 16.3835C22.0985 16.292 22.1475 16.2187 22.181 16.1673C22.1978 16.1416 22.2107 16.1214 22.2197 16.1072C22.2242 16.1001 22.2277 16.0944 22.2302 16.0903C22.2315 16.0883 22.2325 16.0866 22.2333 16.0854C22.2337 16.0848 22.234 16.0842 22.2343 16.0838C22.2344 16.0836 22.2345 16.0833 22.2346 16.0832C22.2347 16.083 22.2349 16.0828 21.8446 15.8447ZM11.3038 19.4741C7.51839 18.0768 6.22159 14.2894 6.802 10.1902L5.89674 10.0621C5.28473 14.3844 6.63262 18.7244 10.9872 20.3318L11.3038 19.4741ZM10.9828 7.98225C13.1669 6.10156 16.4579 6.39276 18.3641 8.58169L19.0536 7.98125C16.8305 5.42849 12.9668 5.06733 10.3862 7.28942L10.9828 7.98225ZM18.3641 8.58169C20.1585 10.6423 20.1857 13.5239 18.3693 15.5386L19.0484 16.1508C21.1875 13.7781 21.1386 10.3755 19.0536 7.98125L18.3641 8.58169ZM18.3693 15.5386C16.444 17.6742 13.1503 17.7994 10.9887 15.8724L10.3803 16.5548C12.902 18.8029 16.7727 18.675 19.0484 16.1508L18.3693 15.5386ZM10.9887 15.8724C8.68651 13.82 8.66187 9.98078 10.9828 7.98225L10.3862 7.28942C7.63033 9.66248 7.68162 14.149 10.3803 16.5548L10.9887 15.8724ZM25.3912 10.602L28.0029 12.7689L28.5867 12.0653L25.975 9.8984L25.3912 10.602ZM25.865 14.8249L23.8018 12.1305L23.0759 12.6864L25.1391 15.3808L25.865 14.8249ZM6.34937 10.1262C5.9776 9.86014 5.97758 9.86016 5.97755 9.8602C5.97753 9.86023 5.97749 9.86028 5.97745 9.86034C5.97736 9.86047 5.97723 9.86064 5.97707 9.86087C5.97674 9.86133 5.97626 9.862 5.97563 9.86288C5.97438 9.86464 5.97253 9.86723 5.9701 9.87064C5.96523 9.87745 5.95805 9.88752 5.94868 9.90068C5.92993 9.927 5.90242 9.9657 5.86717 10.0155C5.79669 10.115 5.69524 10.2587 5.5711 10.4362C5.3229 10.7911 4.98357 11.2813 4.6193 11.8225C3.89707 12.8954 3.05589 14.1989 2.64554 15.0378L3.46685 15.4396C3.84516 14.6661 4.65056 13.4133 5.37775 12.333C5.73819 11.7976 6.07429 11.312 6.32032 10.9602C6.4433 10.7844 6.54369 10.6421 6.61325 10.5439C6.64803 10.4948 6.67509 10.4568 6.69342 10.431C6.70258 10.4182 6.70956 10.4084 6.71422 10.4019C6.71655 10.3986 6.71831 10.3961 6.71946 10.3945C6.72004 10.3937 6.72047 10.3931 6.72075 10.3927C6.72089 10.3925 6.72099 10.3924 6.72106 10.3923C6.72109 10.3922 6.72111 10.3922 6.72113 10.3922C6.72114 10.3922 6.72114 10.3922 6.34937 10.1262ZM21.6906 3.36231C22.5216 3.65967 23.3492 4.08782 24.1574 4.60767L24.652 3.83871C23.7988 3.28991 22.9086 2.82711 21.9987 2.50148L21.6906 3.36231ZM24.7255 4.54888L25.6823 3.60651L25.0407 2.95512L24.0839 3.89749L24.7255 4.54888ZM26.1355 3.60341L27.2813 4.7014L27.9139 4.0413L26.7681 2.94331L26.1355 3.60341ZM24.1574 4.60767C25.0419 5.1766 25.8981 5.85202 26.7039 6.57785L27.3158 5.8985C26.4814 5.147 25.5863 4.43963 24.652 3.83871L24.1574 4.60767ZM26.7039 6.57785C29.5125 9.10752 31.9653 12.7607 32.5329 13.9295L33.3553 13.5301C32.7361 12.255 30.2117 8.5068 27.3158 5.8985L26.7039 6.57785ZM27.3092 5.14064L26.6543 5.95082L27.3654 6.52554L28.0202 5.71537L27.3092 5.14064ZM23.5972 3.57755C24.0532 3.61011 24.0532 3.61004 24.0532 3.60995C24.0532 3.60991 24.0532 3.60982 24.0533 3.60973C24.0533 3.60957 24.0533 3.60936 24.0533 3.60912C24.0533 3.60863 24.0534 3.60798 24.0534 3.60718C24.0535 3.60558 24.0537 3.60337 24.0539 3.60055C24.0543 3.59492 24.0548 3.58689 24.0554 3.57662C24.0567 3.55607 24.0584 3.52651 24.0603 3.48915C24.0641 3.41447 24.0686 3.30833 24.0716 3.18038C24.0775 2.9256 24.0776 2.57932 24.0533 2.22075C24.0294 1.86723 23.9802 1.47788 23.8785 1.14734C23.7877 0.852289 23.6068 0.441171 23.2043 0.290254L22.8833 1.14633C22.8498 1.13376 22.9225 1.14922 23.0046 1.41623C23.0759 1.64774 23.119 1.9559 23.1411 2.28261C23.1629 2.60428 23.1631 2.92092 23.1575 3.15902C23.1547 3.27751 23.1506 3.37529 23.1472 3.44293C23.1455 3.47672 23.1439 3.50292 23.1429 3.52034C23.1423 3.52905 23.1419 3.53555 23.1416 3.53971C23.1415 3.54179 23.1414 3.54328 23.1413 3.54417C23.1413 3.54461 23.1413 3.5449 23.1413 3.54504C23.1413 3.54511 23.1413 3.54514 23.1413 3.54513C23.1413 3.54512 23.1413 3.54509 23.1413 3.54509C23.1413 3.54504 23.1413 3.54499 23.5972 3.57755ZM23.2043 0.290254C23.008 0.216644 22.7689 0.222047 22.5745 0.238895C22.3592 0.257558 22.109 0.300194 21.8451 0.3561C21.3159 0.468214 20.6903 0.642662 20.0977 0.822769C19.5031 1.00346 18.933 1.19256 18.512 1.33625C18.3014 1.40816 18.1277 1.46885 18.0064 1.51162C17.9458 1.53302 17.8983 1.54994 17.8658 1.56155C17.8495 1.56736 17.8371 1.57184 17.8286 1.5749C17.8243 1.57642 17.8211 1.57759 17.8189 1.57839C17.8178 1.57879 17.8169 1.5791 17.8163 1.57931C17.816 1.57942 17.8158 1.5795 17.8156 1.57956C17.8155 1.57959 17.8155 1.57961 17.8154 1.57963C17.8154 1.57965 17.8153 1.57966 17.9708 2.00955C18.1263 2.43944 18.1263 2.43944 18.1263 2.43944C18.1263 2.43943 18.1264 2.43942 18.1264 2.4394C18.1265 2.43937 18.1267 2.43931 18.1269 2.43922C18.1274 2.43906 18.1281 2.43879 18.1291 2.43844C18.131 2.43773 18.134 2.43666 18.138 2.43523C18.146 2.43236 18.1579 2.42808 18.1736 2.42247C18.205 2.41125 18.2513 2.39476 18.3106 2.37381C18.4294 2.33192 18.6001 2.27227 18.8074 2.20151C19.2224 2.05986 19.7821 1.87426 20.3635 1.69755C20.9469 1.52025 21.5434 1.35459 22.0346 1.25053C22.2809 1.19835 22.4905 1.16389 22.6534 1.14977C22.8374 1.13383 22.8951 1.15076 22.8833 1.14633L23.2043 0.290254ZM6.82769 29.0926C8.51135 29.2329 10.3029 29.2326 11.6686 29.1978C12.3526 29.1804 12.9321 29.1542 13.3411 29.1324C13.5456 29.1215 13.7075 29.1117 13.8187 29.1046C13.8742 29.101 13.9171 29.0981 13.9462 29.0961C13.9608 29.0951 13.9719 29.0943 13.9795 29.0938C13.9833 29.0935 13.9862 29.0933 13.9882 29.0932C13.9892 29.0931 13.99 29.093 13.9905 29.093C13.9908 29.093 13.991 29.093 13.9911 29.093C13.9912 29.093 13.9913 29.0929 13.9913 29.0929C13.9914 29.0929 13.9914 29.0929 13.958 28.637C13.9245 28.1811 13.9246 28.1811 13.9246 28.1811C13.9245 28.1811 13.9245 28.1811 13.9245 28.1811C13.9244 28.1811 13.9243 28.1811 13.9241 28.1811C13.9237 28.1812 13.9231 28.1812 13.9223 28.1813C13.9206 28.1814 13.9181 28.1816 13.9146 28.1818C13.9077 28.1823 13.8973 28.183 13.8834 28.184C13.8557 28.1859 13.8142 28.1887 13.7602 28.1922C13.6521 28.1991 13.4934 28.2087 13.2924 28.2194C12.8903 28.2409 12.3194 28.2666 11.6453 28.2838C10.2949 28.3182 8.54033 28.3179 6.90362 28.1815L6.82769 29.0926ZM21.9714 29.0942H24.8507V28.1799H21.9714V29.0942ZM21.9714 28.637C21.5339 28.5047 21.5338 28.5049 21.5337 28.5051C21.5337 28.5052 21.5336 28.5055 21.5336 28.5056C21.5335 28.5059 21.5334 28.5063 21.5333 28.5066C21.5331 28.5073 21.5329 28.508 21.5327 28.5088C21.5322 28.5103 21.5317 28.512 21.5312 28.5138C21.5302 28.5175 21.529 28.5217 21.5277 28.5266C21.5251 28.5363 21.5221 28.5484 21.5188 28.5628C21.5123 28.5917 21.5047 28.6298 21.4979 28.6765C21.4842 28.7701 21.4731 28.8984 21.478 29.0565C21.4879 29.3741 21.5621 29.8052 21.8006 30.3085L22.6268 29.917C22.445 29.5333 22.398 29.2266 22.3919 29.0281C22.3888 28.928 22.396 28.8537 22.4025 28.8092C22.4058 28.7869 22.4089 28.7721 22.4104 28.7653C22.4112 28.7618 22.4116 28.7604 22.4114 28.7611C22.4113 28.7614 22.4111 28.7623 22.4107 28.7636C22.4105 28.7643 22.4103 28.7652 22.41 28.7661C22.4098 28.7666 22.4097 28.7671 22.4095 28.7676C22.4095 28.7679 22.4094 28.7682 22.4093 28.7685C22.4092 28.7686 22.4092 28.7688 22.4091 28.7689C22.4091 28.7691 22.409 28.7694 21.9714 28.637ZM21.8006 30.3085C22.3324 31.4306 23.7014 31.9261 24.9229 31.7305L24.7784 30.8277C23.833 30.9791 22.9357 30.5688 22.6268 29.917L21.8006 30.3085ZM24.9229 31.7305C26.4669 31.4832 27.5177 30.1747 27.4668 28.622L26.553 28.652C26.5891 29.7546 25.8576 30.6548 24.7784 30.8277L24.9229 31.7305ZM27.4668 28.622C27.409 26.8599 25.7162 25.4845 23.9796 25.7886L24.1373 26.6892C25.3263 26.481 26.5134 27.4455 26.553 28.652L27.4668 28.622ZM15.1807 26.9423C15.6465 26.5082 16.1558 26.3131 16.6455 26.3143C17.1361 26.3154 17.6506 26.5138 18.1241 26.9456L18.7402 26.2701C18.1225 25.7068 17.3957 25.4018 16.6476 25.4C15.8986 25.3982 15.1719 25.7007 14.5574 26.2734L15.1807 26.9423ZM18.113 30.0622C17.6488 30.5149 17.1207 30.7213 16.6097 30.7201C16.0978 30.719 15.5644 30.5093 15.0924 30.0588L14.4611 30.7201C15.0835 31.3142 15.8362 31.6327 16.6076 31.6344C17.38 31.6362 18.1324 31.3203 18.7513 30.7167L18.113 30.0622ZM15.0924 30.0588C14.6079 29.5963 14.398 29.0444 14.4151 28.508C14.4323 27.9685 14.6806 27.4083 15.1807 26.9423L14.5574 26.2734C13.8979 26.8879 13.527 27.6714 13.5013 28.4789C13.4755 29.2897 13.7993 30.0884 14.4611 30.7201L15.0924 30.0588ZM18.1241 26.9456C18.6565 27.4312 18.8762 28.0273 18.835 28.6045L19.747 28.6696C19.8092 27.7978 19.4676 26.9336 18.7402 26.2701L18.1241 26.9456ZM18.835 28.6045C18.7993 29.1048 18.5653 29.6211 18.113 30.0622L18.7513 30.7168C19.3481 30.1347 19.6938 29.4144 19.747 28.6696L18.835 28.6045ZM21.9714 28.1799H19.291V29.0942H21.9714V28.1799ZM6.90362 28.1815C3.85863 27.9277 2.17598 25.697 1.4986 22.7552L0.607628 22.9603C1.3337 26.1137 3.23192 28.7929 6.82769 29.0926L6.90362 28.1815ZM1.4986 22.7552C1.17575 21.353 1.45022 19.9487 1.92443 18.6689C2.40415 17.3741 3.05104 16.2897 3.46685 15.4396L2.64554 15.0378C2.2727 15.8001 1.56719 17.0015 1.0671 18.3512C0.561492 19.7158 0.228754 21.3149 0.607628 22.9603L1.4986 22.7552ZM27.2813 4.7014C27.4033 4.81832 27.4154 5.00921 27.3092 5.14064L28.0202 5.71537C28.4251 5.21446 28.3789 4.48693 27.9139 4.0413L27.2813 4.7014ZM28.1514 14.9246C27.5244 15.6104 26.4299 15.5626 25.865 14.8249L25.1391 15.3808C26.0501 16.5705 27.8151 16.6474 28.8262 15.5415L28.1514 14.9246ZM28.0029 12.7689C28.6589 13.3132 28.7266 14.2955 28.1514 14.9246L28.8262 15.5415C29.7537 14.527 29.6446 12.943 28.5867 12.0653L28.0029 12.7689ZM25.6823 3.60651C25.8077 3.48304 26.0085 3.48166 26.1355 3.60341L26.7681 2.94331C26.284 2.4793 25.5185 2.48453 25.0407 2.95512L25.6823 3.60651ZM23.9724 10.6036C24.3832 10.2613 24.9797 10.2606 25.3912 10.602L25.975 9.8984C25.2244 9.27563 24.1364 9.27681 23.3871 9.9012L23.9724 10.6036ZM23.3871 9.9012C22.5533 10.596 22.416 11.8247 23.0759 12.6864L23.8018 12.1305C23.44 11.6581 23.5153 10.9845 23.9724 10.6036L23.3871 9.9012Z" fill="#161616"/>
</svg>
