<svg width="64" height="64" viewBox="0 0 64 64" fill="none" xmlns="http://www.w3.org/2000/svg">
<path d="M39.8853 5.50317L47.5328 23.2871H42.113L35.318 7.46954C35.0572 6.86387 35.0477 6.17942 35.2916 5.56677C35.5355 4.95411 36.0127 4.46343 36.6184 4.20266C37.2241 3.9419 37.9085 3.93242 38.5212 4.1763C39.1338 4.42018 39.6245 4.8975 39.8853 5.50317ZM21.8897 23.2871L28.6847 7.46954C28.9445 6.86404 28.9533 6.1802 28.7093 5.56821C28.4652 4.95622 27.9882 4.46613 27.383 4.20559C26.7779 3.94505 26.094 3.93537 25.4817 4.17866C24.8694 4.42196 24.3787 4.89834 24.1174 5.50317L16.4699 23.2871H21.8897ZM57.2025 26.3984H6.80013C6.05749 26.3984 5.34527 26.6934 4.82014 27.2185C4.29501 27.7437 4 28.4559 4 29.1985C4 29.9412 4.29501 30.6534 4.82014 31.1785C5.34527 31.7036 6.05749 31.9987 6.80013 31.9987H57.2025C57.9452 31.9987 58.6574 31.7036 59.1825 31.1785C59.7077 30.6534 60.0027 29.9412 60.0027 29.1985C60.0027 28.4559 59.7077 27.7437 59.1825 27.2185C58.6574 26.6934 57.9452 26.3984 57.2025 26.3984ZM13.452 58.0275L8.48021 34.2388H55.5225L50.5507 58.0275C50.4337 58.5847 50.1287 59.0848 49.6869 59.4439C49.245 59.803 48.6932 59.9993 48.1239 60H15.8788C15.3094 59.9993 14.7576 59.803 14.3158 59.4439C13.874 59.0848 13.569 58.5847 13.452 58.0275ZM39.5419 56.344C39.6058 56.354 39.6704 56.3591 39.7351 56.3592C40.0317 56.3587 40.3184 56.2523 40.5436 56.0591C40.7687 55.866 40.9175 55.5989 40.9632 55.3058L43.4522 39.3159C43.503 38.9897 43.4221 38.6567 43.2273 38.3902C43.0326 38.1236 42.7399 37.9454 42.4137 37.8946C42.0875 37.8438 41.7545 37.9247 41.488 38.1195C41.2214 38.3142 41.0431 38.6069 40.9924 38.9331L38.5034 54.923C38.4782 55.0844 38.4852 55.2493 38.5238 55.4081C38.5623 55.567 38.6318 55.7166 38.7283 55.8486C38.8247 55.9805 38.9462 56.0922 39.0858 56.1772C39.2254 56.2622 39.3804 56.3189 39.5419 56.344ZM20.5504 39.3159L23.0395 55.3058C23.0851 55.5989 23.2339 55.866 23.4591 56.0592C23.6842 56.2523 23.9709 56.3587 24.2676 56.3592C24.3323 56.3591 24.3969 56.354 24.4608 56.344C24.6223 56.3189 24.7773 56.2622 24.9169 56.1772C25.0565 56.0922 25.178 55.9806 25.2744 55.8486C25.3708 55.7167 25.4403 55.567 25.4789 55.4082C25.5175 55.2493 25.5245 55.0845 25.4993 54.923L23.0103 38.9331C22.9593 38.6072 22.7809 38.3148 22.5144 38.1203C22.2479 37.9258 21.9152 37.8451 21.5892 37.8958C21.2632 37.9466 20.9707 38.1246 20.7759 38.3909C20.5812 38.6572 20.5 38.9899 20.5504 39.3159Z" fill="#F39324"/>
</svg>
