<svg width="21" height="21" viewBox="0 0 21 21" fill="none" xmlns="http://www.w3.org/2000/svg">
<g clip-path="url(#clip0_5248_10408)">
<path d="M19.7988 10.1113C19.7988 15.4616 15.4616 19.7988 10.1113 19.7988C4.76105 19.7988 0.423828 15.4616 0.423828 10.1113C0.423828 4.76106 4.76105 0.423828 10.1113 0.423828C15.4616 0.423828 19.7988 4.76106 19.7988 10.1113ZM8.99078 15.2408L16.1783 8.05328C16.4223 7.80922 16.4223 7.41348 16.1783 7.16941L15.2944 6.28555C15.0504 6.04145 14.6546 6.04145 14.4105 6.28555L8.54883 12.1472L5.81215 9.41051C5.56809 9.16645 5.17234 9.16645 4.92824 9.41051L4.04437 10.2944C3.80031 10.5384 3.80031 10.9342 4.04437 11.1782L8.10688 15.2407C8.35098 15.4848 8.74668 15.4848 8.99078 15.2408Z" fill="#389B48"/>
</g>
<defs>
<clipPath id="clip0_5248_10408">
<rect width="20" height="20" fill="white" transform="translate(0.111206 0.111328)"/>
</clipPath>
</defs>
</svg>
