<svg width="33" height="33" viewBox="0 0 33 33" fill="none" xmlns="http://www.w3.org/2000/svg">
<path d="M21.5835 21.8332L24.2502 24.4998L29.5835 19.1665" stroke="#787878" stroke-width="2" stroke-linecap="round" stroke-linejoin="round"/>
<path d="M28.25 13.8334V11.1667C28.2495 10.6991 28.1261 10.2398 27.8921 9.83492C27.658 9.43005 27.3217 9.09385 26.9167 8.86003L17.5833 3.5267C17.1779 3.29265 16.7181 3.16943 16.25 3.16943C15.7819 3.16943 15.3221 3.29265 14.9167 3.5267L5.58333 8.86003C5.17835 9.09385 4.84197 9.43005 4.60795 9.83492C4.37392 10.2398 4.25048 10.6991 4.25 11.1667V21.8334C4.25048 22.301 4.37392 22.7603 4.60795 23.1651C4.84197 23.57 5.17835 23.9062 5.58333 24.14L14.9167 29.4734C15.3221 29.7074 15.7819 29.8306 16.25 29.8306C16.7181 29.8306 17.1779 29.7074 17.5833 29.4734L20.25 27.9534" stroke="#787878" stroke-width="2" stroke-linecap="round" stroke-linejoin="round"/>
<path d="M10.25 6.19336L22.25 13.06" stroke="#787878" stroke-width="2" stroke-linecap="round" stroke-linejoin="round"/>
<path d="M4.63672 9.8335L16.2501 16.5002L27.8634 9.8335" stroke="#787878" stroke-width="2" stroke-linecap="round" stroke-linejoin="round"/>
<path d="M16.25 29.8333V16.5" stroke="#787878" stroke-width="2" stroke-linecap="round" stroke-linejoin="round"/>
</svg>
