<svg width="64" height="64" viewBox="0 0 64 64" fill="none" xmlns="http://www.w3.org/2000/svg">
<path d="M48.383 59.4484C47.7268 59.4676 47.0746 59.3396 46.4744 59.0737C45.8741 58.8079 45.341 58.4109 44.9143 57.9121C44.4875 57.4132 44.1779 56.8251 44.0082 56.191C43.8385 55.5568 43.813 54.8926 43.9335 54.2473C44.1689 52.8247 44.8913 51.528 45.9772 50.5793C47.063 49.6305 48.4449 49.0885 49.8862 49.0461C50.5424 49.0269 51.1946 49.155 51.7949 49.4208C52.3951 49.6867 52.9282 50.0836 53.355 50.5825C53.7818 51.0814 54.0914 51.6695 54.2611 52.3037C54.4308 52.9378 54.4563 53.602 54.3358 54.2473C54.1004 55.6699 53.3779 56.9666 52.2921 57.9153C51.2062 58.8641 49.8244 59.406 48.383 59.4484ZM18.6702 54.2473C18.7908 53.602 18.7653 52.9378 18.5955 52.3037C18.4258 51.6695 18.1162 51.0814 17.6894 50.5825C17.2627 50.0837 16.7296 49.6867 16.1293 49.4209C15.5291 49.155 14.8769 49.027 14.2207 49.0461C12.7793 49.0885 11.3975 49.6305 10.3116 50.5793C9.22577 51.528 8.50335 52.8247 8.26798 54.2473C8.14743 54.8926 8.17295 55.5568 8.34267 56.1909C8.51239 56.8251 8.822 57.4132 9.24877 57.9121C9.67553 58.4109 10.2086 58.8078 10.8089 59.0737C11.4091 59.3396 12.0613 59.4676 12.7175 59.4484C14.1588 59.406 15.5406 58.8641 16.6265 57.9153C17.7124 56.9666 18.4348 55.6699 18.6702 54.2473ZM0.0223184 32.9334C0.0969743 32.4167 0.355307 31.9442 0.74999 31.6024C1.14467 31.2607 1.64928 31.0726 2.17136 31.0726H22.2675C22.5208 31.0726 22.7714 31.0194 23.0029 30.9164C23.2344 30.8134 23.4417 30.663 23.6114 30.4749C23.7811 30.2867 23.9093 30.0651 23.9879 29.8242C24.0665 29.5833 24.0937 29.3287 24.0676 29.0766C24.0046 28.6198 23.7759 28.2021 23.4251 27.9028C23.0742 27.6036 22.6256 27.4437 22.1645 27.4537L7.54486 27.3869C7.25939 27.3874 6.97661 27.3316 6.71272 27.2227C6.44882 27.1139 6.20899 26.954 6.00694 26.7523C5.8049 26.5506 5.64461 26.3111 5.53524 26.0474C5.42587 25.7837 5.36958 25.501 5.36958 25.2156C5.36958 24.9301 5.42587 24.6474 5.53524 24.3837C5.64461 24.12 5.8049 23.8805 6.00694 23.6788C6.20899 23.4771 6.44882 23.3172 6.71272 23.2084C6.97661 23.0995 7.25939 23.0437 7.54486 23.0442L30.9529 23.111C31.2063 23.1109 31.4568 23.0577 31.6883 22.9548C31.9198 22.8518 32.1271 22.7014 32.2968 22.5133C32.4665 22.3251 32.5948 22.1034 32.6734 21.8626C32.752 21.6217 32.7791 21.367 32.753 21.115C32.69 20.6582 32.4613 20.2404 32.1105 19.9412C31.7596 19.642 31.311 19.4821 30.8499 19.492H7.30366L7.52516 17.9591C7.65904 17.15 8.06993 16.4126 8.68752 15.873C9.30511 15.3334 10.091 15.0252 10.9108 15.0011H46.9015C47.2748 14.9901 47.6457 15.063 47.9871 15.2142C48.3285 15.3654 48.6316 15.5911 48.8744 15.8748C49.1171 16.1585 49.2932 16.493 49.3897 16.8537C49.4862 17.2144 49.5007 17.5921 49.4322 17.9591L48.3518 25.4352H56.113C56.8404 25.4376 57.55 25.6603 58.1484 26.0738C58.7469 26.4874 59.2061 27.0724 59.4656 27.752L63.5152 38.3001C63.9619 39.4637 64.1029 40.7224 63.9246 41.956L62.5523 51.4521C62.456 52.0348 62.1601 52.5658 61.7154 52.9543C61.2707 53.3429 60.7048 53.5648 60.1146 53.5821H57.0587C57.1389 52.7067 57.0429 51.8241 56.7762 50.9864C56.5096 50.1487 56.0778 49.3729 55.5063 48.7049C54.9348 48.0369 54.2353 47.4902 53.449 47.097C52.6627 46.7039 51.8055 46.4724 50.9282 46.416C46.6578 46.0505 42.3931 49.2589 41.4028 53.5821H21.3939C21.4746 52.7061 21.3789 51.8227 21.1123 50.9843C20.8457 50.1459 20.4136 49.3695 19.8417 48.701C19.2698 48.0325 18.5696 47.4855 17.7826 47.0923C16.9956 46.6991 16.1377 46.4677 15.2597 46.4119C10.9888 46.0484 6.72535 49.2587 5.73726 53.5821H4.5073C4.23856 53.59 3.97148 53.5376 3.72566 53.4287C3.47984 53.3198 3.26153 53.1573 3.08676 52.953C2.91199 52.7487 2.7852 52.5078 2.71569 52.2481C2.64619 51.9884 2.63574 51.7164 2.68512 51.4521L4.4796 39.0342H13.5821C13.8354 39.0342 14.086 38.981 14.3175 38.878C14.549 38.7751 14.7563 38.6247 14.926 38.4365C15.0956 38.2484 15.2239 38.0267 15.3025 37.7858C15.3811 37.545 15.4082 37.2903 15.3822 37.0383C15.3192 36.5814 15.0905 36.1637 14.7396 35.8645C14.3888 35.5652 13.9402 35.4054 13.4791 35.4153H2.17135C1.85997 35.4153 1.55222 35.3483 1.26899 35.2189C0.985769 35.0895 0.733689 34.9007 0.529856 34.6653C0.326023 34.4299 0.175205 34.1534 0.0876341 33.8546C6.30167e-05 33.5558 -0.0222126 33.2416 0.0223184 32.9334ZM46.2417 40.0375L61.2737 40.0686L56.9763 28.6922C56.9095 28.5172 56.7912 28.3666 56.6371 28.2602C56.483 28.1538 56.3003 28.0965 56.113 28.0959H47.9673L46.2417 40.0375Z" fill="#F39324"/>
</svg>
