<svg width="120" height="63" viewBox="0 0 120 63" fill="none" xmlns="http://www.w3.org/2000/svg">
<path d="M14.9333 0.684392C14.9333 0.809848 14.72 0.921365 14.3733 0.977123C14.0533 1.01894 13.44 1.18622 13 1.35349C9.53333 2.5523 6.8 5.43779 5.74667 8.99238C5.09333 11.2088 5.06667 11.6688 5.06667 20.5344C5.06667 26.835 5.02667 28.912 4.90667 29.0375C4.8 29.149 4.04 29.2048 2.37333 29.2048H0V33.1079H2.38667C4.21333 33.1079 4.8 33.1497 4.92 33.2891C5.01333 33.4285 5.08 35.603 5.09333 40.5098L5.13333 47.5353L7.14667 47.5771C8.72 47.605 9.2 47.5771 9.30667 47.4238C9.42667 47.2844 9.48 45.1935 9.49333 40.2031L9.53333 33.1776L22.6 33.0382V29.2745L16.1333 29.2327C12.5867 29.2187 9.62667 29.149 9.57333 29.0933C9.50667 29.0236 9.46667 25.3156 9.46667 20.841C9.46667 12.2961 9.49333 11.9615 10.1067 10.0378C10.72 8.12813 12.0267 6.44144 13.4267 5.71658C15.6 4.61535 18.5733 4.54566 21.0667 5.53537C22.5333 6.13477 23.9733 7.51479 24.72 9.04814L25.24 10.1075L26.2533 10.1354C26.8133 10.1494 27.7067 10.1633 28.24 10.1772C29.4267 10.2051 29.6133 10.0797 29.4667 9.31299C29.04 7.05478 27.2933 4.40626 25.32 2.99836C23.9067 1.98077 22.16 1.2141 20.76 0.977123C20.48 0.935305 20.2133 0.795909 20.1733 0.684392C20.0667 0.391661 14.9333 0.391661 14.9333 0.684392Z" fill="#5A5A5A"/>
<path d="M26.6667 11.8361C25.9067 12.0591 25.36 12.3658 24.8933 12.8258C23.2267 14.4846 23.2267 17.3283 24.88 18.9034C25.8 19.7677 26.24 19.9349 27.6 19.9349C29.0267 19.921 29.6133 19.698 30.4667 18.8198C31.2933 17.9416 31.52 17.3143 31.52 15.8925C31.52 14.5961 31.4133 14.2058 30.7467 13.2718C30.16 12.4494 28.5333 11.613 27.5733 11.6548C27.4 11.6548 27 11.7385 26.6667 11.8361ZM42.2 20.7016C41.2133 20.841 40.4533 21.1059 39.2533 21.6774C35.0267 23.7405 32.2667 28.8563 32.2667 34.6412C32.2667 37.3873 32.68 39.2134 33.8933 41.848C34.5733 43.3116 34.84 43.7298 35.7467 44.7474C37.8667 47.0753 39.7333 48.0929 42.5733 48.4553C45.84 48.8735 49.0667 47.7165 51.4 45.291C51.8267 44.845 52.2 44.5662 52.2933 44.6219C52.5467 44.7892 52.3333 50.6438 52.0267 51.9263C51.72 53.153 51.4267 54.0869 51.1733 54.5748C49.8133 57.1815 47.84 58.3246 44.6667 58.3385C41.9733 58.3385 39.8667 57.3488 38.4933 55.4251C37.5067 54.0451 37.12 53.0833 36.9867 51.6335C36.9333 51.1038 36.8267 50.616 36.7333 50.5323C36.6267 50.4347 35.84 50.3929 34.6533 50.4208L32.7333 50.4626L32.6933 50.9505C32.6667 51.2154 32.7467 51.9681 32.8667 52.6233C33.4267 55.5227 34.24 57.1954 35.9333 58.9797C36.6 59.6628 37.5067 60.4573 37.9467 60.7361C38.84 61.2797 40.5067 61.9767 41.5067 62.2276C42.32 62.4228 46.8667 62.4228 47.6933 62.2276C51.8267 61.21 55 57.9482 56.04 53.6687C56.5867 51.4523 56.5867 51.4663 56.6267 36.4255C56.6667 26.1241 56.64 21.7332 56.5333 21.538C56.4 21.2731 56.2667 21.2592 54.56 21.2592C53.3067 21.2592 52.6667 21.315 52.56 21.4265C52.4533 21.538 52.4 22.0956 52.4 23.0156C52.4 23.9217 52.3467 24.4793 52.2533 24.549C52.1733 24.6047 51.8133 24.312 51.4133 23.8799C50.1733 22.5138 48.7467 21.5938 46.8933 20.9665C45.9467 20.6459 43.4933 20.5065 42.2 20.7016ZM46.4667 25.1205C51.2267 26.6259 53.5067 32.4945 51.64 38.4746C50.9867 40.5795 49.5333 42.4752 47.8667 43.3953C46.6667 44.0644 46.1067 44.1898 44.2 44.1898C42.28 44.1898 41.9867 44.1341 40.7333 43.451C39.4267 42.754 38.04 41.1928 37.36 39.6595C37.1867 39.2413 36.9867 38.7952 36.92 38.6697C36.8667 38.5443 36.6933 37.8891 36.5467 37.22C36.0267 34.9897 36.1867 32.3691 36.96 30.1805C37.6 28.3684 39.1467 26.5284 40.8 25.6084C42.24 24.7999 44.7867 24.5908 46.4667 25.1205ZM68.7333 20.6877C67.28 20.9665 65.72 21.9283 64.7467 23.1271C64.3867 23.5592 64.04 23.8659 63.9867 23.8102C63.92 23.7405 63.8667 23.1689 63.84 22.5138L63.8 21.3289L61.8133 21.2871C60.4667 21.2592 59.7733 21.301 59.6533 21.4125C59.3733 21.6495 59.3733 47.4935 59.6533 47.7305C59.7733 47.842 60.4667 47.8838 61.8133 47.8559L63.8 47.8141L63.88 39.5898C63.96 31.003 64 30.2781 64.6 28.5357C65.16 26.9047 66.0533 25.8175 67.3333 25.2041C67.9467 24.9253 68.28 24.8696 69.3333 24.8696C70.8933 24.8556 71.6 25.1484 72.4 26.1102C73.0133 26.835 73.2267 27.2811 73.6267 28.7169C73.88 29.6369 73.9067 30.1805 73.9867 38.7534L74.0667 47.8141H78.2L78.28 39.5898C78.36 30.8636 78.4133 30.0272 79.0533 28.2429C79.5733 26.7932 80.6133 25.6223 81.84 25.1205C82.72 24.758 84.9067 24.758 85.6667 25.1205C86.5467 25.5387 86.9067 25.8453 87.3733 26.5981C88.32 28.1314 88.3067 27.9363 88.3733 38.2655C88.4 44.4686 88.4667 47.5911 88.56 47.7026C88.7733 47.9814 92.44 47.9535 92.6667 47.6747C92.7867 47.5214 92.8133 45.3607 92.7733 38.0982C92.72 29.832 92.68 28.6054 92.48 27.7411C91.8133 24.8696 90.84 23.0435 89.4667 22.0398C87.8533 20.8689 87.0667 20.6319 84.7333 20.6459C83.1867 20.6459 82.7067 20.7016 81.9467 20.9525C80.2267 21.538 78.8267 22.458 77.9867 23.5871C77.24 24.5768 77.2 24.6186 77 24.5071C76.8933 24.4374 76.5733 24.0471 76.28 23.6429C75.4267 22.4441 74.2533 21.5938 72.6 20.9665C71.8533 20.6737 69.5867 20.5204 68.7333 20.6877ZM104.533 20.6877C100.173 21.3289 96.56 24.6186 95.0933 29.2745C93.7733 33.4842 94.04 37.9031 95.8133 41.5413C97.2 44.371 98.9867 46.2389 101.467 47.4238C102.72 48.0232 103.12 48.1487 104.52 48.3717C106.093 48.6365 106.707 48.6365 108.28 48.3717C110.72 47.9814 112.413 47.0892 114.16 45.291C114.573 44.8589 114.973 44.5522 115.053 44.608C115.147 44.6638 115.2 45.2771 115.2 46.2111C115.2 47.4517 115.24 47.7305 115.413 47.8002C115.533 47.842 116.453 47.8838 117.48 47.8838H119.333L119.467 47.5353C119.653 47.0335 119.64 21.8865 119.467 21.538C119.333 21.2871 119.173 21.2592 117.427 21.2592C116.12 21.2592 115.467 21.315 115.36 21.4265C115.253 21.538 115.2 22.1095 115.2 23.0992C115.2 24.3956 115.173 24.6047 114.987 24.6047C114.867 24.6047 114.653 24.4374 114.493 24.2423C113.64 23.1132 111.307 21.5938 109.453 20.9804C108.493 20.6598 105.813 20.5065 104.533 20.6877ZM108.733 25.1205C110.64 25.7478 112.08 26.849 113.107 28.4799C114.293 30.3339 114.653 31.7418 114.667 34.3624C114.667 36.6206 114.413 37.8473 113.613 39.5898C112.707 41.5413 111.253 42.9631 109.32 43.7995C108.533 44.1341 108.307 44.1619 106.467 44.1759C104.28 44.1898 103.707 44.0644 102.333 43.2419C100.653 42.2383 99.2267 40.1892 98.5333 37.8055C96.9867 32.4248 99.2133 26.9466 103.653 25.2181C104.787 24.772 107.507 24.7162 108.733 25.1205ZM25.5333 21.2871C25.4933 21.3847 25.48 27.3647 25.4933 34.5715L25.5333 47.6747L27.5333 47.7165C29.2933 47.7444 29.5467 47.7305 29.6933 47.5074C29.8267 47.3262 29.8667 44.5244 29.8667 34.4182C29.8667 22.918 29.84 21.538 29.6533 21.3428C29.48 21.1616 29.0933 21.1198 27.52 21.1198C26.1067 21.1198 25.5733 21.1616 25.5333 21.2871ZM70.76 50.2117C70.6133 50.3651 70.6533 52.9021 70.8 52.9021C70.88 52.9021 70.9333 52.7069 70.9333 52.4839C70.9333 52.1911 71.0533 51.9402 71.28 51.7172C71.5333 51.4663 71.5733 51.3687 71.44 51.3687C71.32 51.3687 71.16 51.2711 71.0667 51.1596C70.9333 50.9923 70.9467 50.8808 71.12 50.602C71.24 50.4069 71.4 50.2814 71.4667 50.3232C71.5467 50.379 71.6 50.3372 71.6 50.2675C71.6 50.1002 70.9067 50.0584 70.76 50.2117ZM76.3067 50.3093C75.6267 50.6996 75.4667 50.9644 75.4667 51.6893C75.4667 52.3026 75.52 52.4281 75.96 52.8463C76.5467 53.4039 77.36 53.5154 77.5867 53.0554C77.72 52.8184 77.68 52.8045 77.1333 52.8742C76.64 52.9299 76.48 52.8881 76.2 52.6093C75.72 52.1214 75.7333 51.2014 76.24 50.7414C76.6267 50.379 77.1867 50.2953 77.44 50.5602C77.52 50.6438 77.64 50.6857 77.6933 50.6299C77.84 50.4766 77.2933 50.1281 76.9333 50.1281C76.7467 50.142 76.4667 50.2257 76.3067 50.3093ZM78.6667 50.2117C78.6667 50.2814 78.76 50.4487 78.8667 50.5881C79 50.7832 79.0667 51.2154 79.0667 51.9542C79.0667 52.5675 79.12 53.0414 79.2 53.0414C79.36 53.0414 79.4533 52.6233 79.5067 51.5081C79.5333 51.0063 79.6 50.4905 79.6533 50.3511C79.7467 50.142 79.6933 50.1141 79.2133 50.1141C78.9067 50.1141 78.6667 50.156 78.6667 50.2117ZM81.3867 50.3093C80.7333 50.6857 80.6667 50.8251 80.6667 51.7172C80.6667 52.5536 80.6933 52.6093 81.12 52.9578C81.7733 53.4736 82.3467 53.4457 82.9733 52.8463C83.4133 52.4281 83.4667 52.3026 83.4667 51.6893C83.4667 51.1457 83.4 50.9366 83.1733 50.7275C82.4667 50.1002 81.9467 49.9747 81.3867 50.3093ZM82.6667 50.6996C83.0133 50.9505 83.0667 51.0899 83.0667 51.6335C83.0667 52.456 82.6933 52.9021 82 52.9021C81.3333 52.9021 81 52.4978 81 51.7172C81 51.2572 81.08 51.0341 81.3333 50.7693C81.76 50.3372 82.1733 50.3093 82.6667 50.6996ZM84.4267 50.2814C84.24 50.4766 84.2 52.9857 84.3867 53.0972C84.4533 53.139 84.5733 52.9857 84.6533 52.7627C84.7867 52.3445 85.0667 52.1911 85.0667 52.5257C85.0667 52.7069 85.5867 53.2366 85.68 53.139C85.7067 53.1111 85.6133 52.8324 85.4667 52.4978L85.1867 51.9123L85.4667 51.5081C85.8133 50.9923 85.72 50.602 85.2 50.3232C84.7333 50.0723 84.6267 50.0723 84.4267 50.2814ZM85.24 51.2572C85.12 51.3966 84.9467 51.5081 84.84 51.5081C84.6667 51.5081 84.6 51.0063 84.7467 50.616C84.8133 50.4208 84.8667 50.4347 85.1333 50.6996C85.4267 50.9923 85.4267 51.0341 85.24 51.2572ZM100.173 50.3511C99.8667 50.5602 99.7733 51.0202 99.9733 51.3129C100.027 51.3826 100.293 51.5917 100.573 51.7729C100.987 52.0378 101.08 52.1633 101.04 52.4699C100.987 52.9021 100.427 53.0693 100.24 52.7069C100.12 52.4839 99.8667 52.5257 99.8667 52.7627C99.8667 52.9996 100.293 53.3202 100.587 53.3202C100.987 53.3202 101.467 52.7627 101.467 52.3027C101.467 52.0239 101.333 51.8426 100.907 51.5499C100.587 51.3408 100.307 51.1596 100.28 51.1317C100.253 51.1178 100.28 50.9366 100.32 50.7275C100.413 50.365 100.48 50.3511 101.133 50.602C101.387 50.6996 101.373 50.6857 101.107 50.4069C100.76 50.0584 100.573 50.0444 100.173 50.3511ZM113.507 50.3511C113.4 50.5741 113.387 51.2432 113.44 52.442C113.467 52.9717 113.733 53.0693 113.733 52.5536C113.733 52.3027 113.867 52.1214 114.16 51.9263C114.973 51.4105 115.053 50.616 114.307 50.2675C113.853 50.0444 113.627 50.0723 113.507 50.3511ZM114.6 51.0202C114.6 51.0202 114.467 51.1735 114.307 51.3548L114.013 51.6893L113.853 51.3408C113.747 51.076 113.747 50.9087 113.867 50.6717L114.027 50.365L114.307 50.6857C114.467 50.8669 114.6 51.0202 114.6 51.0202ZM115.813 50.4626C115.373 50.8948 115.48 51.2014 116.267 51.7172C116.787 52.0657 116.88 52.2469 116.72 52.679C116.613 52.9717 116.04 52.9578 115.88 52.6511C115.773 52.4699 115.72 52.456 115.587 52.5814C115.453 52.7208 115.493 52.8184 115.747 53.0414C116.16 53.4039 116.64 53.3481 116.947 52.9021C117.307 52.3723 117.147 51.8426 116.52 51.4663C115.947 51.1317 115.867 50.7554 116.307 50.4766C116.48 50.365 116.573 50.365 116.667 50.5323C116.733 50.6438 116.827 50.6857 116.88 50.6299C117.013 50.4905 116.667 50.1141 116.4 50.1141C116.28 50.1141 116.013 50.2675 115.813 50.4626ZM64.5467 50.616C64.3867 50.8251 64.2667 51.1317 64.2667 51.3129C64.2667 51.4942 64.2133 51.6475 64.1467 51.6475C64.04 51.6475 63.6 52.8463 63.6 53.1251C63.6 53.1808 63.7467 53.0554 63.9333 52.8463C64.1867 52.5675 64.3733 52.4839 64.84 52.4839C65.32 52.4839 65.4533 52.5396 65.5067 52.7627C65.5867 53.0833 65.8667 53.139 65.8667 52.8324C65.8667 52.6233 65.5867 51.8845 65.2533 51.2014C65.1467 51.0063 65.0667 50.7414 65.0667 50.6299C65.0667 50.2396 64.8267 50.2396 64.5467 50.616ZM65.0667 51.5639C65.0667 51.9542 64.84 52.1633 64.64 51.9542C64.5467 51.8566 64.56 51.7172 64.6533 51.522C64.8667 51.1317 65.0667 51.1457 65.0667 51.5639ZM66.72 50.4626C66.6667 50.5881 66.7333 50.7972 66.8533 50.9366C67.12 51.2432 67.1333 52.1075 66.8667 52.3445C66.64 52.5396 66.6 53.0414 66.8 53.0414C66.88 53.0414 67 52.8881 67.0667 52.693C67.2267 52.2469 67.4 52.2469 67.8133 52.7208C67.9867 52.916 68.1733 53.0554 68.2133 52.9996C68.32 52.8881 68.1467 52.3445 67.9867 52.3445C67.7733 52.3445 67.8533 51.062 68.0933 50.7832C68.2533 50.602 68.2667 50.4766 68.1733 50.379C68.0667 50.2675 67.9867 50.3093 67.88 50.5184C67.7067 50.8529 67.0667 50.9226 67.0667 50.616C67.0667 50.3093 66.8133 50.1978 66.72 50.4626ZM73.3467 50.9087C73.1867 51.2711 72.96 51.759 72.8667 51.9681C72.64 52.4281 72.6 52.9021 72.8 52.9021C72.88 52.9021 72.9733 52.8045 73.0133 52.693C73.1333 52.3723 74.1467 52.4142 74.44 52.7627C74.56 52.916 74.72 53.0414 74.7867 53.0414C74.8933 53.0414 74.6667 52.1772 74.4133 51.6754C74.3467 51.5499 74.2133 51.2432 74.1333 50.9923C73.84 50.1838 73.6667 50.1699 73.3467 50.9087ZM73.9067 51.536C74 51.8984 73.92 52.0657 73.6533 52.0657C73.5333 52.0657 73.4667 51.9123 73.4667 51.6475C73.4667 51.1596 73.8 51.076 73.9067 51.536ZM102.933 50.8808C102.76 51.2711 102.573 51.7032 102.493 51.8566C102.413 52.0099 102.32 52.3305 102.267 52.5814C102.173 52.9996 102.187 53.0275 102.413 52.8881C102.547 52.8184 102.667 52.693 102.667 52.6233C102.667 52.3863 103.827 52.456 103.92 52.693C103.96 52.8045 104.08 52.9021 104.173 52.9021C104.387 52.9021 104.333 52.3027 104.067 51.8566C103.973 51.7032 103.867 51.4245 103.813 51.2293C103.773 51.0341 103.613 50.7275 103.48 50.5323L103.227 50.1978L102.933 50.8808ZM103.467 51.6475C103.467 51.9263 103.4 52.0657 103.267 52.0657C103.133 52.0657 103.067 51.9263 103.067 51.6475C103.067 51.3687 103.133 51.2293 103.267 51.2293C103.4 51.2293 103.467 51.3687 103.467 51.6475ZM117.92 50.4487C117.853 50.616 117.893 50.7693 118.013 50.8669C118.333 51.1317 118.667 51.9263 118.667 52.4142C118.667 52.679 118.72 52.916 118.787 52.9578C118.933 53.0554 119.067 52.7069 119.067 52.2051C119.067 51.6475 119.48 50.8251 119.773 50.8111C119.907 50.8111 120 50.6996 120 50.5323C120 50.1002 119.653 50.1978 119.213 50.7693C118.813 51.2711 118.8 51.2851 118.613 51.0202C118.013 50.142 118.027 50.156 117.92 50.4487ZM60.1467 51.2572C59.92 52.3584 59.8933 52.9578 60.0667 53.0414C60.1467 53.0833 60.2133 52.8324 60.24 52.442C60.2667 52.0517 60.3467 51.7869 60.44 51.7869C60.72 51.8008 61.0667 52.1633 61.0667 52.442C61.0667 52.5954 61.16 52.8045 61.2667 52.9021C61.5333 53.139 61.8667 52.8602 61.8667 52.4002C61.8667 52.1633 61.9733 52.0099 62.2133 51.9263C62.4 51.8426 62.5733 51.7869 62.6 51.7869C62.6267 51.7869 62.6667 52.0796 62.6933 52.442C62.72 52.8184 62.8 53.0972 62.8667 53.0693C63.04 53.0136 62.9867 52.0657 62.8 51.8705C62.7333 51.8008 62.6667 51.4245 62.6667 51.062C62.6667 50.602 62.6133 50.3929 62.4933 50.3929C62.2933 50.3929 61.8667 51.2432 61.8667 51.6475C61.8667 51.8705 61.7733 51.9263 61.4667 51.9263C61.24 51.9263 61.0667 51.8566 61.0667 51.759C61.0667 51.4384 60.6 50.3929 60.4667 50.3929C60.3867 50.3929 60.2533 50.7832 60.1467 51.2572ZM86.6133 50.6996C86.6533 50.8808 86.7867 51.1178 86.8933 51.2432C87 51.3826 87.12 51.8287 87.16 52.2608C87.2267 52.9717 87.4667 53.2505 87.4667 52.6093C87.4667 52.2748 87.9467 51.1457 88.1333 51.0202C88.3467 50.8808 88.2933 50.3929 88.0667 50.3929C87.96 50.3929 87.8667 50.5044 87.8667 50.6438C87.8667 50.7972 87.72 50.9784 87.52 51.062C87.2133 51.2154 87.1733 51.2014 87.0533 50.8111C86.88 50.3093 86.4667 50.2117 86.6133 50.6996ZM93.2933 51.3966C93.0133 52.6093 93 53.0833 93.24 53.0136C93.32 52.9717 93.4133 52.693 93.44 52.3723C93.4667 52.0517 93.5467 51.7869 93.6133 51.7869C93.8533 51.7869 94.24 52.2748 94.2933 52.6233C94.3733 53.2924 94.8667 52.9439 95.12 52.0378C95.1867 51.8287 95.24 51.8148 95.5333 51.9542C95.7867 52.0796 95.8667 52.219 95.8667 52.5675C95.8667 52.8184 95.9333 53.0693 96 53.1111C96.1733 53.2227 96.1733 52.1632 96.0133 51.982C95.9333 51.9123 95.8667 51.5499 95.84 51.1735C95.8133 50.7972 95.7333 50.4626 95.6667 50.4347C95.4933 50.379 95.0667 51.1038 95.0667 51.4384C95.0667 51.7032 94.7067 52.0517 94.44 52.0657C94.3467 52.0657 94.2667 51.9402 94.2667 51.7869C94.2667 51.4523 93.7733 50.3929 93.6267 50.3929C93.56 50.3929 93.4133 50.8529 93.2933 51.3966ZM97.68 50.6996C97.56 50.8669 97.4667 51.1178 97.4667 51.2572C97.4667 51.3966 97.4133 51.5081 97.3333 51.5081C97.2667 51.5081 97.16 51.6754 97.12 51.8845C97.0667 52.1075 96.9333 52.4142 96.8267 52.5954C96.6933 52.8045 96.6667 52.9578 96.76 53.0554C96.8533 53.153 96.9733 53.0833 97.12 52.8463C97.3067 52.5396 97.44 52.4839 97.9333 52.4839C98.44 52.4839 98.5467 52.5396 98.72 52.8602C98.8933 53.2087 98.92 53.2227 99.0133 52.9857C99.0667 52.8324 99.0267 52.5396 98.8933 52.2608C98.5733 51.5639 98.3067 50.9226 98.2133 50.6299C98.12 50.3093 97.92 50.3232 97.68 50.6996ZM98.2667 51.5778C98.2667 51.9681 97.9333 52.1911 97.7067 51.9542C97.5867 51.8287 97.6133 51.7172 97.8 51.5081C98.12 51.1317 98.2667 51.1596 98.2667 51.5778ZM105.173 50.5741C105.08 50.9226 105.227 53.0414 105.347 52.9717C105.413 52.916 105.467 52.7348 105.467 52.5536C105.467 52.3723 105.507 52.1911 105.573 52.1633C105.68 52.0796 106.267 52.5396 106.267 52.7069C106.267 52.8184 106.68 53.1669 106.84 53.1808C107.053 53.1808 106.907 52.8742 106.467 52.3584C106.213 52.0657 106 51.7311 106 51.6057C106 51.4942 106.187 51.2014 106.4 50.9784C106.627 50.7414 106.8 50.5184 106.8 50.4766C106.8 50.2953 106.387 50.4069 106.32 50.602C106.267 50.7135 106.16 50.8111 106.067 50.8111C105.973 50.8111 105.853 50.9087 105.813 51.0341C105.707 51.3129 105.467 51.1596 105.467 50.8111C105.467 50.5044 105.253 50.3232 105.173 50.5741ZM107.867 51.7032C107.867 52.9717 108.027 53.4596 108.2 52.7208C108.333 52.1633 108.213 50.4905 108.04 50.4208C107.907 50.379 107.867 50.6996 107.867 51.7032ZM111.227 50.5602C111.133 50.6578 111.067 50.8669 111.067 51.0481C111.067 51.2293 111.013 51.3687 110.933 51.3687C110.867 51.3687 110.747 51.6196 110.667 51.9263C110.587 52.219 110.467 52.5117 110.4 52.5536C110.227 52.6651 110.227 53.1808 110.4 53.1808C110.48 53.1808 110.6 53.0275 110.667 52.8324C110.773 52.5257 110.867 52.4839 111.467 52.4839C112.067 52.4839 112.16 52.5257 112.267 52.8463C112.347 53.0414 112.453 53.153 112.533 53.1111C112.733 52.9857 112.707 52.8463 112.28 51.8984C112.067 51.4105 111.853 50.8808 111.8 50.6996C111.707 50.3651 111.48 50.2953 111.227 50.5602ZM111.787 51.4942C111.92 51.7172 111.72 52.0657 111.467 52.0657C111.253 52.0657 111.067 51.8148 111.067 51.4942C111.067 51.3269 111.693 51.3269 111.787 51.4942ZM90.9067 51.1317C90.56 51.3966 90.52 51.4105 90.2933 51.1875C90.16 51.062 89.9467 50.9505 89.8133 50.9505C89.6 50.9505 89.6133 50.9923 89.8533 51.3548C90.1333 51.7729 90.2133 52.0657 90.04 52.0657C89.9733 52.0657 89.8667 52.219 89.7733 52.4142C89.5867 52.8324 89.72 52.8602 90.1733 52.4839C90.4667 52.233 90.56 52.219 90.8 52.3723C90.9467 52.4699 91.0667 52.5954 91.0667 52.6511C91.0667 52.7208 91.16 52.7627 91.2667 52.7627C91.5333 52.7627 91.52 52.5954 91.2133 52.1911C90.96 51.8287 90.9867 51.536 91.32 51.2711C91.4667 51.1596 91.4933 51.062 91.4 50.9784C91.32 50.8808 91.1333 50.9366 90.9067 51.1317ZM64.3333 54.9094C63.3867 55.3415 62.8267 56.4427 62.9867 57.5439C63.24 59.1749 65.1867 60.2064 66.2267 59.2585C66.56 58.9518 66.5733 58.91 66.36 58.8124C66.2267 58.7706 65.9733 58.7846 65.7867 58.8821C65.1333 59.1888 64.6933 59.0773 64.0667 58.4082C63.5467 57.8645 63.4667 57.7112 63.4667 57.1954C63.4667 55.8991 64.48 55.0906 65.6933 55.3972C66.3467 55.5784 66.48 55.5366 66.3467 55.2021C66.1867 54.7281 65.0667 54.5748 64.3333 54.9094ZM67.12 54.9233C67.0133 55.216 67.1733 55.4112 67.5333 55.4112H67.8533L67.8933 57.3906C67.9333 59.0494 67.96 59.384 68.1333 59.384C68.2933 59.384 68.3467 59.0494 68.4 57.4324L68.4667 55.4809L68.8667 55.4391C69.3867 55.3694 69.56 55.2021 69.3333 54.9233C69.1067 54.6306 67.2267 54.6166 67.12 54.9233ZM72.4667 54.9094C71.8667 55.216 71.6667 55.4251 71.3467 56.0663C70.8133 57.1815 71.12 58.3942 72.16 59.1749C73.12 59.9137 74.4 59.6488 75.2133 58.5615C75.64 57.99 75.6667 56.3591 75.2667 55.8015C74.6 54.8815 73.32 54.4772 72.4667 54.9094ZM74.0533 55.4669C74.9467 55.8572 75.3467 57.2512 74.8133 58.1015C74.48 58.6312 73.8267 59.0355 73.3067 59.0355C72.5333 59.0355 71.6 58.0039 71.6 57.1536C71.6 56.7633 71.92 56.0385 72.2267 55.7178C72.6267 55.2997 73.4133 55.1881 74.0533 55.4669ZM82.8667 54.9372C82.5733 55.2578 82.6267 59.384 82.9333 59.384C83.08 59.384 83.1467 59.147 83.2 58.3803C83.24 57.8367 83.3067 57.3348 83.3733 57.2791C83.4267 57.2233 83.7067 57.1397 84.0133 57.0979C84.7067 56.9864 84.7467 56.7494 84.0667 56.6936C83.3867 56.6379 83.1733 56.4427 83.2267 55.913C83.2667 55.5088 83.3067 55.4809 83.8667 55.4391C84.5733 55.3833 84.7733 55.23 84.5333 54.9233C84.3067 54.6306 83.16 54.6445 82.8667 54.9372ZM87.9333 54.9233C87 55.3833 86.64 56.0106 86.64 57.1536C86.64 58.1573 86.8533 58.5894 87.6533 59.1888C88.7333 60.0112 90.3067 59.4955 90.68 58.1852C90.92 57.3627 90.76 57.1536 89.8533 57.1536C89.3067 57.1536 89.1333 57.2094 89.1333 57.3627C89.1333 57.5021 89.2933 57.5858 89.64 57.6136C90.1067 57.6554 90.1467 57.6973 90.1067 58.0318C90.0533 58.4639 89.3333 59.0355 88.84 59.0355C88.04 59.0355 87.0667 57.99 87.0667 57.1257C87.0667 56.5542 87.8 55.5366 88.3333 55.3833C88.8533 55.23 89.7333 55.3833 89.8267 55.6342C89.9067 55.8572 90.5333 55.8991 90.5333 55.676C90.5333 55.2718 89.5067 54.7142 88.7733 54.7142C88.5333 54.7281 88.16 54.8118 87.9333 54.9233ZM95.56 54.8118C95.5067 54.8536 95.4667 55.9269 95.4667 57.1815C95.4667 59.1052 95.4933 59.4537 95.6667 59.4537C95.8133 59.4537 95.8667 59.2724 95.8667 58.7149C95.8667 58.2967 95.9067 57.9203 95.96 57.8785C96.0533 57.767 96.6667 58.3106 96.6667 58.5058C96.6667 58.7706 97.2667 59.4537 97.4933 59.4537C97.8267 59.4537 97.8 59.3003 97.2667 58.4918C96.7067 57.6555 96.6933 57.4742 97.1467 57.1257C97.5867 56.7912 97.7333 55.8572 97.4267 55.3554C97.1733 54.9651 95.8 54.5609 95.56 54.8118ZM96.9067 55.5784C97.1867 55.8712 97.0933 56.4706 96.7333 56.7215C96.12 57.1397 95.8667 56.9585 95.8667 56.0524C95.8667 55.8015 95.9067 55.5506 95.96 55.5088C96.1067 55.3554 96.7333 55.3972 96.9067 55.5784ZM98.6133 54.9233C98.44 55.1184 98.4 55.4948 98.4 57.1536C98.4 59.5931 98.4133 59.6209 99.72 59.5652C100.4 59.5373 100.6 59.4815 100.6 59.3143C100.6 59.1609 100.427 59.0912 99.9733 59.0634C99.64 59.0355 99.28 58.9379 99.2 58.8264C99.12 58.7288 99.0667 58.3106 99.0933 57.8924L99.1333 57.1536L99.8667 57.0839C100.267 57.0421 100.6 56.9445 100.6 56.8748C100.6 56.7912 100.267 56.7076 99.8667 56.6657L99.1333 56.596L99.0533 55.4251L99.8267 55.3833C100.493 55.3415 100.6 55.2997 100.6 55.0627C100.6 54.8118 100.493 54.7839 99.72 54.7421C99.04 54.7142 98.7733 54.756 98.6133 54.9233ZM103.84 54.9233C103.6 55.0627 103.453 55.2857 103.4 55.5924C103.267 56.3033 103.507 56.7215 104.32 57.1954C104.72 57.4464 105.12 57.753 105.187 57.8924C105.373 58.2409 105.08 58.7846 104.627 58.9518C104.32 59.0633 104.213 59.0355 103.893 58.7149C103.2 58.0179 102.84 58.3385 103.48 59.0912C103.813 59.4955 103.987 59.5931 104.387 59.5931C104.653 59.5931 105.013 59.4955 105.173 59.37C105.52 59.1191 105.867 58.4639 105.867 58.0736C105.867 57.6694 105.333 57.0839 104.587 56.6657C104.08 56.3869 103.92 56.2197 103.893 55.9269C103.84 55.453 104.333 55.2021 104.88 55.4112C105.36 55.6063 105.467 55.5924 105.467 55.2997C105.467 54.7839 104.493 54.5609 103.84 54.9233ZM106.613 54.9372C106.293 55.2578 106.307 59.0494 106.613 59.384C106.907 59.6906 108.6 59.6349 108.6 59.3143C108.6 59.1609 108.4 59.0912 107.867 59.0355L107.133 58.9658V57.1536L107.867 57.0839C108.267 57.0421 108.6 56.9445 108.6 56.8748C108.6 56.7912 108.267 56.7076 107.867 56.6657L107.133 56.596L107.093 55.9966L107.053 55.4112H107.787C108.56 55.4112 108.8 55.2578 108.533 54.9233C108.293 54.6306 106.893 54.6445 106.613 54.9372ZM109.693 54.8954C109.48 55.0487 109.467 55.3136 109.493 57.2233C109.533 59.0355 109.56 59.384 109.733 59.384C109.88 59.384 109.947 59.1888 109.973 58.5755C110.013 57.8506 110.04 57.7948 110.253 57.9203C110.4 57.99 110.667 58.3385 110.853 58.687C111.24 59.3561 111.653 59.6906 111.8 59.4397C111.853 59.37 111.68 58.9518 111.413 58.5476C110.867 57.6833 110.827 57.4603 111.173 57.1954C111.733 56.7773 111.893 55.9409 111.52 55.3415C111.387 55.1184 111.107 54.9651 110.653 54.8675C109.853 54.6863 109.96 54.6863 109.693 54.8954ZM111.067 55.7597C111.32 56.4566 110.68 57.2233 110.2 56.8051C110 56.6379 109.92 55.676 110.093 55.5088C110.133 55.453 110.347 55.4112 110.56 55.4112C110.84 55.4112 110.973 55.4948 111.067 55.7597ZM114.067 54.9372C113.88 55.1324 113.853 55.4669 113.893 57.2512C113.92 58.91 113.973 59.3561 114.133 59.4537C114.24 59.5373 114.72 59.5791 115.2 59.5652C115.907 59.5233 116.067 59.4815 116.107 59.2724C116.147 59.0773 116.053 59.0355 115.48 59.0355C114.667 59.0355 114.387 58.7288 114.493 57.9342C114.6 57.2094 114.747 57.0839 115.48 57.0839C115.96 57.0839 116.133 57.0282 116.133 56.8748C116.133 56.7354 115.933 56.6657 115.373 56.6379C114.667 56.596 114.613 56.5682 114.52 56.1918C114.36 55.6063 114.573 55.4112 115.36 55.4112C115.827 55.4112 116.027 55.3554 116.093 55.1881C116.213 54.8536 115.893 54.7142 115.04 54.7142C114.52 54.7142 114.213 54.7839 114.067 54.9372ZM117.507 54.993C117.12 55.23 117.067 55.3415 117.067 55.8712C117.067 56.3312 117.147 56.5542 117.373 56.7773C117.547 56.9445 117.747 57.0839 117.813 57.0839C117.88 57.0839 118.16 57.2373 118.44 57.4324C119.04 57.8645 119.12 58.4639 118.64 58.8124C118.227 59.1191 117.947 59.0912 117.587 58.687C117.2 58.2688 116.933 58.2409 116.933 58.6173C116.933 59.0633 117.6 59.5931 118.147 59.5931C118.907 59.5931 119.467 58.9797 119.467 58.1573C119.467 57.5997 119.413 57.4742 118.973 57.0979C118.693 56.8609 118.373 56.6657 118.253 56.6657C118.133 56.6657 117.947 56.5542 117.827 56.4148C117.28 55.7875 117.8 55.0906 118.547 55.4251C118.867 55.5506 118.987 55.5506 119.107 55.4251C119.227 55.2857 119.2 55.1881 118.947 54.979C118.547 54.6445 118.053 54.6445 117.507 54.993ZM60.5467 55.216C60.4 55.4251 60.2667 55.6621 60.2667 55.7736C60.2667 55.8712 60.1867 56.1221 60.08 56.3451C59.9867 56.5542 59.8 56.9724 59.68 57.2651C59.5733 57.5439 59.3867 57.99 59.28 58.2409C59.16 58.4779 59.04 58.8543 58.9867 59.0634C58.92 59.384 58.9467 59.4537 59.1467 59.4537C59.3067 59.4397 59.4933 59.2306 59.6667 58.8543C59.92 58.2827 59.96 58.2688 60.6267 58.227C61.4133 58.1852 61.8667 58.3664 61.8667 58.7427C61.8667 58.8682 62.0133 59.133 62.2 59.3143C62.4933 59.607 62.5333 59.607 62.6133 59.3979C62.6667 59.2724 62.6133 58.9658 62.4933 58.7149C62.3867 58.4639 62 57.5439 61.6533 56.6657C61.3067 55.7875 60.9867 55.0069 60.9333 54.9512C60.88 54.8815 60.7067 55.0069 60.5467 55.216ZM61.2 56.9166C61.4 57.4603 61.24 57.6694 60.6667 57.6136C60.2267 57.5579 60.1733 57.1118 60.5467 56.61C60.8667 56.1918 60.9333 56.2336 61.2 56.9166ZM69.96 54.9512C69.84 55.0627 69.84 58.9379 69.9467 59.2306C70.0667 59.5512 70.36 59.4955 70.4533 59.133C70.6 58.5336 70.5467 55.2021 70.3733 55.0209C70.1867 54.8257 70.08 54.8118 69.96 54.9512ZM76.3733 54.9372C76.3067 54.993 76.2667 56.0385 76.2667 57.2512C76.2667 59.0912 76.2933 59.4537 76.4667 59.4537C76.7333 59.4537 76.8533 58.6452 76.76 57.5161C76.6533 56.1082 76.7867 56.0245 77.68 57.0142C79.6 59.133 79.9067 59.4537 80.0133 59.4537C80.08 59.4537 80.1333 58.45 80.1333 57.2233C80.1333 55.0906 80.12 54.993 79.8667 54.993C79.6133 54.993 79.6 55.0906 79.6 56.3869C79.6 58.0597 79.4533 58.2409 78.7733 57.4185C77.64 56.0663 76.4533 54.8397 76.3733 54.9372ZM85.56 54.9512C85.5067 54.993 85.4667 56.0385 85.4667 57.2512C85.4667 59.0355 85.5067 59.4537 85.6533 59.4537C85.9467 59.4537 86 59.1191 86 57.1536C86 55.0348 85.9067 54.5748 85.56 54.9512ZM91.56 54.9512C91.5067 54.993 91.4667 55.8294 91.4667 56.8051V58.5755L91.96 59.0773C92.36 59.5094 92.5333 59.5931 93 59.5931C93.6667 59.5931 94.1333 59.2585 94.4533 58.5615C94.6133 58.213 94.6667 57.6833 94.6667 56.5542C94.6667 54.993 94.5733 54.6724 94.2 54.993C94.04 55.1324 94 55.5366 94 56.7633C94 58.2688 93.9867 58.3664 93.6667 58.687C93.16 59.2306 92.52 59.133 92.2 58.4639C92.0667 58.1991 92 57.6276 92 56.6797C92 55.0348 91.8933 54.6027 91.56 54.9512ZM112.667 57.1536C112.667 59.1052 112.693 59.4537 112.867 59.4537C113.04 59.4537 113.067 59.1052 113.067 57.1536C113.067 55.2021 113.04 54.8536 112.867 54.8536C112.693 54.8536 112.667 55.2021 112.667 57.1536Z" fill="#5A5A5A"/>
</svg>
