<svg width="33" height="33" viewBox="0 0 33 33" fill="none" xmlns="http://www.w3.org/2000/svg">
<path d="M28.3799 12.2866L11.9133 3.4733C11.5417 3.27601 11.1274 3.17285 10.7066 3.17285C10.2859 3.17285 9.87156 3.27601 9.49995 3.4733L4.63329 6.00663C4.19448 6.2471 3.82737 6.59974 3.56946 7.02852C3.31155 7.4573 3.17208 7.94687 3.1653 8.44719C3.15852 8.94752 3.28467 9.44068 3.53087 9.8763C3.77707 10.3119 4.13449 10.6744 4.56662 10.9266L20.86 20.1666C21.2557 20.3861 21.7008 20.5013 22.1533 20.5013C22.6058 20.5013 23.0509 20.3861 23.4466 20.1666L28.5 17.18C28.9232 16.9213 29.2709 16.5559 29.5082 16.1204C29.7455 15.6848 29.864 15.1945 29.8519 14.6987C29.8397 14.2028 29.6973 13.7189 29.4389 13.2955C29.1806 12.8721 28.8153 12.5242 28.3799 12.2866Z" stroke="#FBBC04" stroke-width="2" stroke-linecap="round" stroke-linejoin="round"/>
<path d="M4.61976 12.2866L21.0864 3.4733C21.458 3.27601 21.8724 3.17285 22.2931 3.17285C22.7138 3.17285 23.1281 3.27601 23.4998 3.4733L28.3664 6.00663C28.8088 6.24103 29.1809 6.58869 29.4448 7.01408C29.7088 7.43946 29.855 7.92731 29.8685 8.42773C29.8821 8.92816 29.7625 9.4232 29.522 9.86226C29.2815 10.3013 28.9288 10.6686 28.4998 10.9266L12.1398 20.1666C11.744 20.3861 11.2989 20.5013 10.8464 20.5013C10.3939 20.5013 9.94883 20.3861 9.55309 20.1666L4.49976 17.18C4.07653 16.9213 3.7288 16.5559 3.49149 16.1204C3.25419 15.6848 3.13566 15.1945 3.14782 14.6987C3.15998 14.2028 3.3024 13.7189 3.56077 13.2955C3.81913 12.8721 4.18436 12.5242 4.61976 12.2866Z" stroke="#FBBC04" stroke-width="2" stroke-linecap="round" stroke-linejoin="round"/>
<path d="M16.5 29.8335V17.8335" stroke="#FBBC04" stroke-width="2" stroke-linecap="round" stroke-linejoin="round"/>
<path d="M27.1668 18.5V22.9933C27.1674 23.4966 27.0296 23.9903 26.7686 24.4206C26.5076 24.8509 26.1334 25.2012 25.6868 25.4333L17.6868 29.54C17.3203 29.7305 16.9133 29.8299 16.5002 29.8299C16.0871 29.8299 15.68 29.7305 15.3135 29.54L7.3135 25.4333C6.86694 25.2012 6.49274 24.8509 6.23174 24.4206C5.97074 23.9903 5.83298 23.4966 5.8335 22.9933V18.5" stroke="#FBBC04" stroke-width="2" stroke-linecap="round" stroke-linejoin="round"/>
</svg>
