<svg width="156" height="157" viewBox="0 0 156 157" fill="none" xmlns="http://www.w3.org/2000/svg">
<g clip-path="url(#clip0_6888_28422)">
<path d="M103.704 62.707H130.876V67.7224H120.097V94.1074H114.707V67.7224H103.704V62.707ZM59.0153 62.707V67.7224H37.2347V75.7904H54.7506V80.8058H37.2347V89.092H59.0153V94.1078H31.8451V67.7224H31.8428V62.707H59.0153ZM72.5833 62.7201H65.5301L90.7934 94.1204H97.8672L85.234 78.431L97.847 62.7439L90.7934 62.7549L81.7026 74.0455L72.5833 62.7201ZM79.8211 85.1497L76.2889 80.7579L65.5099 94.1446H72.5833L79.8211 85.1497Z" fill="#5A5A5A"/>
<path fill-rule="evenodd" clip-rule="evenodd" d="M32.0342 94.1087L6.7369 62.6953H0V94.0957H5.38952V69.4073L25.2637 94.1087H32.0342Z" fill="#5A5A5A"/>
<path d="M132.088 93.9162C131.901 93.9193 131.715 93.8845 131.541 93.8141C131.367 93.7436 131.209 93.6388 131.077 93.506C130.796 93.2324 130.657 92.9014 130.66 92.5091C130.657 92.1278 130.796 91.8003 131.077 91.5267C131.209 91.394 131.367 91.2892 131.541 91.2187C131.715 91.1483 131.901 91.1135 132.088 91.1165C132.468 91.1165 132.8 91.2531 133.081 91.5267C133.366 91.7999 133.509 92.1278 133.513 92.5091C133.512 92.7593 133.442 93.0045 133.311 93.2178C133.183 93.4285 133.003 93.6032 132.789 93.7254C132.577 93.852 132.335 93.918 132.088 93.9162ZM141.287 80.6879H143.676V89.8895C143.672 90.7349 143.489 91.4582 143.132 92.0664C142.77 92.6746 142.27 93.1386 141.627 93.4661C140.988 93.7899 140.239 93.9558 139.388 93.9558C138.61 93.9558 137.913 93.8153 137.292 93.5417C136.671 93.2685 136.178 92.8583 135.817 92.3182C135.451 91.7786 135.273 91.1055 135.273 90.2997H137.665C137.668 90.6521 137.749 90.9582 137.902 91.2136C138.053 91.4662 138.274 91.6698 138.537 91.7999C138.811 91.9369 139.125 92.0054 139.479 92.0054C139.863 92.0054 140.192 91.9262 140.458 91.7639C140.725 91.6055 140.929 91.368 141.072 91.0516C141.21 90.7388 141.284 90.35 141.287 89.8895V80.6879ZM153.502 84.2866C153.444 83.7287 153.188 83.2932 152.743 82.984C152.294 82.6712 151.713 82.516 151.001 82.516C150.501 82.516 150.07 82.5916 149.712 82.7393C149.354 82.8905 149.077 83.0917 148.886 83.3474C148.697 83.6028 148.602 83.8942 148.594 84.2217C148.594 84.4953 148.66 84.7324 148.788 84.9304C148.916 85.1323 149.087 85.3014 149.31 85.438C149.539 85.5824 149.784 85.6996 150.041 85.7872C150.311 85.8807 150.581 85.9598 150.851 86.0248L152.096 86.3304C152.593 86.4433 153.078 86.5999 153.546 86.7984C153.997 86.9848 154.419 87.2344 154.799 87.5396C155.164 87.8335 155.463 88.2013 155.675 88.619C155.891 89.0402 156 89.5332 156 90.1018C156 90.8683 155.803 91.541 155.405 92.1242C155.007 92.7035 154.434 93.1568 153.681 93.4843C152.933 93.8081 152.027 93.9736 150.961 93.9736C149.931 93.9736 149.033 93.8153 148.277 93.4985C147.517 93.1857 146.925 92.7249 146.498 92.1207C146.071 91.5161 145.841 90.7784 145.808 89.9113H148.175C148.207 90.3643 148.354 90.7424 148.602 91.0481C148.854 91.3502 149.182 91.5735 149.584 91.7247C149.99 91.872 150.442 91.9476 150.943 91.9476C151.465 91.9476 151.925 91.8684 152.323 91.714C152.717 91.5592 153.028 91.343 153.251 91.0623C153.477 90.7852 153.59 90.4581 153.594 90.0835C153.59 89.7419 153.488 89.4576 153.291 89.2343C153.09 89.0113 152.812 88.8241 152.458 88.6732C152.053 88.5059 151.635 88.3699 151.209 88.2666L149.697 87.8849C148.605 87.6077 147.74 87.1869 147.108 86.6219C146.473 86.0568 146.158 85.3085 146.158 84.369C146.158 83.5993 146.37 82.9226 146.798 82.3433C147.221 81.7641 147.802 81.3139 148.536 80.994C149.274 80.6701 150.106 80.5117 151.034 80.5117C151.976 80.5117 152.801 80.6701 153.513 80.994C154.225 81.3143 154.784 81.7605 155.189 82.3291C155.595 82.8976 155.807 83.5486 155.818 84.2866H153.502Z" fill="#5A5A5A"/>
</g>
<defs>
<clipPath id="clip0_6888_28422">
<rect width="156" height="31.6992" fill="white" transform="translate(0 62.5703)"/>
</clipPath>
</defs>
</svg>
