<svg width="64" height="65" viewBox="0 0 64 65" fill="none" xmlns="http://www.w3.org/2000/svg">
<path d="M25.6979 60.8822C29.189 59.8828 47.7936 41.1219 49.7159 36.8643C51.6381 32.6067 53.0136 19.955 49.4863 16.4276C47.9967 14.938 44.8785 14.3258 41.4538 14.2571C41.9344 10.167 44.8217 7.40271 48.8153 7.40271C49.9704 7.4461 51.0987 7.76266 52.1078 8.32643C53.1168 8.89019 53.9779 9.6851 54.6204 10.646C56.3251 13.1376 57.5902 18.0817 53.9356 27.4852C53.8762 27.6375 53.8475 27.8001 53.851 27.9636C53.8545 28.1271 53.8902 28.2882 53.956 28.4379C54.0218 28.5876 54.1165 28.7228 54.2346 28.8359C54.3527 28.949 54.492 29.0377 54.6444 29.0969C54.7968 29.1561 54.9593 29.1848 55.1228 29.1811C55.2863 29.1775 55.4474 29.1417 55.5971 29.0758C55.7467 29.0098 55.8819 28.9151 55.9949 28.7969C56.1078 28.6787 56.1964 28.5394 56.2555 28.3869C60.303 17.972 58.7174 12.2265 56.6742 9.24051C55.7991 7.94982 54.6307 6.88481 53.2647 6.13275C51.8987 5.38069 50.3739 4.96297 48.8153 4.91382C43.0619 4.91382 38.8862 9.35686 38.8862 15.4782C38.8382 18.4217 39.9058 21.2742 41.8745 23.4629C41.9869 23.5815 42.1215 23.6769 42.2707 23.7435C42.4199 23.8102 42.5808 23.8468 42.7442 23.8512C42.9075 23.8557 43.0701 23.8279 43.2228 23.7695C43.3754 23.7111 43.515 23.6232 43.6337 23.5109C43.7523 23.3985 43.8477 23.2639 43.9143 23.1147C43.9809 22.9655 44.0175 22.8046 44.022 22.6413C44.0264 22.4779 43.9987 22.3153 43.9403 22.1627C43.8819 22.0101 43.794 21.8704 43.6817 21.7518C43.0519 21.0724 42.5451 20.2887 42.1838 19.4358C42.8686 19.2839 43.5827 19.3334 44.24 19.5784C44.8972 19.8234 45.4696 20.2533 45.8879 20.8164C46.3062 21.3794 46.5527 22.0515 46.5975 22.7515C46.6424 23.4515 46.4837 24.1495 46.1406 24.7613C45.7976 25.3732 45.2848 25.8726 44.6642 26.1995C44.0435 26.5263 43.3416 26.6666 42.643 26.6034C41.9444 26.5401 41.279 26.2761 40.7272 25.8431C40.1754 25.4101 39.7606 24.8266 39.533 24.1631C37.6347 21.6682 36.6193 18.6131 36.6465 15.4782C36.6465 15.1373 36.6693 14.8045 36.6917 14.4718C34.0756 14.6836 31.5027 15.2648 29.0496 16.198C24.7919 18.1202 6.031 36.7248 5.03162 40.2158C4.5937 41.7455 8.76917 47.6274 13.5278 52.386C18.2865 57.1447 24.1683 61.3201 25.6979 60.8822ZM17.2255 42.2722L16.8782 39.9127C16.8091 39.4369 16.9317 38.9531 17.2189 38.5675C17.5062 38.182 17.9347 37.9262 18.4104 37.8562C18.8861 37.7863 19.3701 37.908 19.7561 38.1946C20.1422 38.4812 20.3987 38.9093 20.4695 39.3849L20.8164 41.7441C20.9572 42.5783 21.3514 43.349 21.9455 43.9513C22.2689 44.2898 22.6486 44.5697 23.0676 44.7786C23.3728 44.974 23.727 45.0794 24.0894 45.0828C24.4518 45.0861 24.8078 44.9873 25.1167 44.7976C25.6523 44.378 25.814 43.551 25.5469 42.5857L24.0352 37.1297C23.3738 34.7382 24.0228 32.4243 25.7288 31.0907C26.568 30.4733 27.5663 30.1086 28.606 30.0399C29.6457 29.9711 30.6833 30.2011 31.5966 30.7026C31.8262 30.817 32.0496 30.9436 32.2656 31.0819L33.2474 30.1001C33.5879 29.7607 34.0492 29.5704 34.53 29.5708C35.0108 29.5712 35.4718 29.7623 35.8117 30.1023C36.1517 30.4423 36.3429 30.9032 36.3433 31.384C36.3437 31.8648 36.1533 32.3261 35.8139 32.6666L34.8105 33.6702C35.3435 34.5256 35.6987 35.4796 35.8551 36.4753L36.202 38.8346C36.2367 39.0704 36.2246 39.3107 36.1663 39.5418C36.1081 39.7729 36.005 39.9903 35.8627 40.1816C35.7205 40.3728 35.542 40.5342 35.3374 40.6564C35.1328 40.7787 34.9061 40.8594 34.6703 40.8941C34.4345 40.9288 34.1942 40.9166 33.963 40.8584C33.7319 40.8002 33.5145 40.697 33.3233 40.5548C33.132 40.4125 32.9707 40.234 32.8484 40.0294C32.7262 39.8248 32.6454 39.5982 32.6108 39.3624L32.2638 37.0031C32.1237 36.1714 31.7316 35.4028 31.1405 34.8011C30.8156 34.4604 30.434 34.1788 30.0127 33.9686C29.7076 33.7732 29.3536 33.6678 28.9914 33.6645C28.6291 33.6612 28.2732 33.7602 27.9646 33.95C27.4275 34.3696 27.2666 35.1966 27.5333 36.1615L29.0451 41.6175C29.7062 44.0084 29.0574 46.3222 27.3525 47.6568C26.513 48.2741 25.5145 48.6385 24.4747 48.7072C23.4349 48.7759 22.3972 48.546 21.4837 48.0446C21.2534 47.9312 21.0293 47.8056 20.8123 47.6683L19.8332 48.6474C19.4927 48.9869 19.0314 49.1774 18.5505 49.1771C18.0697 49.1768 17.6086 48.9856 17.2686 48.6456C16.9285 48.3055 16.7373 47.8445 16.737 47.3636C16.7367 46.8827 16.9272 46.4214 17.2667 46.0809L18.2641 45.0834C17.7325 44.2257 17.3793 43.2695 17.2255 42.2722Z" fill="#F39324"/>
</svg>
