<svg width="156" height="157" viewBox="0 0 156 157" fill="none" xmlns="http://www.w3.org/2000/svg">
<path fill-rule="evenodd" clip-rule="evenodd" d="M77.5103 108.412C78.9943 109.639 80.7342 110.162 82.6124 110.259C83.3892 110.3 84.1883 110.262 84.9527 110.123C86.165 109.902 87.3741 109.626 88.5534 109.271C90.9549 108.546 93.0302 107.294 94.5796 105.272C95.4624 104.119 96.187 102.872 96.6524 101.494C97.0367 100.357 97.3977 99.2089 97.6851 98.0454C97.912 97.1286 98.0246 96.1821 98.1621 95.2455C98.254 94.626 98.3095 94 98.3666 93.3747C98.4594 92.3603 98.5563 91.3475 98.6233 90.3305C98.6706 89.6233 98.6689 88.9128 98.6962 88.2048C98.7053 87.9886 98.7401 87.7741 98.7608 87.5596C98.7782 87.3601 98.8792 87.2913 99.083 87.2946C99.7985 87.3054 100.516 87.3236 101.23 87.2913C102.031 87.2557 102.838 87.2209 103.626 87.0893C104.748 86.9018 105.861 86.6642 106.962 86.3771C108.26 86.0367 109.452 85.428 110.6 84.7357C111.935 83.9283 113.154 82.9818 114.14 81.7619C115 80.7003 115.408 79.4697 115.2 78.1273C114.898 76.1771 113.26 74.8993 111.354 74.8123C110.663 74.7808 109.963 74.8537 109.276 74.9407C108.443 75.0467 107.623 75.2338 106.794 75.3572C106.221 75.4433 105.64 75.4814 105.069 75.5411L105.053 75.4665C106.121 73.4484 107.234 71.4534 108.245 69.408C109.02 67.8378 109.683 66.2122 110.368 64.5974C111.502 61.9242 112.407 59.169 113.158 56.3675C113.876 53.686 114.49 50.9756 114.685 48.1931C114.763 47.0825 114.817 45.9671 114.809 44.8549C114.804 43.9671 114.708 43.0786 114.619 42.1941C114.518 41.1805 114.212 40.2199 113.788 39.2957C113.23 38.0767 112.363 37.0771 111.451 36.1281C110.721 35.3679 109.918 34.6756 109.122 33.9833C107.987 32.9961 106.71 32.2069 105.385 31.5072C103.883 30.7093 102.292 30.0922 100.645 29.6687C99.6411 29.4158 98.631 29.1891 97.6155 28.9888C97.2545 28.916 96.8901 28.7305 96.5265 28.7305H89.6796C89.432 28.7305 89.1869 28.8928 88.9376 28.9201C87.2989 29.0988 85.6809 29.433 84.1055 29.918C83.5175 30.0994 82.9809 29.9934 82.4219 29.9412C81.9929 29.9014 81.5714 29.7913 81.1425 29.7698C79.5102 29.6886 77.8763 29.571 76.2433 29.5884C74.6798 29.605 73.132 29.8633 71.619 30.2923C70.3528 30.6534 69.1131 31.0915 67.9769 31.7581C67.4916 32.043 67.1057 31.9891 66.6031 31.845C64.9148 31.3507 63.212 30.9078 61.4968 30.5167C60.4277 30.2774 59.3272 30.1565 58.2349 30.0439C57.1866 29.9348 56.1342 29.8694 55.0805 29.8476C54.052 29.8253 53.0168 29.8261 51.9925 29.9172C50.3619 30.0621 48.7628 30.3933 47.2076 30.9283C45.4935 31.5151 43.8917 32.3891 42.4707 33.5129C41.0215 34.6598 39.8588 36.0585 38.9255 37.6577C37.9408 39.3445 37.2643 41.1507 36.8452 43.0463C36.6175 44.074 36.7011 45.1307 36.5446 46.1741C36.4966 46.4971 36.5935 46.8217 36.5935 47.1463V51.6886C36.5935 51.99 36.5049 52.2923 36.543 52.5954C36.6365 53.3233 36.6042 54.057 36.7276 54.78C36.9214 55.9244 37.0961 57.0648 37.3313 58.201C37.6601 59.7885 37.974 61.3743 38.3383 62.9544C38.6022 64.1049 38.8915 65.2486 39.2062 66.3853C39.6865 68.1227 40.1552 69.8626 40.6993 71.5793C41.2053 73.1751 41.7817 74.7477 42.3572 76.3212C43.1464 78.4966 44.113 80.6036 45.2474 82.6207C46.237 84.3689 47.3657 86.0061 48.8812 87.3518C49.8807 88.2395 50.9913 88.9211 52.284 89.2623C53.2936 89.5314 54.3522 89.5609 55.3753 89.3484C56.5615 89.1075 57.6696 88.5769 58.6009 87.8039C58.7102 87.7153 58.8286 87.6466 58.9586 87.8106C59.4506 88.4333 60.1081 88.849 60.7963 89.2076C62.6529 90.1765 64.676 90.4672 66.7306 90.5848C67.2291 90.6129 67.731 90.5417 68.232 90.5285C69.21 90.5011 70.159 90.3107 71.0923 90.0407C71.5826 89.8991 72.0604 89.7186 72.5589 89.5513C72.5846 90.0821 72.6177 90.5922 72.6343 91.1032L72.703 93.8882C72.7163 94.3122 72.7329 94.7362 72.7718 95.1585C72.8728 96.2467 72.9714 97.3348 73.1014 98.4197C73.1908 99.1675 73.2852 99.9202 73.4608 100.651C73.814 102.122 74.2968 103.56 74.9034 104.947C75.4836 106.293 76.3775 107.481 77.5103 108.412ZM74.5365 94.5258C74.4777 93.2182 74.4338 91.91 74.4048 90.6013C74.3701 88.9931 74.3585 87.3841 74.3361 85.7759L74.332 85.7146C73.5146 86.2057 72.7088 86.7423 71.8567 87.1853C70.8571 87.7046 69.7723 88.0052 68.6485 88.0905C67.7682 88.1567 66.8747 88.2172 65.9985 88.1476C64.5609 88.0308 63.1233 87.8064 61.8364 87.0975C61.3147 86.8102 60.7698 86.4599 60.4095 86.0019C59.5474 84.9014 59.9607 83.5109 61.2608 82.8418C62.1593 82.3781 63.1398 82.1851 64.1137 81.9599C64.9614 81.7675 65.8003 81.5382 66.6279 81.2725C67.4444 81.005 67.9595 80.3425 68.4688 79.6925L69.2754 78.6556L68.3057 78.5546C67.3434 78.4652 66.425 78.1993 65.5472 77.8101C64.7969 77.478 64.7853 77.4416 64.2338 78.0395C63.3146 79.0374 62.4202 80.0601 61.5184 81.0754C60.8551 81.8224 60.1967 82.5735 59.535 83.3229C58.8825 84.0641 58.2696 84.8467 57.5649 85.5357C56.5198 86.5593 55.2594 87.1746 53.7555 87.105C52.7908 87.0603 51.908 86.7224 51.113 86.17C49.4741 85.0289 48.3702 83.4306 47.3641 81.7537C46.0763 79.6038 45.0867 77.3141 44.2412 74.9622C43.6557 73.3358 43.0669 71.7085 42.5568 70.0589C42.0011 68.266 41.5134 66.4524 41.0339 64.6371C40.6712 63.2682 40.3498 61.8878 40.0434 60.5048C39.6907 58.9328 39.3644 57.355 39.0646 55.7721C38.865 54.703 38.7499 53.6181 38.5884 52.5424C38.3706 51.0907 38.3309 49.6274 38.4104 48.1707C38.4808 46.8581 38.6688 45.5497 38.8559 44.2462C39.1151 42.4426 39.7097 40.7408 40.5643 39.1334C41.0914 38.1538 41.7376 37.2431 42.4881 36.4221C43.722 35.0565 45.2151 34.0702 46.8763 33.329C48.0365 32.8115 49.263 32.5009 50.5126 32.2566C52.3676 31.8956 54.2392 31.9105 56.1107 31.9486C56.9289 31.966 57.7446 32.1142 58.562 32.1962C60.3226 32.3709 62.0476 32.7419 63.751 33.1982C64.9932 33.5311 66.2097 33.9634 67.4403 34.3377C67.5629 34.375 67.7442 34.3717 67.8461 34.3062C69.5148 33.2164 71.3375 32.4976 73.2778 32.086C74.014 31.9303 74.7742 31.8616 75.5269 31.8136C76.4412 31.7564 77.3646 31.7018 78.2771 31.7556C79.3744 31.8185 80.4684 31.98 81.559 32.1291C82.089 32.202 82.6058 32.385 83.1358 32.4347C83.3908 32.4587 83.66 32.274 83.9283 32.2111C85.298 31.8939 86.6619 31.542 88.0441 31.2927C89.0726 31.1072 90.1243 31.0194 91.1694 30.9598C92.3371 30.8927 93.5113 30.8438 94.6773 30.9002C96.1514 30.9714 97.6147 31.1809 99.0589 31.5171C100.849 31.9337 102.565 32.5382 104.197 33.3779C105.417 34.0065 106.576 34.7335 107.62 35.6279C108.304 36.2151 109.005 36.7939 109.622 37.4481C110.384 38.2547 111.16 39.0605 111.639 40.0932C111.999 40.8724 112.256 41.679 112.327 42.5312C112.415 43.592 112.522 44.6561 112.513 45.7186C112.504 46.7339 112.364 47.7484 112.267 48.762C112.042 51.0708 111.541 53.3299 110.931 55.5592C110.422 57.4006 109.844 59.2226 109.201 61.0215C108.614 62.6803 107.936 64.3084 107.251 65.9307C106.746 67.1319 106.198 68.3144 105.608 69.4759C104.486 71.6721 103.32 73.8459 101.971 75.9162C101.739 76.2731 101.518 76.6392 101.291 77.0044C101.88 77.401 102.546 77.541 103.217 77.6139C103.855 77.6826 104.506 77.7248 105.144 77.6768C106.165 77.6006 107.183 77.4549 108.198 77.3133C109.203 77.1725 110.188 76.8868 111.222 76.9621C112.252 77.0375 112.99 77.8209 112.92 78.7865C112.875 79.3976 112.595 79.9218 112.189 80.3699C110.272 82.4849 107.865 83.7668 105.113 84.3987C104.067 84.6388 102.988 84.7622 101.918 84.8624C101.003 84.9426 100.085 84.9641 99.1674 84.927C98.495 84.9022 97.8284 84.7482 97.141 84.6488C97.0714 85.2773 97.006 85.9324 96.9265 86.5849L96.606 89.0884C96.5091 89.8817 96.4338 90.6784 96.3336 91.4717C96.2359 92.2419 96.1141 93.0079 96.0114 93.7772C95.9162 94.4935 95.8458 95.214 95.7382 95.9295C95.575 97.0259 95.4185 98.1249 95.204 99.213C94.9473 100.513 94.5548 101.772 93.9113 102.945C93.1279 104.377 92.0174 105.468 90.603 106.275C89.1455 107.108 87.5513 107.541 85.9373 107.903C84.7928 108.161 83.6161 108.202 82.4575 108.097C80.4493 107.916 78.7351 107.057 77.4391 105.499C76.2027 104.013 75.3655 102.31 75.0665 100.382C74.9256 99.4638 74.8162 98.5416 74.7386 97.6164C74.6488 96.5878 74.5815 95.5574 74.5365 94.5258ZM76.794 81.3139C76.8064 82.0013 76.7352 82.6886 76.7385 83.376C76.7534 86.5753 76.7749 89.7749 76.8031 92.9748C76.8081 93.4973 76.8337 94.0215 76.871 94.5432C76.9497 95.6363 77.0275 96.7303 77.1335 97.8201C77.2097 98.5944 77.3132 99.3662 77.4349 100.135C77.6089 101.222 78.1041 102.191 78.6655 103.118C79.1492 103.914 79.7794 104.59 80.6083 105.057C82.0178 105.85 83.5341 105.916 85.0628 105.624C86.0955 105.428 87.1108 105.111 88.1128 104.784C89.0986 104.467 89.9988 103.928 90.7446 103.21C91.4476 102.529 91.9462 101.698 92.2824 100.781C92.9341 99.0043 93.1387 97.1319 93.4078 95.2753C93.5089 94.5797 93.5966 93.8824 93.6886 93.1859C93.7946 92.3937 93.8986 91.6014 94.0008 90.8092C94.0769 90.2179 94.1449 89.6275 94.2169 89.037C94.3204 88.189 94.4289 87.3418 94.5274 86.4938C94.6028 85.838 94.6657 85.1796 94.7336 84.5221C94.8198 83.6815 94.9117 82.8435 94.9871 82.0013C95.0434 81.3636 95.0202 80.7135 95.1336 80.0866C95.3415 78.938 95.8847 77.9608 96.9033 77.3282C97.329 77.0648 97.811 76.8909 98.283 76.6673L98.2018 76.5439C97.7654 75.9775 97.3182 75.4202 96.8901 74.8471C96.2176 73.9478 95.734 72.9449 95.2479 71.9371C94.7875 70.9814 94.2244 70.0771 93.7399 69.1322C92.8944 67.4842 92.0331 65.8404 91.2539 64.1618C90.2742 62.0501 89.5024 59.8655 89.2597 57.5269C89.1562 56.5381 89.1297 55.5493 89.331 54.5696C89.6514 53.0045 90.468 51.7805 91.8427 50.9408C93.118 50.1623 94.5382 49.9106 95.9932 49.8319C96.8959 49.7831 97.8043 49.8228 98.7409 49.8228L98.7103 49.6646C98.1273 48.4456 97.5832 47.2059 96.9447 46.0168C96.0454 44.3373 94.8926 42.8235 93.6107 41.4182C92.6645 40.3734 91.6251 39.4171 90.5052 38.5611C89.3972 37.7222 88.2296 36.9728 86.9832 36.3608C85.5025 35.6247 83.9389 35.0687 82.3259 34.7046C80.7648 34.3584 79.1955 34.1464 77.5939 34.129C76.2292 34.1141 74.8727 34.177 73.5428 34.4843C71.5354 34.9489 69.6994 35.7753 68.1036 37.1136C67.2197 37.8544 66.43 38.701 65.7526 39.6344C64.9518 40.7317 64.3075 41.9192 63.756 43.1622C62.9991 44.869 62.4798 46.6436 62.1237 48.4688C61.9465 49.3798 61.8074 50.2965 61.6658 51.2132C61.6161 51.5354 61.6128 51.8625 61.583 52.231L62.1892 51.9155L62.7804 51.6505C64.782 50.7354 66.8548 50.1466 69.0825 50.2137C70.0299 50.2418 70.9342 50.4298 71.7772 50.8447C73.392 51.6414 74.3361 52.9954 74.7468 54.7079C75.0301 55.8905 75.2247 57.0962 75.4135 58.2995C75.5609 59.2386 75.7124 60.1876 75.729 61.135C75.753 62.5196 75.6835 63.9076 75.6081 65.2914C75.5436 66.4681 75.3001 67.6281 74.886 68.7314C74.1374 70.7321 73.3026 72.7006 72.5233 74.6898C72.2658 75.3473 72.0679 76.0272 71.8252 76.7501L72.809 76.751C72.9283 76.7534 73.05 76.7568 73.1651 76.7841C74.0603 76.9953 74.8379 77.401 75.4748 78.09C76.3261 79.0043 76.7716 80.0742 76.794 81.3139ZM59.6957 71.8278C59.1884 70.6336 58.8823 69.3638 58.7897 68.0697C58.7036 66.8491 58.8485 65.635 58.9744 64.4193C59.0953 63.2426 59.198 62.06 59.2328 60.8791C59.2916 58.9355 59.1607 56.9969 59.068 55.0549C59.0125 53.8988 59.1466 52.7287 59.2493 51.5702C59.3421 50.5267 59.458 49.4808 59.6559 48.4523C59.9863 46.7265 60.4261 45.0255 61.0513 43.3767C61.6434 41.8132 62.3258 40.2919 63.2864 38.9214C63.9464 37.9806 64.6934 37.1036 65.4114 36.1844L65.1977 36.1082C62.8599 35.3662 60.4832 34.7849 58.0378 34.5323C56.8825 34.4122 55.7223 34.3427 54.5638 34.2731C54.2077 34.2524 53.8466 34.3004 53.4897 34.3344C52.6061 34.4197 51.7109 34.4528 50.8414 34.6184C49.3615 34.9 47.9413 35.3737 46.627 36.1447C45.4636 36.8285 44.4438 37.7316 43.6243 38.8038C42.7075 39.9888 42.0889 41.3287 41.6459 42.7564C41.1225 44.4417 40.8724 46.1766 40.8053 47.9264C40.7465 49.4609 40.7175 51.0037 40.9825 52.5324C41.1788 53.6695 41.3105 54.8197 41.5274 55.9534C41.8191 57.4992 42.1466 59.038 42.5096 60.5686C43.0338 62.7581 43.5588 64.9493 44.1808 67.1124C44.7753 69.1835 45.4453 71.2365 46.1741 73.2654C46.7686 74.9208 47.4568 76.5456 48.1814 78.148C48.6535 79.1923 49.2249 80.1976 49.8244 81.1748C50.4613 82.2133 51.1867 83.1987 52.1688 83.9523C53.4102 84.903 54.37 85.0513 55.6321 84.007C56.172 83.5606 56.6283 83.0074 57.0987 82.4816C57.8448 81.6468 58.5653 80.7872 59.3089 79.9483C60.2555 78.8809 61.2136 77.8242 62.1651 76.7601C62.3664 76.5356 62.561 76.3038 62.7564 76.0769L62.431 75.7928C61.2572 74.6725 60.3262 73.3229 59.6957 71.8278ZM95.5874 40.0253C96.366 40.9292 97.1043 41.867 97.8002 42.8359C99.1349 44.7068 100.209 46.7506 100.993 48.911C101.34 49.8675 101.619 50.8331 101.494 51.879C101.408 52.6119 101.414 53.3548 101.35 54.0918C101.297 54.7046 101.199 55.3141 101.12 55.9253C101.001 56.8461 100.829 57.7654 100.777 58.6904C100.728 59.5715 100.78 60.4609 100.835 61.3429C100.891 62.2397 101.012 63.1324 101.094 64.0268C101.186 65.0429 101.312 66.0565 101.34 67.0743C101.364 67.9091 101.289 68.748 101.217 69.5827C101.125 70.583 100.882 71.5636 100.497 72.4911C100.229 73.1486 99.9103 73.7846 99.6096 74.4421L99.7306 74.5697L99.9144 74.7121L100.101 74.3809C101.665 71.9208 103.055 69.3536 104.259 66.6983C105.031 64.9846 105.764 63.2534 106.457 61.506C107.536 58.7894 108.408 55.9951 109.066 53.1469C109.364 51.8683 109.593 50.5698 109.795 49.2713C109.953 48.256 110.084 47.2291 110.114 46.2047C110.144 45.1182 110.085 44.0235 109.984 42.9403C109.909 42.1221 109.707 41.2989 109.195 40.6323C108.37 39.5615 107.481 38.538 106.387 37.7272C105.465 37.0457 104.546 36.3442 103.558 35.7712C101.991 34.8611 100.294 34.2565 98.5207 33.8441C96.7891 33.4408 95.0367 33.2669 93.2728 33.2297C92.2327 33.2073 91.1876 33.3191 90.15 33.4177C89.2092 33.5054 88.2743 33.6562 87.3277 33.7804C88.3438 34.3518 89.3467 34.8602 90.2908 35.459C92.2783 36.7177 94.0604 38.2324 95.5874 40.0253ZM69.7665 75.2728C70.4083 73.219 71.2836 71.2563 72.1308 69.2838C72.819 67.683 73.1941 65.9977 73.3192 64.2653C73.3813 63.4115 73.3647 62.547 73.3225 61.6907C73.2808 60.738 73.1935 59.7879 73.0608 58.8436C72.8827 57.6395 72.6807 56.4346 72.3958 55.2528C72.0869 53.9742 71.3085 53.0831 69.9735 52.7544C69.1611 52.5548 68.3529 52.5631 67.5306 52.6931C65.524 53.0086 63.6872 53.7481 61.9763 54.8313C61.6318 55.0491 61.4414 55.2255 61.5018 55.7182C61.6277 56.765 61.655 57.8283 61.6501 58.8842C61.6434 60.3789 61.5797 61.8737 61.5233 63.3676C61.5051 63.8537 61.4347 64.339 61.3817 64.8235C61.3022 65.5655 61.1474 66.3066 61.1523 67.0478C61.1573 67.8113 61.2352 68.5923 61.4207 69.3318C62.0095 71.677 63.255 73.595 65.2979 74.949C66.5542 75.782 67.9438 76.2011 69.47 76.2814C69.5711 75.9311 69.6646 75.6007 69.7665 75.2728ZM67.3683 55.1584C67.0991 54.5945 67.2531 54.1266 67.8759 53.9096C68.0283 53.8574 68.184 53.7995 68.3413 53.7846C68.5591 53.763 68.7786 53.7788 68.998 53.7788C69.7889 53.7837 70.5491 53.8939 71.2008 54.3957C71.6199 54.7187 71.7325 55.1452 71.4608 55.5857C71.0758 56.2093 70.4903 56.5223 69.7698 56.582C68.6361 56.6755 67.8403 56.1472 67.3683 55.1584ZM98.8163 54.9522L99.0738 52.6956C99.1111 52.3941 98.9529 52.3113 98.6995 52.3039C97.9021 52.2823 97.1054 52.2534 96.3079 52.2401C95.4102 52.2235 94.5349 52.3676 93.7035 52.7088C92.7809 53.0889 92.0787 53.6968 91.7913 54.7013C91.5817 55.4416 91.5154 56.2151 91.5959 56.9803C91.7081 58.1642 91.9762 59.3282 92.3934 60.4419C92.9515 61.9267 93.5345 63.4107 94.2326 64.8334C95.1775 66.7588 96.2458 68.6237 97.2495 70.5201C97.517 71.0261 97.7439 71.5553 98.023 72.1457C98.5868 70.9712 98.8945 69.6902 98.9256 68.3877C98.9529 67.3103 98.8676 66.2305 98.8047 65.1531C98.7658 64.4939 98.6722 63.838 98.6084 63.1805C98.5198 62.2646 98.384 61.3478 98.3625 60.4294C98.3418 59.4953 98.408 58.5562 98.4875 57.6229C98.5621 56.7302 98.7095 55.8433 98.8163 54.9522ZM97.0201 54.2284C96.7236 55.0458 96.0909 55.5079 95.2694 55.6429C94.5043 55.7696 93.8335 55.4872 93.3349 54.876C92.9797 54.4413 93.1155 53.927 93.648 53.6322C94.2591 53.2943 94.9307 53.209 95.7233 53.1577C95.9394 53.1966 96.2624 53.2305 96.5704 53.3175C97.0168 53.4434 97.1824 53.7812 97.0201 54.2284ZM73.3374 79.4059C72.9001 79.0482 72.3204 79.0275 71.9047 79.42C71.388 79.9086 70.9333 80.4668 70.4787 81.0166C69.9545 81.6526 69.4609 82.3135 68.7852 82.8062C67.8005 83.5225 66.6503 83.819 65.4959 84.0997C64.5783 84.3233 63.6558 84.5312 62.7357 84.7448L62.7241 84.8641C62.9974 84.99 63.2616 85.1481 63.5473 85.2384C64.951 85.6823 66.3795 85.9042 67.8635 85.7783C68.9334 85.6864 69.9537 85.4529 70.9201 84.9949C72.2509 84.3647 73.2753 83.3652 74.1456 82.2042C74.2914 82.0104 74.3576 81.7238 74.3742 81.4738C74.433 80.591 73.985 79.9343 73.3374 79.4059ZM98.9637 79.0233C98.2755 79.2544 97.7157 79.6063 97.5493 80.3508C97.4358 80.8543 97.3944 81.3752 97.3505 81.8911C97.3422 81.9822 97.4557 82.1495 97.5418 82.1727C98.0718 82.3126 98.6051 82.4774 99.1467 82.5263C99.8134 82.5868 100.491 82.5677 101.162 82.5346C101.885 82.4981 102.614 82.4509 103.328 82.3317C105.008 82.0485 106.635 81.5897 108.08 80.6357C108.601 80.292 109.117 79.9409 109.635 79.5914L109.592 79.5177C109.04 79.5997 108.489 79.6999 107.934 79.7587C106.804 79.8796 105.674 80.0071 104.54 80.0726C103.993 80.104 103.438 79.9989 102.887 79.9541C101.961 79.8788 101.056 79.6734 100.274 79.1782C99.8225 78.8933 99.4449 78.8618 98.9637 79.0233Z" fill="#5A5A5A"/>
<path d="M27.3477 110.866C28.5366 110.672 29.7396 110.579 30.9442 110.586C32.7951 110.586 34.1524 111.017 35.0136 111.792C35.8103 112.481 36.284 113.536 36.284 114.829C36.284 116.142 35.8956 117.176 35.1635 117.929C34.1731 118.984 32.5582 119.523 30.7281 119.523C30.1682 119.523 29.6515 119.501 29.2217 119.393V125.208H27.3477V110.866ZM29.2217 117.864C29.6308 117.971 30.1475 118.014 30.772 118.014C33.0319 118.014 34.4107 116.916 34.4107 114.914C34.4107 112.998 33.0543 112.072 30.9873 112.072C30.1691 112.072 29.5447 112.136 29.2217 112.223V117.864ZM47.6309 119.909C47.6309 123.763 44.9602 125.444 42.4411 125.444C39.6205 125.444 37.4458 123.377 37.4458 120.081C37.4458 116.593 39.7281 114.548 42.6133 114.548C45.607 114.547 47.6309 116.723 47.6309 119.909ZM39.3629 120.017C39.3629 122.299 40.6763 124.022 42.528 124.022C44.3366 124.022 45.6923 122.321 45.6923 119.974C45.6923 118.208 44.8103 115.969 42.5702 115.969C40.3302 115.969 39.3629 118.036 39.3629 120.017ZM49.7617 123.268C50.3215 123.634 51.3119 124.022 52.2593 124.022C53.6373 124.022 54.2833 123.333 54.2833 122.471C54.2833 121.567 53.7458 121.072 52.3454 120.555C50.4722 119.888 49.5894 118.854 49.5894 117.605C49.5894 115.926 50.9459 114.548 53.1852 114.548C54.2402 114.548 55.1669 114.849 55.7482 115.194L55.2745 116.572C54.6336 116.177 53.8956 115.968 53.1429 115.969C52.0233 115.969 51.3989 116.615 51.3989 117.39C51.3989 118.251 52.0241 118.639 53.3806 119.156C55.1892 119.845 56.1151 120.749 56.1151 122.299C56.1151 124.129 54.694 125.421 52.2179 125.421C51.0768 125.421 50.0217 125.141 49.2897 124.711L49.7617 123.268ZM60.8296 111.791V114.784H63.5417V116.227H60.8296V121.846C60.8296 123.138 61.1948 123.87 62.2506 123.87C62.6208 123.876 62.9901 123.833 63.3487 123.741L63.4349 125.162C63.0697 125.313 62.4875 125.42 61.7562 125.42C60.8735 125.42 60.1621 125.141 59.71 124.624C59.1725 124.064 58.9779 123.138 58.9779 121.911V116.227H57.363V114.784H58.9779V112.286L60.8296 111.791ZM74.5235 114.785C74.4796 115.538 74.4373 116.378 74.4373 117.648V123.699C74.4373 126.089 73.9636 127.553 72.9517 128.458C71.9397 129.405 70.4756 129.707 69.1622 129.707C67.9134 129.707 66.5354 129.405 65.6948 128.846L66.1685 127.403C66.8575 127.834 67.9341 128.221 69.2259 128.221C71.1637 128.221 72.5848 127.209 72.5848 124.582V123.42H72.5418C71.9604 124.389 70.8408 125.164 69.2259 125.164C66.6422 125.164 64.7905 122.968 64.7905 120.081C64.7905 116.55 67.0943 114.548 69.4843 114.548C71.2938 114.548 72.2842 115.495 72.7364 116.357H72.7794L72.8655 114.785H74.5235ZM72.5641 118.897C72.5641 118.574 72.5426 118.294 72.4565 118.036C72.112 116.938 71.1861 116.034 69.8081 116.034C67.9987 116.034 66.7076 117.562 66.7076 119.974C66.7076 122.019 67.7411 123.72 69.7866 123.72C70.9493 123.72 72.0043 122.988 72.4134 121.782C72.521 121.459 72.5649 121.093 72.5649 120.77L72.5641 118.897ZM77.4509 118.036C77.4509 116.809 77.4293 115.754 77.3648 114.785H79.0235L79.0873 116.83H79.1734C79.6471 115.431 80.7882 114.548 82.0586 114.548C82.2739 114.548 82.4238 114.569 82.596 114.613V116.4C82.3842 116.353 82.1677 116.332 81.9509 116.335C80.616 116.335 79.6678 117.347 79.4102 118.768C79.3569 119.059 79.3281 119.355 79.3241 119.651V125.206H77.4509V118.036ZM85.3321 120.34C85.3752 122.902 87.0107 123.957 88.9055 123.957C90.2628 123.957 91.0802 123.72 91.7907 123.419L92.1137 124.775C91.4462 125.077 90.305 125.421 88.6471 125.421C85.439 125.421 83.5227 123.311 83.5227 120.168C83.5227 117.024 85.3744 114.547 88.4103 114.547C91.8122 114.547 92.7165 117.54 92.7165 119.456C92.7165 119.844 92.6735 120.145 92.6519 120.339L85.3321 120.34ZM90.8872 118.983C90.9079 117.778 90.3912 115.904 88.2604 115.904C86.3441 115.904 85.5044 117.67 85.3528 118.983H90.8872ZM94.8697 122.924C95.8845 123.534 97.0444 123.861 98.2285 123.871C100.145 123.871 101.264 122.859 101.264 121.395C101.264 120.038 100.489 119.263 98.53 118.51C96.1615 117.67 94.6974 116.443 94.6974 114.397C94.6974 112.136 96.5706 110.457 99.3912 110.457C100.877 110.457 101.953 110.802 102.599 111.168L102.083 112.696C101.235 112.242 100.288 112.005 99.3266 112.007C97.3457 112.007 96.5922 113.192 96.5922 114.182C96.5922 115.538 97.4741 116.206 99.4773 116.981C101.932 117.929 103.181 119.113 103.181 121.244C103.181 123.483 101.523 125.421 98.0993 125.421C96.6998 125.421 95.1711 125.012 94.3951 124.495L94.8697 122.924ZM117.714 127.338C115.843 126.846 113.99 126.286 112.159 125.658C111.858 125.55 111.556 125.443 111.276 125.443C107.831 125.314 104.882 122.773 104.882 118.101C104.882 113.45 107.724 110.457 111.643 110.457C115.583 110.457 118.146 113.514 118.146 117.799C118.146 121.524 116.423 123.914 114.012 124.754V124.84C115.454 125.206 117.026 125.55 118.253 125.766L117.714 127.338ZM116.164 117.885C116.164 114.979 114.658 111.985 111.578 111.985C108.413 111.985 106.863 114.913 106.884 118.058C106.863 121.137 108.564 123.914 111.492 123.914C114.485 123.914 116.164 121.201 116.164 117.885ZM120.577 110.694H122.451V123.634H128.652V125.206H120.577V110.694Z" fill="#5A5A5A"/>
</svg>
