<svg width="64" height="64" viewBox="0 0 64 64" fill="none" xmlns="http://www.w3.org/2000/svg">
<path d="M25.6979 59.9684C29.189 58.969 47.7936 40.208 49.7159 35.9505C51.6381 31.6929 53.0136 19.0412 49.4863 15.5138C47.9967 14.0242 44.8785 13.412 41.4538 13.3433C41.9344 9.25322 44.8217 6.48889 48.8153 6.48889C49.9704 6.53228 51.0987 6.84884 52.1078 7.41261C53.1168 7.97637 53.9779 8.77129 54.6204 9.73217C56.3251 12.2238 57.5902 17.1678 53.9356 26.5714C53.8762 26.7237 53.8475 26.8863 53.851 27.0498C53.8545 27.2132 53.8902 27.3744 53.956 27.5241C54.0218 27.6738 54.1165 27.809 54.2346 27.9221C54.3527 28.0352 54.492 28.1238 54.6444 28.1831C54.7968 28.2423 54.9593 28.2709 55.1228 28.2673C55.2863 28.2637 55.4474 28.2279 55.5971 28.162C55.7467 28.096 55.8819 28.0012 55.9949 27.883C56.1078 27.7648 56.1964 27.6255 56.2555 27.4731C60.303 17.0582 58.7174 11.3126 56.6742 8.3267C55.7991 7.036 54.6307 5.971 53.2647 5.21893C51.8987 4.46687 50.3739 4.04915 48.8153 4C43.0619 4 38.8862 8.44305 38.8862 14.5644C38.8382 17.5078 39.9058 20.3604 41.8745 22.5491C41.9869 22.6677 42.1215 22.7631 42.2707 22.8297C42.4199 22.8963 42.5808 22.9329 42.7442 22.9374C42.9075 22.9418 43.0701 22.9141 43.2228 22.8557C43.3754 22.7973 43.515 22.7094 43.6337 22.5971C43.7523 22.4847 43.8477 22.3501 43.9143 22.2009C43.9809 22.0517 44.0175 21.8908 44.022 21.7275C44.0264 21.5641 43.9987 21.4015 43.9403 21.2489C43.8819 21.0962 43.794 20.9566 43.6817 20.838C43.0519 20.1586 42.5451 19.3749 42.1838 18.5219C42.8686 18.3701 43.5827 18.4196 44.24 18.6646C44.8972 18.9096 45.4696 19.3395 45.8879 19.9025C46.3062 20.4656 46.5527 21.1377 46.5975 21.8377C46.6424 22.5377 46.4837 23.2357 46.1406 23.8475C45.7976 24.4593 45.2848 24.9588 44.6642 25.2857C44.0435 25.6125 43.3416 25.7528 42.643 25.6895C41.9444 25.6263 41.279 25.3622 40.7272 24.9292C40.1754 24.4962 39.7606 23.9128 39.533 23.2493C37.6347 20.7544 36.6193 17.6993 36.6465 14.5644C36.6465 14.2235 36.6693 13.8907 36.6917 13.558C34.0756 13.7698 31.5027 14.3509 29.0496 15.2841C24.7919 17.2064 6.031 35.8109 5.03162 39.302C4.5937 40.8317 8.76917 46.7136 13.5278 51.4722C18.2865 56.2309 24.1683 60.4063 25.6979 59.9684ZM17.2255 41.3584L16.8782 38.9988C16.8091 38.523 16.9317 38.0392 17.2189 37.6537C17.5062 37.2682 17.9347 37.0123 18.4104 36.9424C18.8861 36.8725 19.3701 36.9942 19.7561 37.2808C20.1422 37.5674 20.3987 37.9955 20.4695 38.471L20.8164 40.8303C20.9572 41.6645 21.3514 42.4351 21.9455 43.0374C22.2689 43.376 22.6486 43.6559 23.0676 43.8647C23.3728 44.0602 23.727 44.1656 24.0894 44.169C24.4518 44.1723 24.8078 44.0735 25.1167 43.8837C25.6523 43.4642 25.814 42.6372 25.5469 41.6719L24.0352 36.2159C23.3738 33.8244 24.0228 31.5105 25.7288 30.1769C26.568 29.5594 27.5663 29.1948 28.606 29.1261C29.6457 29.0573 30.6833 29.2872 31.5966 29.7888C31.8262 29.9032 32.0496 30.0298 32.2656 30.1681L33.2474 29.1863C33.5879 28.8469 34.0492 28.6565 34.53 28.6569C35.0108 28.6574 35.4718 28.8485 35.8117 29.1885C36.1517 29.5285 36.3429 29.9894 36.3433 30.4702C36.3437 30.951 36.1533 31.4123 35.8139 31.7528L34.8105 32.7563C35.3435 33.6118 35.6987 34.5658 35.8551 35.5615L36.202 37.9207C36.2367 38.1565 36.2246 38.3969 36.1663 38.628C36.1081 38.8591 36.005 39.0765 35.8627 39.2677C35.7205 39.459 35.542 39.6204 35.3374 39.7426C35.1328 39.8649 34.9061 39.9456 34.6703 39.9803C34.4345 40.0149 34.1942 40.0028 33.963 39.9446C33.7319 39.8864 33.5145 39.7832 33.3233 39.641C33.132 39.4987 32.9707 39.3202 32.8484 39.1156C32.7262 38.911 32.6454 38.6843 32.6108 38.4485L32.2638 36.0892C32.1237 35.2576 31.7316 34.4889 31.1405 33.8873C30.8156 33.5466 30.434 33.2649 30.0127 33.0548C29.7076 32.8594 29.3536 32.754 28.9914 32.7507C28.6291 32.7474 28.2732 32.8463 27.9646 33.0362C27.4275 33.4557 27.2666 34.2827 27.5333 35.2477L29.0451 40.7036C29.7062 43.0945 29.0574 45.4084 27.3525 46.743C26.513 47.3602 25.5145 47.7247 24.4747 47.7934C23.4349 47.8621 22.3972 47.6322 21.4837 47.1308C21.2534 47.0174 21.0293 46.8918 20.8123 46.7545L19.8332 47.7336C19.4927 48.0731 19.0314 48.2636 18.5505 48.2633C18.0697 48.2629 17.6086 48.0718 17.2686 47.7317C16.9285 47.3917 16.7373 46.9306 16.737 46.4498C16.7367 45.9689 16.9272 45.5076 17.2667 45.167L18.2641 44.1696C17.7325 43.3118 17.3793 42.3557 17.2255 41.3584Z" fill="#F39324"/>
</svg>
