<svg width="156" height="157" viewBox="0 0 156 157" fill="none" xmlns="http://www.w3.org/2000/svg">
<g clip-path="url(#clip0_6888_28435)">
<path d="M97.1152 96.9981C100.704 96.6887 103.48 93.5331 103.303 89.7628C103.109 85.9926 100.019 82.9648 96.2531 82.9648H96.0014C94.1325 83.0315 92.3665 83.8376 91.0917 85.206C89.8169 86.5743 89.1377 88.3929 89.2034 90.2619C89.3272 92.2378 90.1357 93.8466 91.2412 95.0181C86.9182 103.425 80.4296 109.604 70.5956 114.797C63.9832 118.254 56.9996 119.558 50.2016 118.634C44.5173 117.829 40.0706 115.292 37.3481 111.213C33.2726 105.029 32.9013 98.3593 36.2962 91.6851C38.7712 86.8588 42.4796 83.3402 44.9546 81.6077C44.2081 79.5357 43.6287 77.4073 43.2221 75.2428C24.9194 88.3521 26.7839 106.271 32.3444 114.74C36.4859 120.919 44.9546 124.871 54.2234 124.871C56.6984 124.871 59.2972 124.689 61.8258 124.07C77.9009 120.981 90.0738 111.341 97.0574 97.1259L97.1152 96.9981ZM119.176 81.5458C109.606 70.2928 95.5064 64.1136 79.4354 64.1136H77.3317C76.2881 61.8283 73.8791 60.4052 71.1524 60.4052H70.9668C67.0769 60.4052 64.0451 63.7464 64.1729 67.6363C64.2967 71.3406 67.4482 74.4343 71.2184 74.4343H71.5237C72.861 74.3827 74.1551 73.9472 75.2516 73.1799C76.348 72.4126 77.2005 71.3459 77.7071 70.1072H79.9964C89.5211 70.1072 98.5383 72.8874 106.759 78.3242C113.058 82.4698 117.575 87.9066 120.112 94.3993C122.331 99.7123 122.212 104.906 119.926 109.237C116.4 116.031 110.464 119.62 102.618 119.62C97.6721 119.62 92.8541 118.073 90.3791 116.963C88.8941 118.192 86.4191 120.234 84.6288 121.472C90.0656 123.938 95.5683 125.362 100.881 125.362C112.935 125.362 121.894 118.568 125.297 112.013C129.001 104.596 128.696 92.1141 119.233 81.4221L119.176 81.5458ZM55.2712 99.2173C55.3949 102.926 58.5423 106.015 62.3167 106.015H62.5642C63.4927 105.993 64.4075 105.786 65.2547 105.405C66.1019 105.025 66.8646 104.479 67.4979 103.799C68.1312 103.12 68.6223 102.321 68.9425 101.449C69.2626 100.577 69.4053 99.6501 69.3622 98.7223C69.3622 95.0098 66.1488 91.9284 62.3786 91.9284H62.1311C61.8836 91.9284 61.5123 91.9284 61.1988 92.0481C56.0714 83.3938 53.9058 74.1167 54.7143 64.1136C55.2093 56.5731 57.6843 50.0184 62.1269 44.5817C65.8394 39.9452 72.8231 37.6517 77.5833 37.5362C90.9318 37.2846 96.4964 53.9166 96.9254 60.5289L103.105 62.3852C101.682 42.1067 89.0797 31.4766 77.0264 31.4766C65.7074 31.4766 55.2712 39.6977 51.0637 51.7509C45.3176 67.8178 49.0878 83.2742 56.1374 95.6368C55.5187 96.4412 55.1474 97.8602 55.2712 99.2173Z" fill="#5A5A5A"/>
</g>
<defs>
<clipPath id="clip0_6888_28435">
<rect width="99" height="99" fill="white" transform="translate(28.5 28.918)"/>
</clipPath>
</defs>
</svg>
