<svg width="156" height="157" viewBox="0 0 156 157" fill="none" xmlns="http://www.w3.org/2000/svg">
<g clip-path="url(#clip0_6888_28427)">
<mask id="mask0_6888_28427" style="mask-type:luminance" maskUnits="userSpaceOnUse" x="31" y="31" width="94" height="95">
<path d="M31 31.418H125V125.418H31V31.418Z" fill="white"/>
</mask>
<g mask="url(#mask0_6888_28427)">
<path d="M122.764 31.418H33.2325C32.64 31.419 32.0722 31.6551 31.6536 32.0744C31.2351 32.4937 31 33.0619 31 33.6544V123.185C30.9995 123.479 31.057 123.77 31.1692 124.042C31.2814 124.313 31.4461 124.56 31.6539 124.768C31.8617 124.976 32.1084 125.14 32.38 125.253C32.6515 125.365 32.9426 125.422 33.2364 125.422H122.768C123.061 125.422 123.352 125.364 123.623 125.252C123.895 125.139 124.141 124.975 124.349 124.767C124.557 124.559 124.721 124.313 124.834 124.041C124.946 123.77 125.004 123.479 125.004 123.185V33.6505C125.003 33.3568 124.945 33.0661 124.832 32.7949C124.719 32.5238 124.554 32.2775 124.346 32.0702C124.138 31.8629 123.891 31.6986 123.62 31.5867C123.348 31.4748 123.057 31.4175 122.764 31.418ZM86.9535 81.6531H75.7636V116.464H66.8101V81.6531H55.6202V73.9412H86.9535V81.6531ZM89.4602 114.475V105.173C89.4602 105.173 94.544 109.003 100.642 109.003C106.741 109.003 106.506 105.016 106.506 104.468C106.506 98.6828 89.2252 98.6828 89.2252 85.8596C89.2252 68.4226 114.405 75.3042 114.405 75.3042L114.092 83.5919C114.092 83.5919 109.87 80.7758 105.099 80.7758C100.329 80.7758 98.6095 83.0475 98.6095 85.468C98.6095 91.7229 116.047 91.1001 116.047 103.688C116.047 123.076 89.4602 114.479 89.4602 114.479" fill="#5A5A5A"/>
</g>
</g>
<defs>
<clipPath id="clip0_6888_28427">
<rect width="94" height="94" fill="white" transform="translate(31 31.418)"/>
</clipPath>
</defs>
</svg>
