<svg width="30" height="30" viewBox="0 0 30 30" fill="none" xmlns="http://www.w3.org/2000/svg">
<g clip-path="url(#clip0_3337_22553)">
<path d="M26.3504 19.7413L26.0797 18.382H23.042L22.5586 19.7317L20.1238 19.7365C21.6886 15.975 22.851 13.1898 23.6087 11.3785C23.8068 10.9048 24.1585 10.6631 24.6768 10.6668C25.0732 10.6704 25.7196 10.6704 26.6174 10.668L28.5 19.7377L26.3504 19.7413ZM23.7259 16.5199H25.6834L24.9523 13.1124L23.7259 16.5199ZM8.03083 10.6655L10.4789 10.668L6.69442 19.7425L4.21613 19.7401C3.59293 17.3432 2.97748 14.9442 2.36979 12.5433C2.24896 12.0648 2.00971 11.7301 1.54933 11.5718C0.869445 11.3439 0.186261 11.126 -0.5 10.9181L-0.5 10.668H3.41138C4.08804 10.668 4.48317 10.9954 4.61004 11.6673C4.73813 12.3403 5.05954 14.0549 5.57671 16.8075L8.03083 10.6655ZM13.8429 10.668L11.9084 19.7413L9.5775 19.7377L11.5108 10.6655L13.8429 10.668ZM18.5675 10.5C19.2647 10.5 20.1432 10.7175 20.6483 10.9181L20.2398 12.7983C19.7831 12.6146 19.0315 12.3669 18.3995 12.3753C17.4812 12.391 16.9133 12.7765 16.9133 13.1463C16.9133 13.748 17.8993 14.0513 18.9143 14.7086C20.0719 15.4578 20.2253 16.1308 20.2108 16.8631C20.1951 18.3795 18.9143 19.8767 16.2125 19.8767C14.98 19.8585 14.5353 19.7558 13.53 19.3982L13.9553 17.4358C14.9788 17.8636 15.4125 18.0001 16.2874 18.0001C17.0885 18.0001 17.776 17.6763 17.7821 17.112C17.7869 16.7108 17.5404 16.5115 16.6414 16.016C15.7424 15.5194 14.4809 14.8331 14.4978 13.452C14.5184 11.6854 16.1919 10.5 18.5675 10.5Z" fill="#003FBB"/>
</g>
<defs>
<clipPath id="clip0_3337_22553">
<rect width="29" height="29" fill="white" transform="translate(0.5 0.5)"/>
</clipPath>
</defs>
</svg>
